<?xml version="1.0" encoding="utf-8"?>
<!-- Generator: Adobe Illustrator 22.0.1, SVG Export Plug-In . SVG Version: 6.00 Build 0)  -->
<svg version="1.1" id="Ebene_1" xmlns="http://www.w3.org/2000/svg" xmlns:xlink="http://www.w3.org/1999/xlink" x="0px" y="0px"
	 viewBox="0 0 800.2 804.2" style="enable-background:new 0 0 800.2 804.2;" xml:space="preserve">
<style type="text/css">
	.st0{fill:#3B3B39;}
	.st1{fill:#FFFFFF;}
	.st2{fill:#EFEFEE;}
	.st3{fill:#D6D6D6;}
	.st4{fill:#CECECD;}
	.st5{fill:#C6C6C5;}
	.st6{fill:#BEBEBD;}
	.st7{fill:#B5B5B5;}
	.st8{fill:#ADADAC;}
	.st9{fill:#A5A5A4;}
	.st10{fill:#9D9D9C;}
	.st11{fill:#959594;}
	.st12{fill:#8C8C8B;}
	.st13{fill:#848483;}
	.st14{fill:#7C7C7B;}
	.st15{fill:#747473;}
	.st16{fill:#6C6C6B;}
	.st17{fill:#646462;}
	.st18{fill:#5B5B5A;}
	.st19{fill:#535352;}
	.st20{fill:#4B4B4A;}
	.st21{fill:#F7F7F7;}
	.st22{fill:#E6E6E6;}
	.st23{fill:#DEDEDE;}
	.st24{fill:#434341;}
	.st25{fill:#333331;}
	.st26{fill:#2A2A29;}
	.st27{fill:#222220;}
	.st28{fill:#1A1A18;}
</style>
<path class="st0" d="M945.1,117.2c6.9,6.6-58.1,34.6-150.3,76c-46.5,20.7-100.4,44.9-162.7,69.9c-62,25-133.6,50.9-213.1,68.5
	c-79.2,17.6-158.2,24.4-224.9,18.7c-66.9-5.5-120.4-23.1-156.5-44.4c-73-43.8-76-96.5-68.3-101.4c10-7.8,28.9,32.3,105.1,63.4
	c37.8,15.1,89.7,26.6,151.7,27.7c61.9,1.2,132.6-8.4,202.6-25.8c70.2-17.4,132.8-40.3,188.8-60.8c56.1-20.5,106.8-38.8,153.1-53.5
	C862.1,126.5,938.7,110.9,945.1,117.2z"/>
<path class="st1" d="M914.6-132c6.9,6.7-58.1,34.5-150.3,76c-46.5,20.7-100.5,44.8-162.7,69.9C539.5,38.8,468,64.9,388.4,82.4
	c-79.2,17.6-158.2,24.5-224.9,18.7C96.5,95.7,43,78.1,7,56.7C-66.2,12.9-69-39.8-61.3-44.7c10-7.8,28.7,32.4,105.1,63.4
	c37.7,15.2,89.7,26.8,151.7,27.7c61.9,1.3,132.6-8.4,202.6-25.8c70.3-17.4,132.8-40.5,188.8-60.8c56-20.6,106.8-38.9,153.1-53.5
	C831.5-122.9,908.1-138.3,914.6-132z"/>
<path class="st2" d="M1025.7,16.2c6.9,6.6-58.1,34.6-150.3,76C829,113,775,137.1,712.8,162.2c-62,25-133.6,50.9-213.1,68.5
	c-79.2,17.6-158.2,24.4-224.9,18.7c-66.9-5.5-120.4-23.1-156.5-44.4c-73-43.8-76-96.5-68.3-101.4c10-7.8,28.9,32.3,105.1,63.4
	c37.8,15.1,89.7,26.6,151.7,27.7c61.9,1.2,132.6-8.4,202.6-25.8c70.2-17.4,132.8-40.3,188.8-60.8c56.1-20.5,106.8-38.8,153.1-53.5
	C942.7,25.5,1019.3,9.9,1025.7,16.2z"/>
<path class="st3" d="M976.2,145.5c6.9,6.6-58.1,34.6-150.3,76c-46.5,20.7-100.4,44.9-162.7,69.9c-62,25-133.6,50.9-213.1,68.5
	c-79.2,17.6-158.2,24.4-224.9,18.7c-66.9-5.5-120.4-23.1-156.5-44.4c-73-43.8-76-96.5-68.3-101.4c10-7.8,28.9,32.3,105.1,63.4
	c37.8,15.1,89.7,26.6,151.7,27.7c61.9,1.2,132.6-8.4,202.6-25.8c70.2-17.4,132.8-40.3,188.8-60.8c56.1-20.5,106.8-38.8,153.1-53.5
	C893.1,154.8,969.7,139.2,976.2,145.5z"/>
<path class="st4" d="M858.5,139.6c6.9,6.6-58.1,34.6-150.3,76c-46.5,20.7-100.4,44.9-162.7,69.9c-62,25-133.6,50.9-213.1,68.5
	c-79.2,17.6-158.2,24.4-224.9,18.7c-66.9-5.5-120.4-23.1-156.5-44.4c-73-43.8-76-96.5-68.3-101.4c10-7.8,28.9,32.3,105.1,63.4
	c37.8,15.1,89.7,26.6,151.7,27.7c61.9,1.2,132.6-8.4,202.6-25.8c70.2-17.4,132.8-40.3,188.8-60.8c56.1-20.5,106.8-38.8,153.1-53.5
	C775.4,148.9,852.1,133.3,858.5,139.6z"/>
<path class="st5" d="M919.1,5.8c6.9,6.6-58.1,34.6-150.3,76c-46.5,20.7-100.4,44.9-162.7,69.9c-62,25-133.6,50.9-213.1,68.5
	c-79.2,17.6-158.2,24.4-224.9,18.7c-66.9-5.5-120.4-23.1-156.5-44.4c-73-43.8-76-96.5-68.3-101.4c10-7.8,28.9,32.3,105.1,63.4
	c37.8,15.1,89.7,26.6,151.7,27.7c61.9,1.2,132.6-8.4,202.6-25.8c70.2-17.4,132.8-40.3,188.8-60.8c56.1-20.5,106.8-38.8,153.1-53.5
	C836,15,912.6-0.5,919.1,5.8z"/>
<path class="st6" d="M979.8,2.5c6.9,6.6-58.1,34.6-150.3,76c-46.5,20.7-100.4,44.9-162.7,69.9c-62,25-133.6,50.9-213.1,68.5
	c-79.2,17.6-158.2,24.4-224.9,18.7c-66.9-5.5-120.4-23.1-156.5-44.4c-73-43.8-76-96.5-68.3-101.4c10-7.8,28.9,32.3,105.1,63.4
	c37.8,15.1,89.7,26.6,151.7,27.7c61.9,1.2,132.6-8.4,202.6-25.8c70.2-17.4,132.8-40.3,188.8-60.8c56.1-20.5,106.8-38.8,153.1-53.5
	C896.7,11.8,973.4-3.8,979.8,2.5z"/>
<path class="st7" d="M1006.2,33.8c6.9,6.6-58.1,34.6-150.3,76c-46.5,20.7-100.4,44.9-162.7,69.9c-62,25-133.6,50.9-213.1,68.5
	c-79.2,17.6-158.2,24.4-224.9,18.7c-66.9-5.5-120.4-23.1-156.5-44.4c-73-43.8-76-96.5-68.3-101.4c10-7.8,28.9,32.3,105.1,63.4
	c37.8,15.1,89.7,26.6,151.7,27.7c61.9,1.2,132.6-8.4,202.6-25.8c70.2-17.4,132.8-40.3,188.8-60.8c56.1-20.5,106.8-38.8,153.1-53.5
	C923.1,43.1,999.7,27.5,1006.2,33.8z"/>
<path class="st8" d="M973-162.8c6.9,6.6-58.1,34.6-150.3,76c-46.5,20.7-100.4,44.9-162.7,69.9c-62,25-133.6,50.9-213.1,68.5
	C367.7,69.2,288.7,76,222,70.3c-66.9-5.5-120.4-23.1-156.5-44.4c-73-43.8-76-96.5-68.3-101.4c10-7.8,28.9,32.3,105.1,63.4
	C140,3,192,14.5,254,15.6c61.9,1.2,132.6-8.4,202.6-25.8C526.8-27.6,589.4-50.5,645.4-71c56.1-20.5,106.8-38.8,153.1-53.5
	C890-153.6,966.6-169.1,973-162.8z"/>
<path class="st9" d="M965.1,16.7c6.9,6.6-58.1,34.6-150.3,76c-46.5,20.7-100.4,44.9-162.7,69.9c-62,25-133.6,50.9-213.1,68.5
	c-79.2,17.6-158.2,24.4-224.9,18.7c-66.9-5.5-120.4-23.1-156.5-44.4c-73-43.8-76-96.5-68.3-101.4c10-7.8,28.9,32.3,105.1,63.4
	c37.8,15.1,89.7,26.6,151.7,27.7c61.9,1.2,132.6-8.4,202.6-25.8c70.2-17.4,132.8-40.3,188.8-60.8C693.6,88,744.2,69.7,790.5,55
	C882,26,958.7,10.4,965.1,16.7z"/>
<path class="st10" d="M972.9,179.3c6.9,6.6-58.1,34.6-150.3,76c-46.5,20.7-100.4,44.9-162.7,69.9c-62,25-133.6,50.9-213.1,68.5
	c-79.2,17.6-158.2,24.4-224.9,18.7c-66.9-5.5-120.4-23.1-156.5-44.4c-73-43.8-76-96.5-68.3-101.4c10-7.8,28.9,32.3,105.1,63.4
	c37.8,15.1,89.7,26.6,151.7,27.7c61.9,1.2,132.6-8.4,202.6-25.8c70.2-17.4,132.8-40.3,188.8-60.8c56.1-20.5,106.8-38.8,153.1-53.5
	C889.8,188.5,966.4,173,972.9,179.3z"/>
<path class="st11" d="M948-119.8c6.9,6.6-58.1,34.6-150.3,76C751.3-23,697.3,1.1,635,26.2c-62,25-133.6,50.9-213.1,68.5
	C342.7,112.2,263.7,119,197,113.4c-66.9-5.5-120.4-23.1-156.5-44.4c-73-43.8-76-96.5-68.3-101.4C-17.9-40.2,1-0.1,77.2,30.9
	C115,46.1,166.9,57.6,229,58.6c61.9,1.2,132.6-8.4,202.6-25.8C501.8,15.4,564.4-7.5,620.4-28c56.1-20.5,106.8-38.8,153.1-53.5
	C865-110.5,941.6-126.1,948-119.8z"/>
<path class="st12" d="M994.1,157.4c6.9,6.6-58.1,34.6-150.3,76c-46.5,20.7-100.4,44.9-162.7,69.9c-62,25-133.6,50.9-213.1,68.5
	c-79.2,17.6-158.2,24.4-224.9,18.7c-66.9-5.5-120.4-23.1-156.5-44.4c-73-43.8-76-96.5-68.3-101.4c10-7.8,28.9,32.3,105.1,63.4
	c37.8,15.1,89.7,26.6,151.7,27.7c61.9,1.2,132.6-8.4,202.6-25.8c70.2-17.4,132.8-40.3,188.8-60.8c56.1-20.5,106.8-38.8,153.1-53.5
	C911.1,166.6,987.7,151.1,994.1,157.4z"/>
<path class="st13" d="M878,50.6c6.6,4.9-59,29.3-152.2,65.4c-47,18-101.5,39.1-164.3,61.1c-62.6,22-134.7,45.1-214.3,61.9
	c-79.4,16.9-158,25.3-224.1,23.5C56.9,260.8,4.5,249.2-30.6,234c-70.8-31.4-71.7-72.4-63.9-76.6c10.2-6.5,27.4,24.1,101.9,45.4
	c36.9,10.3,88,17.3,149.6,15.7c61.4-1.5,132-11.8,202.1-28.2c70.4-16.4,133.5-36.8,189.9-55c56.5-18.2,107.6-34.6,154.1-47.8
	C795.1,61.2,871.8,46,878,50.6z"/>
<path class="st14" d="M887.1,318.5c6.4,7-60.2,35-155.8,76.4c-48.2,20.7-104.3,44.8-168.9,69.4c-64.4,24.6-138.5,49.8-220,66
	c-81.2,16.4-161.3,21.5-228.3,14.4c-67.1-7-119.8-25.8-154.9-48.1c-70.8-45.5-71-98.1-63.1-102.9c10.4-7.6,27.2,32.9,102.2,65.8
	c37.2,16,88.8,28.7,151.3,31c62.4,2.4,134.4-5.8,206.3-22.3c72.2-16.4,137.1-38.9,195.2-59.1c58.2-20.3,110.8-38.6,158.4-53.3
	C803.9,326.8,881.2,311.8,887.1,318.5z"/>
<path class="st15" d="M917.4,198.9c6.9,6.6-58.1,34.6-150.3,76c-46.5,20.7-100.4,44.9-162.7,69.9c-62,25-133.6,50.9-213.1,68.5
	c-79.2,17.6-158.2,24.4-224.9,18.7C99.5,426.5,46,409,9.9,387.6c-73-43.8-76-96.5-68.3-101.4c10-7.8,28.9,32.3,105.1,63.4
	c37.8,15.1,89.7,26.6,151.7,27.7c61.9,1.2,132.6-8.4,202.6-25.8c70.2-17.4,132.8-40.3,188.8-60.8c56.1-20.5,106.8-38.8,153.1-53.5
	C834.4,208.1,911,192.6,917.4,198.9z"/>
<path class="st16" d="M999.2-13.9c6.9,6.6-58.1,34.6-150.3,76C802.4,82.8,748.5,107,686.2,132c-62,25-133.6,50.9-213.1,68.5
	c-79.2,17.6-158.2,24.4-224.9,18.7c-66.9-5.5-120.4-23.1-156.5-44.4c-73-43.8-76-96.5-68.3-101.4c10-7.8,28.9,32.3,105.1,63.4
	c37.8,15.1,89.7,26.6,151.7,27.7c61.9,1.2,132.6-8.4,202.6-25.8c70.2-17.4,132.8-40.3,188.8-60.8c56.1-20.5,106.8-38.8,153.1-53.5
	C916.1-4.7,992.8-20.2,999.2-13.9z"/>
<path class="st17" d="M1004.6,349.1c4.3,8.5-66.6,35.7-172.9,77c-53.5,20.5-116.5,44.3-188.7,67.4c-72,23.1-154.4,45.6-242.1,57.3
	c-87.4,11.9-170.9,11.4-237.8-0.7C95.9,538.1,46.3,515,15.2,490.2C-47.2,439.3-38,387.3-29.5,383.1c11.7-6.8,21.4,34.8,91.3,73.2
	c34.8,18.7,85,35.4,148.8,42c63.6,6.7,139.7,3,217.9-10.2c78.5-13.1,151.2-33.8,216.1-53.4c65.1-19.6,123.5-38,175.2-52.5
	C922.4,353,1000.6,340.8,1004.6,349.1z"/>
<path class="st18" d="M941.6-33.5c6.9,6.6-58.1,34.6-150.3,76c-46.5,20.7-100.4,44.9-162.7,69.9c-62,25-133.6,50.9-213.1,68.5
	c-79.2,17.6-158.2,24.4-224.9,18.7c-66.9-5.5-120.4-23.1-156.5-44.4c-73-43.8-76-96.5-68.3-101.4c10-7.8,28.9,32.3,105.1,63.4
	c37.8,15.1,89.7,26.6,151.7,27.7c61.9,1.2,132.6-8.4,202.6-25.8c70.2-17.4,132.8-40.3,188.8-60.8C670,37.7,720.7,19.4,767,4.8
	C858.5-24.3,935.2-39.8,941.6-33.5z"/>
<path class="st19" d="M1107.5-4.3c6.9,6.6-58.1,34.6-150.3,76c-46.5,20.7-100.4,44.9-162.7,69.9c-62,25-133.6,50.9-213.1,68.5
	c-79.2,17.6-158.2,24.4-224.9,18.7c-66.9-5.5-120.4-23.1-156.5-44.4c-73-43.8-76-96.5-68.3-101.4c10-7.8,28.9,32.3,105.1,63.4
	c37.8,15.1,89.7,26.6,151.7,27.7c61.9,1.2,132.6-8.4,202.6-25.8c70.2-17.4,132.8-40.3,188.8-60.8C836,67,886.6,48.7,932.9,34
	C1024.4,5,1101.1-10.6,1107.5-4.3z"/>
<path class="st20" d="M941.9,254.7c6.9,6.6-58.1,34.6-150.3,76c-46.5,20.7-100.4,44.9-162.7,69.9c-62,25-133.6,50.9-213.1,68.5
	c-79.2,17.6-158.2,24.4-224.9,18.7c-66.9-5.5-120.4-23.1-156.5-44.4c-73-43.8-76-96.5-68.3-101.4c10-7.8,28.9,32.3,105.1,63.4
	c37.8,15.1,89.7,26.6,151.7,27.7c61.9,1.2,132.6-8.4,202.6-25.8c70.2-17.4,132.8-40.3,188.8-60.8c56.1-20.5,106.8-38.8,153.1-53.5
	C858.8,263.9,935.4,248.4,941.9,254.7z"/>
<path class="st21" d="M1002.9-63c6.9,6.6-58.1,34.6-150.3,76C806.1,33.8,752.2,58,689.9,83c-62,25-133.6,50.9-213.1,68.5
	c-79.2,17.6-158.2,24.4-224.9,18.7c-66.9-5.5-120.4-23.1-156.5-44.4c-73-43.8-76-96.5-68.3-101.4c10-7.8,28.9,32.3,105.1,63.4
	c37.8,15.1,89.7,26.6,151.7,27.7c61.9,1.2,132.6-8.4,202.6-25.8c70.2-17.4,132.8-40.3,188.8-60.8C731.3,8.3,782-10,828.3-24.6
	C919.8-53.7,996.4-69.3,1002.9-63z"/>
<path class="st21" d="M934.6-202c6.9,6.6-58.1,34.6-150.3,76c-46.5,20.7-100.4,44.9-162.7,69.9c-62,25-133.6,50.9-213.1,68.5
	C329.2,30,250.3,36.8,183.5,31.1C116.6,25.6,63.1,8,27-13.3c-73-43.8-76-96.5-68.3-101.4c10-7.8,28.9,32.3,105.1,63.4
	c37.8,15.1,89.7,26.6,151.7,27.7c61.9,1.2,132.6-8.4,202.6-25.8c70.2-17.4,132.8-40.3,188.8-60.8c56.1-20.5,106.8-38.8,153.1-53.5
	C851.5-192.8,928.2-208.3,934.6-202z"/>
<path class="st21" d="M977.4-221.6c6.9,6.6-58.1,34.6-150.3,76c-46.5,20.7-100.4,44.9-162.7,69.9c-62,25-133.6,50.9-213.1,68.5
	c-79.2,17.6-158.2,24.4-224.9,18.7C159.5,6.1,106-11.5,69.9-32.8c-73-43.8-76-96.5-68.3-101.4c10-7.8,28.9,32.3,105.1,63.4
	c37.8,15.1,89.7,26.6,151.7,27.7C320.3-42,391-51.5,460.9-68.9c70.2-17.4,132.8-40.3,188.8-60.8c56.1-20.5,106.8-38.8,153.1-53.5
	C894.4-212.3,971-227.9,977.4-221.6z"/>
<path class="st21" d="M980.2-76.2c6.2,2.4-60.4,21.6-155,49.7C777.5-12.4,722.2,4,658.6,21.6C595.2,39.2,522.3,58.1,442.5,74
	c-79.5,15.8-157.8,26.6-222.8,30.5c-65.2,4-116,1.1-149.4-5.3C2.8,86.1,5,62.1,13,59.1c10.6-4.6,25.2,12.1,97.1,19
	c35.6,3.3,85.5,3.5,146.4-2c60.7-5.5,131.1-16.8,201.5-31.6C528.7,29.7,592.4,13,649.4-1.9C706.5-16.9,758.1-30.2,805-41.5
	C897.7-63.8,974.5-78.4,980.2-76.2z"/>
<path class="st23" d="M923.7,114.4c6.9,6.6-58.1,34.6-150.3,76C727,211.2,673,235.4,610.8,260.4c-62,25-133.6,50.9-213.1,68.5
	c-79.2,17.6-158.2,24.4-224.9,18.7c-66.9-5.5-120.4-23.1-156.5-44.4c-73-43.8-76-96.5-68.3-101.4c10-7.8,28.9,32.3,105.1,63.4
	c37.8,15.1,89.7,26.6,151.7,27.7c61.9,1.2,132.6-8.4,202.6-25.8c70.2-17.4,132.8-40.3,188.8-60.8c56.1-20.5,106.8-38.8,153.1-53.5
	C840.7,123.7,917.3,108.1,923.7,114.4z"/>
<path class="st22" d="M942.4,247.5c6.9,6.6-58.1,34.6-150.3,76c-46.5,20.7-100.4,44.9-162.7,69.9c-62,25-133.6,50.9-213.1,68.5
	c-79.2,17.6-158.2,24.4-224.9,18.7c-66.9-5.5-120.4-23.1-156.5-44.4c-73-43.8-76-96.5-68.3-101.4c10-7.8,28.9,32.3,105.1,63.4
	c37.8,15.1,89.7,26.6,151.7,27.7c61.9,1.2,132.6-8.4,202.6-25.8c70.2-17.4,132.8-40.3,188.8-60.8c56.1-20.5,106.8-38.8,153.1-53.5
	C859.3,256.8,936,241.2,942.4,247.5z"/>
<path class="st0" d="M965,668.6c6.9,6.6-58.1,34.6-150.3,76c-46.5,20.7-100.4,44.9-162.7,69.9c-62,25-133.6,50.9-213.1,68.5
	c-79.2,17.6-158.2,24.4-224.9,18.7c-66.9-5.5-120.4-23.1-156.5-44.4c-73-43.8-76-96.5-68.3-101.4c10-7.8,28.9,32.3,105.1,63.4
	c37.8,15.1,89.7,26.6,151.7,27.7c61.9,1.2,132.6-8.4,202.6-25.8c70.2-17.4,132.8-40.3,188.8-60.8c56.1-20.5,106.8-38.8,153.1-53.5
	C881.9,677.8,958.6,662.3,965,668.6z"/>
<path class="st1" d="M934.4,419.3c6.9,6.7-58.1,34.5-150.3,76c-46.5,20.7-100.5,44.8-162.7,69.9c-62.1,24.9-133.6,50.9-213.1,68.5
	c-79.2,17.6-158.2,24.5-224.9,18.7c-67-5.4-120.5-23-156.5-44.4c-73.2-43.7-76-96.5-68.3-101.4c10-7.8,28.7,32.4,105.1,63.4
	c37.7,15.2,89.7,26.8,151.7,27.7c61.9,1.3,132.6-8.4,202.6-25.8c70.3-17.4,132.8-40.5,188.8-60.8c56-20.6,106.8-38.9,153.1-53.5
	C851.3,428.5,928,413,934.4,419.3z"/>
<path class="st2" d="M1045.6,567.6c6.9,6.6-58.1,34.6-150.3,76c-46.5,20.7-100.4,44.9-162.7,69.9c-62,25-133.6,50.9-213.1,68.5
	c-79.2,17.6-158.2,24.4-224.9,18.7c-66.9-5.5-120.4-23.1-156.5-44.4c-73-43.8-76-96.5-68.3-101.4c10-7.8,28.9,32.3,105.1,63.4
	c37.8,15.1,89.7,26.6,151.7,27.7c61.9,1.2,132.6-8.4,202.6-25.8c70.2-17.4,132.8-40.3,188.8-60.8c56.1-20.5,106.8-38.8,153.1-53.5
	C962.5,576.8,1039.2,561.3,1045.6,567.6z"/>
<path class="st3" d="M996,696.9c6.9,6.6-58.1,34.6-150.3,76c-46.5,20.7-100.4,44.9-162.7,69.9c-62,25-133.6,50.9-213.1,68.5
	C390.7,928.9,311.7,935.7,245,930c-66.9-5.5-120.4-23.1-156.5-44.4c-73-43.8-76-96.5-68.3-101.4c10-7.8,28.9,32.3,105.1,63.4
	C163,862.7,215,874.2,277,875.3c61.9,1.2,132.6-8.4,202.6-25.8c70.2-17.4,132.8-40.3,188.8-60.8c56.1-20.5,106.8-38.8,153.1-53.5
	C913,706.1,989.6,690.6,996,696.9z"/>
<path class="st4" d="M878.4,691c6.9,6.6-58.1,34.6-150.3,76c-46.5,20.7-100.4,44.9-162.7,69.9c-62,25-133.6,50.9-213.1,68.5
	C273,923,194.1,929.8,127.3,924.2c-66.9-5.5-120.4-23.1-156.5-44.4c-73-43.8-76-96.5-68.3-101.4c10-7.8,28.9,32.3,105.1,63.4
	c37.8,15.1,89.7,26.6,151.7,27.7c61.9,1.2,132.6-8.4,202.6-25.8c70.2-17.4,132.8-40.3,188.8-60.8c56.1-20.5,106.8-38.8,153.1-53.5
	C795.3,700.3,871.9,684.7,878.4,691z"/>
<path class="st5" d="M938.9,557.1c6.9,6.6-58.1,34.6-150.3,76c-46.5,20.7-100.4,44.9-162.7,69.9c-62,25-133.6,50.9-213.1,68.5
	c-79.2,17.6-158.2,24.4-224.9,18.7c-66.9-5.5-120.4-23.1-156.5-44.4c-73-43.8-76-96.5-68.3-101.4c10-7.8,28.9,32.3,105.1,63.4
	c37.8,15.1,89.7,26.6,151.7,27.7c61.9,1.2,132.6-8.4,202.6-25.8c70.2-17.4,132.8-40.3,188.8-60.8c56.1-20.5,106.8-38.8,153.1-53.5
	C855.9,566.4,932.5,550.8,938.9,557.1z"/>
<path class="st6" d="M999.6,553.9c6.9,6.6-58.1,34.6-150.3,76c-46.5,20.7-100.4,44.9-162.7,69.9c-62,25-133.6,50.9-213.1,68.5
	c-79.2,17.6-158.2,24.4-224.9,18.7c-66.9-5.5-120.4-23.1-156.5-44.4c-73-43.8-76-96.5-68.3-101.4c10-7.8,28.9,32.3,105.1,63.4
	c37.8,15.1,89.7,26.6,151.7,27.7c61.9,1.2,132.6-8.4,202.6-25.8c70.2-17.4,132.8-40.3,188.8-60.8c56.1-20.5,106.8-38.8,153.1-53.5
	C916.6,563.2,993.2,547.6,999.6,553.9z"/>
<path class="st7" d="M1026,585.2c6.9,6.6-58.1,34.6-150.3,76c-46.5,20.7-100.4,44.9-162.7,69.9c-62,25-133.6,50.9-213.1,68.5
	C420.7,817.2,341.7,824,275,818.3c-66.9-5.5-120.4-23.1-156.5-44.4c-73-43.8-76-96.5-68.3-101.4c10-7.8,28.9,32.3,105.1,63.4
	C193,751,245,762.5,307,763.6c61.9,1.2,132.6-8.4,202.6-25.8c70.2-17.4,132.8-40.3,188.8-60.8c56.1-20.5,106.8-38.8,153.1-53.5
	C943,594.5,1019.6,578.9,1026,585.2z"/>
<path class="st8" d="M992.9,388.5c6.9,6.6-58.1,34.6-150.3,76c-46.5,20.7-100.4,44.9-162.7,69.9c-62,25-133.6,50.9-213.1,68.5
	c-79.2,17.6-158.2,24.4-224.9,18.7c-66.9-5.5-120.4-23.1-156.5-44.4c-73-43.8-76-96.5-68.3-101.4c10-7.8,28.9,32.3,105.1,63.4
	c37.8,15.1,89.7,26.6,151.7,27.7c61.9,1.2,132.6-8.4,202.6-25.8c70.2-17.4,132.8-40.3,188.8-60.8c56.1-20.5,106.8-38.8,153.1-53.5
	C909.8,397.8,986.5,382.2,992.9,388.5z"/>
<path class="st9" d="M985,568.1c6.9,6.6-58.1,34.6-150.3,76C788.2,664.8,734.3,689,672,714c-62,25-133.6,50.9-213.1,68.5
	c-79.2,17.6-158.2,24.4-224.9,18.7c-66.9-5.5-120.4-23.1-156.5-44.4C4.4,713,1.4,660.3,9,655.4c10-7.8,28.9,32.3,105.1,63.4
	c37.8,15.1,89.7,26.6,151.7,27.7c61.9,1.2,132.6-8.4,202.6-25.8c70.2-17.4,132.8-40.3,188.8-60.8c56.1-20.5,106.8-38.8,153.1-53.5
	C901.9,577.3,978.5,561.8,985,568.1z"/>
<path class="st10" d="M992.7,730.6c6.9,6.6-58.1,34.6-150.3,76C796,827.4,742,851.6,679.8,876.6c-62,25-133.6,50.9-213.1,68.5
	c-79.2,17.6-158.2,24.4-224.9,18.7c-66.9-5.5-120.4-23.1-156.5-44.4c-73-43.8-76-96.5-68.3-101.4c10-7.8,28.9,32.3,105.1,63.4
	c37.8,15.1,89.7,26.6,151.7,27.7c61.9,1.2,132.6-8.4,202.6-25.8c70.2-17.4,132.8-40.3,188.8-60.8c56.1-20.5,106.8-38.8,153.1-53.5
	C909.7,739.9,986.3,724.3,992.7,730.6z"/>
<path class="st11" d="M967.9,431.6c6.9,6.6-58.1,34.6-150.3,76c-46.5,20.7-100.4,44.9-162.7,69.9c-62,25-133.6,50.9-213.1,68.5
	c-79.2,17.6-158.2,24.4-224.9,18.7c-66.9-5.5-120.4-23.1-156.5-44.4c-73-43.8-76-96.5-68.3-101.4c10-7.8,28.9,32.3,105.1,63.4
	c37.8,15.1,89.7,26.6,151.7,27.7c61.9,1.2,132.6-8.4,202.6-25.8c70.2-17.4,132.8-40.3,188.8-60.8c56.1-20.5,106.8-38.8,153.1-53.5
	C884.8,440.8,961.5,425.3,967.9,431.6z"/>
<path class="st12" d="M1014,708.8c6.9,6.6-58.1,34.6-150.3,76c-46.5,20.7-100.4,44.9-162.7,69.9c-62,25-133.6,50.9-213.1,68.5
	c-79.2,17.6-158.2,24.4-224.9,18.7c-66.9-5.5-120.4-23.1-156.5-44.4c-73-43.8-76-96.5-68.3-101.4c10-7.8,28.9,32.3,105.1,63.4
	c37.8,15.1,89.7,26.6,151.7,27.7c61.9,1.2,132.6-8.4,202.6-25.8c70.2-17.4,132.8-40.3,188.8-60.8c56.1-20.5,106.8-38.8,153.1-53.5
	C930.9,718,1007.6,702.4,1014,708.8z"/>
<path class="st13" d="M897.8,602c6.6,4.9-59,29.3-152.2,65.4c-47,18-101.5,39.1-164.3,61.1c-62.6,22-134.7,45.1-214.3,61.9
	c-79.4,16.9-158,25.3-224.1,23.5c-66.2-1.7-118.6-13.3-153.7-28.6c-70.8-31.4-71.7-72.4-63.9-76.6c10.2-6.5,27.4,24.1,101.9,45.4
	c36.9,10.3,88,17.3,149.6,15.7c61.4-1.5,132-11.8,202.1-28.2c70.4-16.4,133.5-36.8,189.9-55c56.5-18.2,107.6-34.6,154.1-47.8
	C815,612.5,891.7,597.3,897.8,602z"/>
<path class="st15" d="M937.3,750.2c6.9,6.6-58.1,34.6-150.3,76c-46.5,20.7-100.4,44.9-162.7,69.9c-62,25-133.6,50.9-213.1,68.5
	C332,982.3,253,989,186.3,983.4c-66.9-5.5-120.4-23.1-156.5-44.4c-73-43.8-76-96.5-68.3-101.4c10-7.8,28.9,32.3,105.1,63.4
	c37.8,15.1,89.7,26.6,151.7,27.7c61.9,1.2,132.6-8.4,202.6-25.8c70.2-17.4,132.8-40.3,188.8-60.8c56.1-20.5,106.8-38.8,153.1-53.5
	C854.2,759.5,930.9,743.9,937.3,750.2z"/>
<path class="st16" d="M1019.1,537.4c6.9,6.6-58.1,34.6-150.3,76c-46.5,20.7-100.4,44.9-162.7,69.9c-62,25-133.6,50.9-213.1,68.5
	c-79.2,17.6-158.2,24.4-224.9,18.7c-66.9-5.5-120.4-23.1-156.5-44.4c-73-43.8-76-96.5-68.3-101.4c10-7.8,28.9,32.3,105.1,63.4
	c37.8,15.1,89.7,26.6,151.7,27.7c61.9,1.2,132.6-8.4,202.6-25.8c70.2-17.4,132.8-40.3,188.8-60.8c56.1-20.5,106.8-38.8,153.1-53.5
	C936,546.7,1012.6,531.1,1019.1,537.4z"/>
<path class="st18" d="M961.4,517.8c6.9,6.6-58.1,34.6-150.3,76c-46.5,20.7-100.4,44.9-162.7,69.9c-62,25-133.6,50.9-213.1,68.5
	c-79.2,17.6-158.2,24.4-224.9,18.7c-66.9-5.5-120.4-23.1-156.5-44.4c-73-43.8-76-96.5-68.3-101.4c10-7.8,28.9,32.3,105.1,63.4
	c37.8,15.1,89.7,26.6,151.7,27.7c61.9,1.2,132.6-8.4,202.6-25.8c70.2-17.4,132.8-40.3,188.8-60.8c56.1-20.5,106.8-38.8,153.1-53.5
	C878.4,527.1,955,511.5,961.4,517.8z"/>
<path class="st19" d="M1127.3,547.1c6.9,6.6-58.1,34.6-150.3,76C930.6,643.8,876.6,668,814.4,693c-62,25-133.6,50.9-213.1,68.5
	c-79.2,17.6-158.2,24.4-224.9,18.7c-66.9-5.5-120.4-23.1-156.5-44.4c-73-43.8-76-96.5-68.3-101.4c10-7.8,28.9,32.3,105.1,63.4
	c37.8,15.1,89.7,26.6,151.7,27.7c61.9,1.2,132.6-8.4,202.6-25.8c70.2-17.4,132.8-40.3,188.8-60.8c56.1-20.5,106.8-38.8,153.1-53.5
	C1044.3,556.3,1120.9,540.8,1127.3,547.1z"/>
<path class="st21" d="M1022.7,488.4c6.9,6.6-58.1,34.6-150.3,76C826,585.1,772,609.3,709.7,634.4c-62,25-133.6,50.9-213.1,68.5
	c-79.2,17.6-158.2,24.4-224.9,18.7c-66.9-5.5-120.4-23.1-156.5-44.4c-73-43.8-76-96.5-68.3-101.4c10-7.8,28.9,32.3,105.1,63.4
	c37.8,15.1,89.7,26.6,151.7,27.7c61.9,1.2,132.6-8.4,202.6-25.8c70.2-17.4,132.8-40.3,188.8-60.8c56.1-20.5,106.8-38.8,153.1-53.5
	C939.7,497.7,1016.3,482.1,1022.7,488.4z"/>
<path class="st21" d="M954.4,349.3c6.9,6.6-58.1,34.6-150.3,76c-46.5,20.7-100.4,44.9-162.7,69.9c-62,25-133.6,50.9-213.1,68.5
	c-79.2,17.6-158.2,24.4-224.9,18.7C136.5,576.9,83,559.4,46.9,538c-73-43.8-76-96.5-68.3-101.4c10-7.8,28.9,32.3,105.1,63.4
	c37.8,15.1,89.7,26.6,151.7,27.7c61.9,1.2,132.6-8.4,202.6-25.8c70.2-17.4,132.8-40.3,188.8-60.8c56.1-20.5,106.8-38.8,153.1-53.5
	C871.4,358.6,948,343,954.4,349.3z"/>
<path class="st21" d="M997.3,329.8c6.9,6.6-58.1,34.6-150.3,76c-46.5,20.7-100.4,44.9-162.7,69.9c-62,25-133.6,50.9-213.1,68.5
	C392,561.8,313,568.6,246.2,563c-66.9-5.5-120.4-23.1-156.5-44.4c-73-43.8-76-96.5-68.3-101.4c10-7.8,28.9,32.3,105.1,63.4
	c37.8,15.1,89.7,26.6,151.7,27.7c61.9,1.2,132.6-8.4,202.6-25.8c70.2-17.4,132.8-40.3,188.8-60.8c56.1-20.5,106.8-38.8,153.1-53.5
	C914.2,339.1,990.9,323.5,997.3,329.8z"/>
<path class="st21" d="M1000.1,475.2c6.2,2.4-60.4,21.6-155,49.7C797.4,539,742,555.4,678.4,573c-63.4,17.6-136.2,36.5-216.1,52.3
	c-79.5,15.8-157.8,26.6-222.8,30.5c-65.2,4-116,1.1-149.4-5.3c-67.5-13.1-65.3-37.1-57.3-40.1c10.6-4.6,25.2,12.1,97.1,19
	c35.6,3.3,85.5,3.5,146.4-2c60.7-5.5,131.1-16.8,201.5-31.6c70.7-14.9,134.4-31.5,191.4-46.4c57.1-14.9,108.7-28.3,155.6-39.6
	C917.6,487.6,994.4,472.9,1000.1,475.2z"/>
<path class="st23" d="M943.6,665.8c6.9,6.6-58.1,34.6-150.3,76c-46.5,20.7-100.4,44.9-162.7,69.9c-62,25-133.6,50.9-213.1,68.5
	c-79.2,17.6-158.2,24.4-224.9,18.7c-66.9-5.5-120.4-23.1-156.5-44.4c-73-43.8-76-96.5-68.3-101.4c10-7.8,28.9,32.3,105.1,63.4
	c37.8,15.1,89.7,26.6,151.7,27.7c61.9,1.2,132.6-8.4,202.6-25.8C497.4,801,560,778.1,616,757.6c56.1-20.5,106.8-38.8,153.1-53.5
	C860.5,675.1,937.2,659.5,943.6,665.8z"/>
<path class="st22" d="M962.3,798.9c6.9,6.6-58.1,34.6-150.3,76c-46.5,20.7-100.4,44.9-162.7,69.9c-62,25-133.6,50.9-213.1,68.5
	c-79.2,17.6-158.2,24.4-224.9,18.7c-66.9-5.5-120.4-23.1-156.5-44.4c-73-43.8-76-96.5-68.3-101.4c10-7.8,28.9,32.3,105.1,63.4
	c37.8,15.1,89.7,26.6,151.7,27.7c61.9,1.2,132.6-8.4,202.6-25.8c70.2-17.4,132.8-40.3,188.8-60.8c56.1-20.5,106.8-38.8,153.1-53.5
	C879.2,808.1,955.8,792.6,962.3,798.9z"/>
</svg>
