<svg id="Ebene_1" data-name="Ebene 1" xmlns="http://www.w3.org/2000/svg" viewBox="0 0 800.22 804.18"><defs><style>.cls-1{fill:#676968;}.cls-2{fill:#676766;}.cls-3{fill:#cdcccc;}.cls-4{fill:#b3b3b3;}.cls-5{fill:#e6e6e6;}.cls-6{fill:#999;}.cls-7{fill:#f2f2f2;}.cls-8{fill:#808081;}</style></defs><title>grundTextur</title><path class="cls-1" d="M418.08,789.89c0,.28,1.59.55,1.59.55-17.44,6.09-60.25,8-96.71,9.13-38,1.11-76.1,0-111-2.49-17.44-1.38-33.3-3-49.15-5-9.52-1.1-17.44-2.49-25.37-3.87-15.85-3-30.12-6.09-47.56-9.13A258.25,258.25,0,0,0,63,777.16c-11.1-.55-22.2-1.66-31.71-3-20.61-3.32-30.13-8-28.54-13,3.17-7.75,27-14.94,66.59-19.09L74,741.2c53.91-5.81,118.91-6.64,172.82-.55a307.84,307.84,0,0,1,34.87,6.08c12.69,3,22.2,6.09,27,9.69,0,1.1,1.58,1.93,3.17,2.76,4.75,5.54,1.58,11.07,3.17,16.6,1.58,3.32,11.1,6.36,27,8.58,20.61,2.76,44.39,3.32,68.17,4.42a43,43,0,0,1,7.93,1.11Z" transform="translate(0.22 1.3)"/><path class="cls-2" d="M714.64,63.16a117.72,117.72,0,0,0-14.77,1.52c-3,.31-5.92.31-8.87.61s-3,.61-5.91.92Q600.83,73.52,490,75.05c-100.5.91-195.09-1.83-274.9-8.23-3-.31-3-.61-5.91-.92-44.34-3.35-73.9-7.62-97.55-12.19-5.91-1.22-8.87-2.13-14.78-3.35C64.35,42.13,61.39,33.29,85,24.75c5.91-1.82,14.78-3.35,20.69-5.18,14.78-3.05,35.47-5.48,56.16-8.23C209.19,6.16,268.3,2.81,336.29,1h11.82c65-1.83,133-.91,195.09,1.22,3,0,5.91.61,8.87.61,65,2.13,118.24,6.7,162.57,11.89,112.33,13.71,115.28,35.05,0,48.46Z" transform="translate(0.22 1.3)"/><path class="cls-3" d="M475.06,553c2.79,16-1.86,32-5.58,48-5.58,28-16.74,52-33.48,75-3.72,4-6.51,9-10.23,13a11.66,11.66,0,0,0-4.65,5c-.93,1-1.86,1-2.79,2s-.93,2-1.86,3c-1.86,2-3.72,2-5.58,4-.93,1-.93,2-1.86,3-12.09,10-23.25,18-36.27,25-1.86,1-4.65,1-6.51,3-1.86,1-4.65,1-6.51,2-.94,0-1.87,2-2.8,2-38.13,14-80,11-115.32-11-3.72-2-6.51-5-10.23-8-15.82-11-26-26-39.07-40-23.25-25-57.66-30-87.42-17C84.43,672,68.62,688,51,704c-11.16,11-29.76,22-41.85,4C-1.13,693-1.13,675,.73,658c6.51-45,27.9-82,64.17-109,21.39-16,43.72-25,68.83-26a199.56,199.56,0,0,1,48.36,3c26,5,47.43,15,69.76,31,23.25,18,38.13,40,55.8,62,6.51,7,11.16,14,19.53,18l.93,2c14.88,9,32.56,13,48.37,8h3.72c6.51-3,13.95-5,20.46-9a144.78,144.78,0,0,0,29.76-25c16.74-20,27-43,40-66,3.72-1,4.65,2,4.65,6Z" transform="translate(0.22 1.3)"/><path class="cls-4" d="M233.11,729a3.64,3.64,0,0,0,.89,2c-9.75,22-33.67,29-54,33-21.27,4-42.53,0-62-9a166.72,166.72,0,0,1-27.46-18c-5.32-4-9.75-9-14.18-14-8.86-11-16.83-22-26.58-33a30.27,30.27,0,0,0-15.06-7,48.65,48.65,0,0,1-17.72-11C5.42,660,.11,643,1,625c1.78-28,15.07-54,37.21-69l2.66-3c30.12-21,66.45-24,96.57-2,8,6,13.29,13,19.49,22,7.09,11,12.41,22,15.06,35a32.78,32.78,0,0,0,1.78,10c2.65,20,.88,40,1.77,60a46,46,0,0,0,15.06,31c11.52,10,24.81,12,38.09,16,1.78,1,3.55,2,4.43,4Z" transform="translate(0.22 1.3)"/><path class="cls-5" d="M415,574c-5,41-22.18,76-43.64,105-20,27-42.93,45-70.84,53-30.76,9-60.81,5-88-18-.71-1-2.14,0-2.86-1a176.94,176.94,0,0,1-36.49-46c-3.58-8-7.87-15-11.45-23-5.72-10-10-19-16.45-27-1.43-1-2.15-2-3.58-3a4,4,0,0,1-.72-2c-27.9-28-60.09-20-90.86-10-12.88,4-25,12-38.64,11-2.86-1-6.43-3-7.87-7-6.44-18,0-37,5-54,12.17-36,32.2-62,56.52-84,1.44-1,2.87-1,4.3-2,42.93-35,95.87-37,138.8,3,1.43,1,2.15,1,3.58,2,8.58,9,16.45,17,23.61,27,10.73,16,19.31,34,27.18,53,5.73,16,11.45,30,17.89,45l1.43,1c8.59,20,22.9,30,38.64,33,17.88,2,35.06-6,50.8-19l2.14-3c12.17-10,21.47-23,32.2-36,2.15-2,4.29-6,7.15-5,1.43,1,2.15,4,2.15,7Z" transform="translate(0.22 1.3)"/><path class="cls-4" d="M514.65,563a408.18,408.18,0,0,1-28.48,39A154.86,154.86,0,0,0,474,615c-5.69,5-10.58,11-16.27,15-4.07,2-7.33,5-10.58,8-2.44,1-4.89,3-7.33,5-25.22,15-51.26,26-78.93,28a154.9,154.9,0,0,1-56.15-7c-37.44-12-66.74-39-90.33-77-6.52-11-12.21-21-19.54-31-.81-1,0-2-.81-3-8.14-11-16.28-20-26.85-28a60,60,0,0,0-25.23-9c-8.14-1-16.28-2-25.23,0-4.07,1-7.32,1-11.39,2-26,8-49.64,23-75.68,23-7.33,0-15.47-1-20.35-9C5.22,525,2,518,1.15,509c-2.44-41,13-77,33.37-109,.81-1,2.44-2,3.25-3C63.82,359,98,334,138.68,324c1.63,0,2.44-2,4.07-2,41.51-9,81.38,1,117.19,29,1.62,1,3.25,1,4.07,2,3.25,4,7.32,6,10.58,9,26.85,26,45.57,58,57.77,96,6.51,21,10.58,43,17.09,64,2.44,8,4.89,15,9,22a141.69,141.69,0,0,0,13,19,61.66,61.66,0,0,0,15.46,12c18.71,10,39.06,11,58.59,5h3.26c7.32-3,14.64-5,22-9,5.69-3,11.39-7,17.09-10a194.64,194.64,0,0,0,17.09-13c5.69-6,11.39-10,17.9-15H526c1.63,12-7.32,20-11.39,30Z" transform="translate(0.22 1.3)"/><path class="cls-6" d="M799.18,426c0,9-4,17-6.4,25-.8,2-2.4,3-3.2,5-7.19,18-16.78,32-27.17,47-.8,1-2.4,4-4,5-32,42-67.94,76-110.31,97-.8,1-1.59,2-2.39,2-1.6,1-4,1-5.6,2-.8,1-1.6,2-2.4,2-4.79,2-9.59,3-14.38,5-.8,0-1.6,2-2.4,2-39.17,15-78.34,19-119.1,11-52-11-98.32-40-133.49-90A166.74,166.74,0,0,0,358,524a219.21,219.21,0,0,1-14.39-24c-12.79-25-24-49-40-70-11.19-15-25.58-25-40.77-32-.8,0-1.6-2-2.4-2-28-11-56.75-11-86.32-6C129.35,397,87,407,42.22,416c-10.39,2-20.78,2-30.37-3-3.2-2-5.6-7-8-11-2.39-5-2.39-10-3.19-15-.8-14,2.39-28,4.79-42a321.42,321.42,0,0,1,12-40c2.4-6,4.8-11,7.2-17,25.57-58,64.74-101,111.1-130,3.2-1,5.6-3,8.79-5,13.59-7,27.18-13,41.57-17,25.58-7,49.56-8,74.33-7,14.39,1,28,4,43.17,7,1.6,1,2.4,2,4,2,21.59,5,40,14,59.15,26,16.79,10,32.78,20,46.36,37,1.6,2,4.8,3,6.4,5,7.19,9,14.39,17,21.58,26,5.6,8,10.39,15,16,24,7.19,13,13.59,25,20,39,.8,2,.8,4,1.6,6,16,34,23.18,71,33.57,107,4,13,8,26,14.39,39,2.4,4,4,8,6.39,12l1.6,1c3.2,8,8.79,13,13.59,20a17.29,17.29,0,0,0,4,3,3.81,3.81,0,0,1,.8,2c2.39,3,5.59,4,8,7,28,23,59.95,26,91.92,19,52-11,91.92-48,134.29-86,3.19-3,6.39-7,10.39-5,1.6,1,1.6,4,1.6,6Z" transform="translate(0.22 1.3)"/><path class="cls-2" d="M800,463c-4.35,16-15.67,28-25.25,41-21.77,25-44.41,45-71.4,62-1.74,1-3.48,1-5.22,2-24.38,16-49.63,27-76.62,35-47,13-93.17,14-141.06,1-40.92-11-75.75-33-108.83-63-.87-1-.87-2-1.74-3-49.63-45-70.53-110-97.52-172a216.15,216.15,0,0,0-15.68-27,96.13,96.13,0,0,1-8.7-11c-3.49-3-7-7-10.45-10-21.77-18-47.89-23-73.14-20-10.45,2-20,4-30.47,8-13.06,5-24.38,12-35.7,19,.87,1-1.74,1-.87,2H95.61c-13.94,13-28.74,22-44.41,31-5.22,2-10.45,3-15.67,5-5.23,1-10.45,0-15.68-2-3.48-3-7.83-6-10.44-10-5.23-7-7-16-7.84-25C-1,298,4.18,271,13.76,246c23.51-63,67-115,121-144,3.48-1,6.09-3,9.57-5,43.54-22,89.69-25,137.57-14h4.36C342,97,389,127,423.86,179c.87,1,0,2,.87,3,28.73,40,40,90,40.92,139,0,27-1.74,54,1.74,82a242.56,242.56,0,0,0,6.1,24A163.81,163.81,0,0,0,490,460c11.32,16,23.51,28,39.18,38,10.45,6,20.9,11,31.35,16h2.61c74,27,152.37-2,215.93-45,7-1,13.93-12,20.9-6Z" transform="translate(0.22 1.3)"/><path class="cls-3" d="M510,21.51c7.15,35.51,4,72-3.17,108.49-4,22.68-9.54,44.38-19.07,65.09-.79,1,0,3-.79,3.95-15.89,37.48-36.54,67.06-64.34,92.71-3.18,2.95-7.15,4.93-10.33,7.89C364.68,339.09,309.08,347,255.86,327.25c-29.39-10.85-54.81-29.59-85-34.52-21.45-3-42.1,3-59.58,19.73a2.58,2.58,0,0,1-2.38,1,44.77,44.77,0,0,0-6.36,6.91H101c-8.73,8.87-15.88,18.74-26.21,24.65-13.5,1-27-2-38.92-11.83-7.94-6.91-14.3-15.78-19.86-25.64a40,40,0,0,1-3.18-8.88C-15,230.6,4.85,151.7,43,95.48c.79-1,2.38-2,3.18-3C68.4,59,97.79,38.28,130.35,26.45c39.72-13.81,81-9.87,116.77,20.71.8,1,2.38,1,3.18,1,33.36,23.67,59.57,54.25,89.76,84.82,12.71,11.84,26.21,18.74,41.3,20.71,28.6,2,54.81-16.76,72.29-45.37.79,0,1.58-1,1.58-1,3.18-5.92,6.36-10.85,9.54-17.75l1.59-1a193,193,0,0,0,15.09-35.51c4.76-15.78,9.53-32.54,15.09-48.32L499.72.8c.79-2,2.38-1,3.17-1a25.48,25.48,0,0,1,4.77,10.85c.79,3.94,2.38,6.9,2.38,10.84Z" transform="translate(0.22 1.3)"/><path class="cls-7" d="M577,502c1,2-2,4-3,5-24,26-55,41-88,53a222.13,222.13,0,0,1-37,9c-16,2-32,4-48,3-44-3-86-16-121-45-45-37-64-91-68-147l-3-15c0-1-2-3-2-4-4-19-15-33-29-44-13-9-26-13-41-15-16-2-31-2-46,3-23,7-43,19-67,24-9,1-20-1-23-10-3-11,0-23,4-33,11-23,26-41,47-57,16-12,33-20,51-27,6-2,12-3,18-5,4-1,8-1,12-2,6-1,11,0,17,0,12-2,24,0,37,2,6,1,12,3,18,4,35,10,66,28,90,55a195.71,195.71,0,0,1,20,30c2,4,3,7,5,11,6,14,8,29,10,44,1,10,0,19-1,29-4,26-14,51-7,78,8,30,30,53,57,67,62,32,133,15,193-13Z" transform="translate(0.22 1.3)"/><path class="cls-5" d="M547,335c0,6-3.94,11-7.88,15v2c-1,1-2,1-3,2a20.84,20.84,0,0,1-3.94,6c-9.85,10-18.72,19-30.54,28-74.88,57-176.35,61-250.24,2-1-1-1-2-2-3-31.53-24-48.28-57-69.95-91a106,106,0,0,0-8.87-11c-3.94-4-7.88-7-11.82-11a107.17,107.17,0,0,0-14.78-8c-3.94-2-8.87-2-12.81-4-3-1-6.89,0-9.85,0-24.63-3-45.32,12-67,22-9.86,5-18.72,8-29.56,6C15,288,8.09,280,5.14,270a14.67,14.67,0,0,0-2-7c-6.9-67,43.34-125,99.5-153a181.23,181.23,0,0,1,55.17-15c12.81-1,24.63,0,37.44,1,46.31,7,85.71,30,114.28,69,1,1,0,2,1,3,27.59,34,27.59,77,32.51,118,2,13,5.91,25,13.79,37l2,1c14.77,23,39.4,32,64,36,13.8,2,27.59,1,41.38-1,27.59-5,52.22-16,77.83-27,2,0,3.94,0,4.93,1v2Z" transform="translate(0.22 1.3)"/><path class="cls-8" d="M258,68c33.15,8,63.54,23,88.4,50A149.64,149.64,0,0,1,386,209c.92,23-4.6,44-2.76,67,1.84,13,2.76,25,6.44,38a197.41,197.41,0,0,0,9.21,25c11.05,22,23,42,42.36,57,.92,1,.92,2,1.85,3,16.57,13,32.23,25,50.64,32,.92,0,1.84,1,2.77,2,3.68,2,8.28,3,12,4,83.8,31,173.12,10,247.71-47h1.84c11.05-9,22.1-17,33.15-27h1.84c1.85-3,4.61-4,6.45-5,.92,3-1.84,5-2.76,7-5.53,7-10.13,13-16.58,19-7.36,7-13.81,14-21.18,21-15.65,12-29.47,24-46,34-8.29,5-16.58,9-24.86,14-10.13,4-19.34,9-29.47,13-28.55,10-56.17,17-85.64,19a303.5,303.5,0,0,1-79.2-7c-.92,0-2.76-2-3.68-2-58.94-15-109.58-49-142.73-106l-1.85-1c-19.33-33-30.39-66-40.51-103a67.86,67.86,0,0,0-5.53-18c-.92-3-2.76-7-2.76-11,0-1-1.84-1-1.84-2a109.7,109.7,0,0,0-27.63-46c-5.53-4-10.13-9-16.58-12-1.84-1-2.76-3-4.6-4-5.53-2-10.13-5-15.66-6-38.67-14-81-6-116.95,12-.92,0-.92,2-1.84,2-2.76,0-3.68,2-5.52,2-25.79,15-47,36-73.67,47-6.45,2-13.81,4-20.26,0-10.13-6-12-21-11-32,2.76-27,11.05-52,25.78-75,.92-2,.92-3,1.85-5C48.07,88,68.33,64,96,46c30.39-20,61.7-42,98.53-33,5.53,2,10.13,4,13.81,8,6.45,8,11,17,15.66,26,2.76,4,4.6,7,8.29,10,8.28,6,16.57,9,25.78,11Z" transform="translate(0.22 1.3)"/><path class="cls-2" d="M636,294.64c.9,1.82-.9,2.73-.9,3.63-1.79,1.82-2.68,4.54-4.48,6.36-36.73,42.66-84.21,68.08-138.86,79.88-7.16.9-14.33,2.72-21.5,3.63-36.73,3.63-71.67,0-106.61-11.8-.89,0-1.79-1.82-2.68-1.82-25.09-8.17-46.59-22.69-66.3-39.94-16.12-14.52-28.67-30.86-40.31-49.92-16.13-28.14-23.29-57.19-34.94-86.24-7.17-17.24-17.92-32.67-34-43.57-33.15-20.87-72.57-15.43-104.82,2.73a57.12,57.12,0,0,1-12.54,7.26c-17,10-38.53,24.51-58.24,14.52C-.94,167.56,0,152.13,2.65,136.7c4.48-20,13.44-36.31,24.19-53.56,10.75-15.43,22.39-27.23,35.83-39a48.73,48.73,0,0,0,8.06-6.35C100.3,17.79,129.86,3.27,163.9.54c16.13-.9,32.26-.9,48.38,1.82,1.79.91,4.48.91,6.27,1.81C247.22,8.71,271.41,19.6,295.6,35c2.69,1.81,5.37,4.53,8.06,6.35,25.09,19.06,42.11,42.66,52.86,70.8,10.75,30,11.64,61.73,8.06,94.4a129.66,129.66,0,0,0,0,37.22c1.79,11.8,6.27,21.79,12.54,32.68,3.59,4.54,6.27,9.08,9.86,13.61,9,9.08,17.91,17.25,28.66,23.6,7.17,3.64,13.44,7.27,20.61,10,8.06,2.72,16.13,4.54,25.08,7.26h4.48c46.59,9.08,90.49-1.81,131.7-20.88,11.64-5.44,23.29-11.8,35.83-17.24.9,0,2.69,0,2.69,1.81Z" transform="translate(0.22 1.3)"/><path class="cls-8" d="M442.9,92.89c1,27-8,53-22,77-1,1,0,3-1,4a227.74,227.74,0,0,1-43,50c-8,6-16,11-24,16a188.33,188.33,0,0,1-39,16c-23,7-47,7-71,3-17-3-32-9-47-16-17-9-33-19-50-28-22-10-47-10-70-3-23,1-46-5-61-24-2-4-5-7-7-11-2-7-5-13-6-21a147.69,147.69,0,0,1-1-21c2-24,10-45,24-66,2-2,3-4,5-7,9-10,17-20,28-28a188.41,188.41,0,0,1,46-25c31-11,64-13,96-2a204.33,204.33,0,0,1,78,45c2,1,3,2,5,3,9,9,18,16,27,25a106.27,106.27,0,0,1,11,9c1,1,3,1,4,2a3.49,3.49,0,0,0,1,2c14,9,29,14,46,12,20-4,35-16,51-28,4-2,8-5,12-4,8,3,8,13,8,20Z" transform="translate(0.22 1.3)"/><path class="cls-2" d="M212.89,72.89v4c-5,11-11,20-20,28-20,16-44,24-70,18-12-3-21-8-31-15-14-11-20-27-30-41-7-7-15-12-25-13s-18,2-28,4c-3,1-8-1-8-4,0-18,15-30,28-41,3-2,6-3,9-5a79.62,79.62,0,0,1,43-9c35,2,58,32,74,60,11,11,27,12,42,9,5-1,9-3,14-2,2,1,2,4,2,7Z" transform="translate(0.22 1.3)"/><path class="cls-7" d="M780.83,720.8c1,0,1,0,1,1-5,7-10,12-16,18-4,3-8,7-12,10-8,5-14,11-22,15-5,2-9,5-13,7-24,12-49,19-76,22a267,267,0,0,1-40,0,340.2,340.2,0,0,1-34-7c-23-7-43-18-62-33-1-1-2-3-3-4-14-10-22-23-31-37-7-11-10-21-14-33-5-20-7-40-2-60v-4c6-22,14-41,23-61,3-9,5-19,2-28a30.51,30.51,0,0,0-10-13c-2-1-3-1-5-3-5-3-11-4-17-6-3-1-6,0-8,0-34-2-63,17-95,28-7,2-17,4-21-5,0-31,24-55,46-73,44-36,99-49,154-36,1,1,2,2,3,2,62,15,111,73,107,137-1,16-5,31-13,45-14,26-39,39-64,56-1,1-1,2-3,3a3.54,3.54,0,0,1-3,3c-3,5-6,10-7,16-2,8,0,15,1,22,4,13,12,24,23,33,22,18,47,26,74,28a187.81,187.81,0,0,0,58-6,172.33,172.33,0,0,0,21-7c10-5,20-9,30-14,9-6,18-13,28-16Z" transform="translate(0.22 1.3)"/><path class="cls-3" d="M797.63,563a172.72,172.72,0,0,1-3,64v4c-6,27-16,50-30,74-16,25-34,43-58,60-2,1-3,1-5,2-33,23-70,30-108,26a126.16,126.16,0,0,1-64-27,109,109,0,0,1-33-44,126.62,126.62,0,0,1-6-28c-2-19,2-37,2-55-1-5-1-11-3-16-3-7-7-13-14-18-35-23-74-9-105,13a3.49,3.49,0,0,0-1,2c-1,1-3,1-4,2-9,8-17,15-25,24-1,2-3,4-4,6-11,12-20,24-34,34-3,1-6,3-9,2-5-2-7-6-8-11-5-26,3-50,13-73,14-31,35-55,63-76,25-18,52-29,82-33,52-6,105,12,142,51,23,25,35,55,38,88,2,21-3,41,0,62,1,4,2,7,3,11,6,12,19,18,32,19,28,2,54-12,74-31,16-15,28-32,38-52,13-27,19-56,24-86,0,0,2,0,2,1,1,2,2,3,1,5Z" transform="translate(0.22 1.3)"/><path class="cls-4" d="M524.32,767.89l1,1c-6,13-21,18-33,24-14,6-30,9-45,10-12,0-25,0-37-4s-24-8-35-15a118.06,118.06,0,0,1-40-43c-9-17-13-34-17-53-2-7-3-15-11-16a120.9,120.9,0,0,0-18-5l-3-3a3.67,3.67,0,0,1-3-1c-1-2-3-2-3-5,0-1-2-2-3-3-3-10-4-20,0-29v-3c14-35,46-60,83-66,43-7,90,12,109,52,1,2,2,5,3,7,10,24,8,51-3,74-7,14-16,25-26,37-5,6-7,14-5,21,3,9,11,14,19,18,21,8,42,5,64,2,1-1,2,0,3,0Z" transform="translate(0.22 1.3)"/><path class="cls-5" d="M799.8,611.26c-4,35-19,67-40,97-12,16-24,29-39,41-1,1-2,3-3,4-41,33-90,51-142,48-42-3-82-20-111-53-4-5-7-10-11-15a120.35,120.35,0,0,1-11-23c-3-7-6-13-7-20a195.44,195.44,0,0,1-1-54c4-25,14-54-7-74-18-16-42-17-64-16-47,3-85,31-122,59-5,4-14,13-18,5-5-10,0-22,3-32,8-23,21-43,37-62,39-45,91-74,150-79,23-1,45-1,67,5,11,3,21,6,31,11,23,11,42,26,59,44,1,1,0,2,1,3,37,41,45,97,31,150a58.53,58.53,0,0,0-2,13c0,2-2,3-2,5,0,4-1,8-2,12-1,12,0,26,9,35,22,21,54,16,80,6,4-2,7-4,11-5,16-7,30-18,43-30l9-9c5-7,11-12,16-19,1-3,3-5,5-7,1-1,0-2,1-3,2-2,3-4,5-6,7-13,14-25,22-37,2,1,2,4,2,6Z" transform="translate(0.22 1.3)"/><path class="cls-4" d="M777.24,679.05c-51,78-142,131-238,120-9-1-16-4-25-5-15-3-28-10-42-17-16-7-30-19-43-32-38-39-52-91-41-145v-7c3-15,5-29,1-44-5-16-18-26-33-31-25-8-50-3-74,5-1,1-2,2-3,2-33,12-61,31-91,51-9,5-18,12-28,8-11-12-5-28-3-42,1-5,3-10,5-15a68.9,68.9,0,0,0,3-8c24-52,64-94,116-119,2-1,4-3,6-4,18-9,37-14,57-19,24-5,47-5,71-3a209.24,209.24,0,0,1,80,26c4,2,7,5,11,7,2,2,4,3,6,5,1,1,2,0,3,1,14,11,26,22,37,36,1,1,0,2,1,3,16,19,25,41,32,64v4c6,23,6,45,2,69-6,31-20,56-32,84-9,21-3,46,18,58,40,23,88,14,127-8,2-1,4-1,6-2,36-21,62-49,88-81h2c-2,8-6,15-9,23-2,4-5,7-7,12a13.8,13.8,0,0,0-3,4Z" transform="translate(0.22 1.3)"/><path class="cls-6" d="M800,451c0,7-2.4,13-4,20-.81,2-1.61,3-2.41,5-4.8,18-13.61,34-20.82,51,0,0-.8,1-1.61,1l-2.4,6c-4.8,7-8,14-12,21-14.42,22-28,41-45.66,59-.8,1-.8,2-1.6,3-64.08,68-145.78,106-230.69,86H474c-17.63-5-34.45-10-50.47-20-9.61-6-18.42-11-28-19-16-13-28.84-28-41.65-45-10.41-15-18.42-31-25.63-48-4.81-12-8-25-11.22-38-6.41-30-6.41-59-3.2-89,4-39,23.23-77,12.81-116-11.21-45-50.46-62-84.9-65-28.84-2-57.67,3-85.71,14-12.81,6-25.63,11-38.44,18-13.62,8-26.44,17-40,26-12.82,9-24,21-36.85,31-9.61,9-17.62,18-28.84,23-2.4,1-4.8,0-6.4-2-5.61-9-1.61-20,0-30,2.4-19,8-37,13.61-55,.8-1,1.61-3,2.41-4,13.61-38,33.64-71,56.87-101,5.6-6,11.21-12,16.82-19,42.45-46,91.31-74,146.58-85a224.37,224.37,0,0,1,81.7,0c4.81,1,8.81,2,13.62,3,1.6,0,2.4,2,4,2,12.82,2,24,7,36.05,13,7.21,3,14.41,5,20.82,11,1.6,1,3.21,1,4.81,2,12.81,9,24,16,36,27a163.37,163.37,0,0,0,13.62,13c.8,1,.8,2,1.6,3,56.87,59,87.31,150,71.29,243v4l-2.4,9v4c-7.21,34-20,63-31.24,94-6.41,18-11.22,37-7.21,58,3.2,18,12.82,31,24.83,41l.8,2c68.89,49,152.19,11,208.26-50,.8-1,1.6,0,2.4-1,26.43-29,47.26-60,68.09-97a144.29,144.29,0,0,1,8.81-13H800v4Z" transform="translate(0.22 1.3)"/><path class="cls-2" d="M800,337.94c-1.15,3-1.72,6-3.44,9v1.5c-2.29,3-3.43,7.51-5.72,11.27-.57,0-1.15.75-1.15.75a13.9,13.9,0,0,1-2.86,5.26c-.57.75-.57,2.25-1.15,3a240.29,240.29,0,0,1-14.31,21c-8,9.77-14.89,19.53-24,27.8-.57.75-.57,1.5-1.14,2.25-17.76,17.28-34.93,30.06-55,40.57-4.58,2.26-9.73,4.51-14.31,6.77-47.53,19.53-99.06,17.28-143.72-12.78-31.5-21.78-56.69-54.09-71-96.92-1.72-6-3.43-11.27-5.15-17.28-5.73-24-7.44-48.83-5.73-74.38,2.29-29.3,10.88-54.84,15.46-84.14,2.29-12.78,2.87-27-4-38.32a3.3,3.3,0,0,0-.58-2.25c-2.29-3-4.58-5.26-6.3-8.27h-1.14c-7.45-8.26-16-11.27-25.2-12-23.47-3.76-45.8,5.26-65.85,21h-1.14l-1.72,2.25h-1.14c-14.32,12.77-25.77,25.55-38.37,40.57-7.44,9.77-14.31,18.78-22.33,27.8-.57.75-1.15,0-1.72.75-4,4.51-8.59,9.77-14.31,8.27-2.29-.76-4-3.76-4.58-7.52-3.44-25.54,4-48.83,11.45-71.37,7.44-21,17.75-39.07,29.2-57.1C352.22,36.66,396.89,5.86,446.13.6c32.07-3,64.13,5.26,92.76,25.54,30.92,21.79,55,55.6,66.42,98.43,9.74,35.31,8.59,74.38-4.58,108.19-6.87,18-17.17,30.8-28.63,44.32-1.14.75-1.71,1.51-2.86,2.26a25.07,25.07,0,0,1-5.73,6c-1.14.75-1.14,2.25-2.29,3s-2.29,2.26-3.43,3c-3.44,4.51-7.45,8.26-9.74,13.52l-1.14.75c-3.44,7.52-6.87,15-8,24.05A119.84,119.84,0,0,0,540,354.47a43,43,0,0,1,1.71,5.26c10.88,39.82,40.09,62.36,71,72.12h2.29c52.68,14.28,102.49-8.26,144.29-50.33.58-.76,1.15,0,1.72-.76,7.45-8.26,14.89-15.77,21.76-24,5.16-6.76,10.31-14.27,16.61-19.53,0,.75,0,.75.57.75Z" transform="translate(0.22 1.3)"/><path class="cls-3" d="M792.68,25.93c15.87,37.73,5.85,78.39-29.23,112.69-3.34,2.94-5.84,5.39-9.18,8.33C727.54,168,695,184.19,653.21,193c-48.43,10.29-101.88,9.31-147.82-6.37l-2.5-1.47c-14.2-4.41-25.06-10.78-36.75-17.64a97.57,97.57,0,0,1-18.37-15.68c-7.52-7.35-13.36-14.21-20-21.56a53.1,53.1,0,0,0-22.55-17.15h-1.67c-4.18-2.45-10-2.45-15.87-3.43-10.86-1-20.88,1.47-30.9,3.92-7.52,2.45-15,4.9-21.71,8.33-5.85,3.43-11.7,6.37-17.54,10.29-5.85,4.41-10.86,9.31-19.21,11.27-8.35,1.47-18.37,3.92-26.73.49h-1.67l-2.5-1.47h-1.67c-7.52-4.41-11.69-9.8-14.2-16.17-4.17-10.78-2.5-21.07.84-31.85,6.68-16.66,16.7-30.37,34.24-44.09,2.5-1.47,4.17-2.45,5.84-4.41.84-1,2.51-1.47,3.34-2,.84-1,1.67-1.47,2.51-2.45a271.42,271.42,0,0,1,54.28-26c6.68-2,12.53-3.43,19.21-5.39C434.41-6.9,512.91-3,564.69,25.44l7.51,4.41c5.85,3.92,10.86,7.35,14.2,11.76l1.67.49c2.51,2.45,4.18,4.9,7.52,7.35,4.17,3.43,5,7.35,9.19,10.78,1.67,1.47,1.67,3.43,3.34,4.9a129.85,129.85,0,0,1,9.18,17.14c5,12.74,5.85,25.48,12.53,37.73,3.34,5.39,10,10.29,19.21,12.25,21.71,4.9,43.42,0,61.8-7.84,23.38-10.29,39.25-24,50.94-39.2a110.45,110.45,0,0,0,11.69-20.57c1.67-4.41,2.51-7.84,4.18-12.25A169,169,0,0,0,781,32.3c0-6.37-.84-12.25,1.67-18.62h1.67c.84,0,1.67.49,1.67,1v1c4.18,2.94,5,6.86,6.68,10.29Z" transform="translate(0.22 1.3)"/><path class="cls-7" d="M799.18,703a21.83,21.83,0,0,1-3,4.91,103.66,103.66,0,0,0-9.93,11.8c-51.63,53.09-123.12,83.57-196.6,78.66-52.62-3-103.26-25.57-139-66.86-25.81-29.5-37.73-66.86-35.74-105.2,3-39.33,25.81-70.79,50.64-101.27,6.95-8.85,10.92-19.67,9.92-31.46-2-12.79-8.93-25.57-20.85-32.45l-1-2c-33.76-23.59-75.46-23.59-112.2-10.81-28.79,10.81-54.61,26.54-81.42,42.28-6.95,3.93-13.9,8.84-22.83,7.86l-4-3.93c-2-14.75,6.95-26.55,14.9-39.33,16.88-24.58,36.73-43.26,62.55-58,23.83-13.76,46.67-22.61,73.48-27.53,16.88-2.95,33.76-2.95,50.64-2a239.45,239.45,0,0,1,52.62,11.8c20.85,7.86,39.72,17.69,56.6,32.44,6,5.9,12.9,10.82,17.87,17.7,6,7.86,11.91,14.75,16.88,23.59,1,1,0,3,1,3.94,10.92,16.71,14.89,35.39,16.88,54.07,2,20.65-3,41.3-12.91,60-14.89,26.54-40.71,40.31-67.52,53.09-7.94,3.93-14.89,8.85-19.85,16.71-6,8.85-7.95,17.7-8.94,27.53,0,7.87,2,13.77,3,21.63,3,11.8,8.93,20.65,15.89,30.48,30.78,39.33,80.42,53.1,128.08,52.11,43.69-1,83.41-15.73,122.13-39.33,5-3.93,9.93-6.88,15.89-10.81l1-2c5-2,8.94-5.9,12.91-9.83a3.67,3.67,0,0,1,3-1c3-2,6-6.88,9.93-6.88Z" transform="translate(0.22 1.3)"/><path class="cls-5" d="M800,405c-.77,3-1.53,6-3.07,8v2c-21.46,43-51.35,71-85.84,89-48.29,24-105,20-147.17-24-2.3-2-4.6-3-6.14-5-6.89-9-13-17-19.16-27a31.51,31.51,0,0,0-3.83-7c-20.7-39-24.53-82-18.4-127,1.54-10,1.54-18,3.07-28,.77-6-.77-11-1.53-17-2.3-11-9.2-19-16.87-22-38.32-13-68.22,25-95.81,55-1.53,1-3.83,3-5.37,4l-2.29,3c-3.07,2-6.9,5-10.74,4-4.59-2-6.13-8-6.89-13-1.54-32,9.19-61,23.76-88,17.63-33,39.86-55,65.92-71,38.32-23,83.55-25,121.87-1,.77,0,.77,2,1.53,2,31.43,19,56,55,65.16,100v4c5.36,25,2.3,51-4.6,75-6.9,22-19.16,39-31.43,57-1.53,3-3.07,5-3.83,8l-1.53,1c-1.54,5-3.84,10-4.6,15-.77,11,0,21,4.6,31l1.53,1c18.39,35,50.59,40,79.71,37,39.1-5,69.76-35,100.42-67,.76,0,1.53,0,1.53,1Z" transform="translate(0.22 1.3)"/><path class="cls-8" d="M497.89,53.59C504.78,58.81,511.67,64,518.55,71c2.51,2.61,4.39,5.22,6.89,7.83,13.15,16.53,23.17,34.81,28.18,58.3,8.14,34.81,1.88,77.45-22.54,96.59-.63.87-1.88,0-2.51.87-4.38,4.35-8.76,7-13.15,9.58l-1.87,2.61C476.6,278.1,474.73,346,494.76,393.84c13.78,32.2,32.56,55.69,56.35,71.36,41.95,27,88.91,27,132.74,7,30.06-13.92,55.1-35.68,79.52-64.4,13.78-16.53,25-34.8,36.32-53.08-1.26,7-5,12.18-7.52,18.28-3.13,6.09-6.26,11.31-9.39,16.53a74.3,74.3,0,0,0-5.63,8.7c-.63,0-.63.87-1.26.87-14.4,24.37-31.3,42.64-50.71,60.05A294.66,294.66,0,0,1,697,480c-3.76,1.74-6.89,3.48-10.64,5.22-1.26.87-1.88,1.74-3.13,2.61-13.78,6.09-26.93,11.32-41.33,14.8a158,158,0,0,1-34.44,3.48c-6.26-.87-11.89-.87-18.15-1.74a250.27,250.27,0,0,1-24.42-6.09c-26.93-9.58-50.09-26.11-70.75-51.35-3.13-3.48-5-7.83-8.14-11.31l-11.27-18.27c-.63-.87,0-1.74-.63-2.61-13.15-24.37-20.66-51.35-24.42-80.93-.63-7-.63-13.93-1.25-20.89a132.47,132.47,0,0,1,1.25-27c.63-1.74.63-4.36,1.25-6.1v-4.35c1.26-5.22,1.88-11.31,3.13-16.53,1.88-8.7,4.39-16.53,6.89-25.24l5.64-15.66c2.5-6.09,5.63-13.05,8.14-19.14,6.88-17.41,13.14-37.42,7.51-57.44-3.76-12.18-10-23.49-18.78-29.59l-1.88-2.61a77.49,77.49,0,0,0-36.94-14.79c-11.9-.87-23.8.87-35.69,4.35-20.67,7-38.2,18.28-55.73,35.68-20,20.89-35.69,42.64-53.22,66.14-5.63,6.09-10,16.53-18.16,14.79-2.5-.87-3.13-5.22-3.13-7.83,0-40,15.66-75.71,33.81-107.91C314.44,62.29,340.73,34.45,372,17c26.3-14.79,58.23-27.84,84.53-3.48,8.14,7,12.52,19.15,21.29,26.11,6.88,5.22,13.15,10.44,20,13.92Z" transform="translate(0.22 1.3)"/><path class="cls-2" d="M799.31,178.2C793.8,188.32,782.08,196,771,203.75a221.6,221.6,0,0,1-27.57,15.43c-19.31,9.15-38.62,14.94-60,19.76a261.73,261.73,0,0,1-64.12,5.3c-16.55-1-33.1-2.89-49-6.75-8.27-2.41-15.85-4.82-24.13-7.71a225.16,225.16,0,0,1-22.06-10.12c-22.06-13-38.61-28.45-46.2-47.73-4.13-11.09-6.2-22.18-4.13-33.75.69-5.3,2.75-9.64,4.13-14.94,4.14-12,12.41-21.7,18.62-32.78,3.45-6.75,4.83-14.47-.69-21.22-4.83-5.78-12.41-9.64-21.37-12-15.86-4.34-33.1-3.85-50.34-1a52.61,52.61,0,0,0-9.65,1.93c-12.41,2.89-23.44,7.23-35.16,12-1.38.48-1.38,1.44-2.76,1.93-12.41,5.3-21.37,11.57-33.79,17.35-.68.48-.68,1-1.37,1.45-3.45,1.93-6.9,3.37-10.35,5.3-4.82,2.41-13.79,5.79-16.54,0-2.07-3.86,0-8.19,1.37-12,4.14-14,13.79-25.07,26.21-36.16,6.2-4.82,11.72-9.64,18.61-14A218.75,218.75,0,0,1,398,15.25,241.17,241.17,0,0,1,468.36.31c37.92-1.93,74.47,5.3,106.18,21.21.69.48.69,1,1.38,1.44,15.17,7.23,24.82,16.39,34.47,27,.69.48,0,1.45.69,1.93,8.28,9.64,11.73,20.25,13.1,31.33.69,11.58-2.75,22.66-9.65,32.79-8.27,11.09-20.68,19.76-36.54,26.51a77.89,77.89,0,0,0-22.06,11.57c-4.14,4.34-7.59,8.68-8.28,14-2.76,26,31,45.32,63.43,52.55,66.88,14.46,135.14-7.23,183.41-40.49,1.38-.49,2.76-1.93,4.82-1.93Z" transform="translate(0.22 1.3)"/><path class="cls-8" d="M796,114.12c0,78.28-68,153-157,162-49,4.5-101-11.7-129-51.29l-3-2.7a87.06,87.06,0,0,1-11-18c-6-10.8-9-22.5-15-33.3v-2.7c-6-11.69-16-22.49-31-24.29-8-.9-15,.9-23,2.7-20,5.4-42,12.6-62,4.5-22-20.7-8-52.19,5-74.69l3-2.7c12-19.79,29-33.29,49-46.78,6-3.6,13-6.3,19-9.9,46-20.7,101-23.4,148-2.7,19,9,35,19.79,49,34.19,1,.9,0,1.8,1,2.7,27,26.09,37,59.39,48,91.78,3,8.1,7,15.3,15,20.7h2c2,2.69,4,1.8,7,2.69,12,1.8,21-3.59,30-9,10-6.3,16-14.4,24-22.5,10-12.6,14-25.19,24-37.79,1,0,2-1.8,3-.9,4,5.4,4,11.7,4,18Z" transform="translate(0.22 1.3)"/><path class="cls-6" d="M753.52,356c.34.58-21.85,14.15-21.52,14.73s23.32-11.59,23.64-11-22.13,13.7-21.81,14.29,23.56-11.08,23.87-10.49-22.44,13.19-22.13,13.79,23.82-10.52,24.12-9.92S736.93,380,737.22,380.59s24.08-9.91,24.36-9.3-23.08,12-22.81,12.63,24.35-9.23,24.61-8.61-23.42,11.34-23.17,12,24.62-8.49,24.86-7.87S741.3,390,741.54,390.63s24.88-7.69,25.1-7.05-24.11,9.8-23.89,10.44,25.13-6.83,25.33-6.19-24.44,8.93-24.25,9.58,25.36-5.9,25.54-5.25-24.76,8-24.6,8.65,25.58-4.91,25.73-4.25-25.11,6.77-25,7.43c0,.07,25.46-5.15,25.48-5.08s-24.89,7.34-24.87,7.41,24.13-9.63,24.16-9.56S747,408.24,747,408.31s22.91-12.28,23-12.22-22.37,13.24-22.34,13.3,22.22-13.51,22.25-13.45-21.84,14.11-21.8,14.17,21.84-14.1,21.88-14-21.59,14.48-21.55,14.54,21.72-14.29,21.76-14.23-21.58,14.49-21.54,14.55,21.83-14.11,21.87-14.05S748.66,411,748.7,411.07s22.21-13.52,22.25-13.46-22.37,13.25-22.33,13.31,22.93-12.25,23-12.18-23.34,11.43-23.31,11.49,24.16-9.56,24.18-9.5-24.9,7.27-24.89,7.34,25.61-4.38,25.61-4.31c.05.29-25.57,4.65-25.52,4.94s25.65-4.25,25.71-4-25.37,5.71-25.31,6,25.55-4.84,25.61-4.56-25.25,6.23-25.19,6.51,25.47-5.28,25.53-5-25.16,6.59-25.09,6.87,25.4-5.57,25.47-5.28-25.1,6.79-25,7.08,25.37-5.72,25.44-5.43-25.08,6.87-25,7.15,25.37-5.71,25.44-5.43-25.1,6.8-25,7.08,25.41-5.57,25.47-5.28-25.15,6.58-25.09,6.87,25.47-5.29,25.53-5-25.25,6.23-25.18,6.51,25.55-4.84,25.61-4.55-25.37,5.71-25.31,6,25.66-4.25,25.71-4-25.5,5.11-25.45,5.39c.41,2.4,26.47.68,26.82,3.07S753.2,437,753.49,439.4s26.4,2.06,26.62,4.46-25.5,6.87-25.35,9.27,26.24,3.52,26.33,5.93-25.85,5.4-25.83,7.81,26,5.05,25.93,7.46-26.12,3.83-26.26,6.24,25.64,6.64,25.43,9.05-26.31,2.18-26.59,4.58,25.16,8.26,24.8,10.65-26.4.47-26.84,2.85,24.56,9.89,24,12.25-26.38-1.28-27,1.06,23.85,11.51,23.18,13.83-26.23-3-27-.74,23,13.07,22.2,15.35-26-4.79-26.87-2.54,22.11,14.57,21.13,16.78-25.59-6.49-26.64-4.3,21.07,16.06,19.94,18.21c-.09.14-22.62-12.81-22.71-12.67s21.88,14,21.79,14.18S731.38,566,731.29,566.18s22.37,13.26,22.29,13.41-22.89-12.35-23-12.21,22.73,12.63,22.66,12.77S730.1,568.35,730,568.5s23,12.18,22.9,12.33-23.35-11.46-23.42-11.31,23.09,12,23,12.1-23.4-11.35-23.47-11.2,23.09,12,23,12.1-23.34-11.46-23.42-11.32,23,12.19,22.9,12.34-23.17-11.81-23.24-11.67S751,584.51,751,584.65s-22.87-12.36-23-12.22,22.36,13.26,22.28,13.41-22.47-13.08-22.56-12.94,21.89,14,21.8,14.18-22.29-13.4-22.38-13.26c-1.17,2,19.75,17.57,18.53,19.48s-24.17-10.5-25.45-8.63,18.63,18.75,17.29,20.58-23.45-12-24.85-10.25,17.35,19.94,15.89,21.68S706,603.07,704.46,604.75s15.92,21.1,14.34,22.74-21.54-15.19-23.18-13.61,14.35,22.2,12.65,23.71-20.35-16.73-22.11-15.28S698.8,645.52,697,646.9,678,628.67,676.12,630s10.81,24.12,8.9,25.36-17.54-19.66-19.5-18.5,8.9,24.89,6.89,26-15.94-21-18-20,6.91,25.51,4.83,26.44S645,647.13,642.89,648s4.91,26,2.76,26.73-12.5-23.19-14.68-22.51,2.8,26.3.59,26.9c-2.42.6-10.63-24.19-13-23.71s-.49,26.52-2.93,26.87-8-25.15-10.49-24.92-3.18,26.34-5.65,26.44-5.39-25.84-7.86-25.86-5.9,25.86-8.37,25.7-2.64-26.26-5.1-26.55-8.61,25.09-11.05,24.67.19-26.39-2.23-26.94-11.26,24-13.65,23.34,3.06-26.22.71-27-13.81,22.64-16.11,21.7,5.91-25.72,3.67-26.78-16.22,21-18.41,19.8,8.72-24.91,6.6-26.22-18.43,19.08-20.47,17.66,11.4-23.8,9.43-25.33-20.39,16.95-22.27,15.31,13.91-22.42,12.12-24.16-22.09,14.67-23.79,12.84,16.28-20.75,14.68-22.66c-.7-.89-21.83,14.26-22.52,13.35s19.56-17.27,18.89-18.19-22.46,13.3-23.12,12.37,20-16.81,19.32-17.74-22.64,13-23.28,12.07,20-16.77,19.35-17.7-22.52,13.19-23.18,12.26,19.69-17.15,19-18.06-22.1,13.86-22.8,13,18.94-18,18.23-18.85-21.29,15-22,14.2,17.65-19.25,16.87-20.07-19.93,16.78-20.76,16S467,575,466.1,574.22s-17.82,19-18.74,18.32,12.7-22.83,11.74-23.43S444.34,590.55,443.33,590s8.79-24.6,7.73-25-10.8,23.67-11.9,23.34,4.28-25.77,3.15-26-6.71,25.18-7.86,25c-1.39-.23.08-26.22-1.28-26.33s-3.71,25.8-5.08,25.81S424,561,422.59,561.14s.85,26.05-.51,26.3-8.55-24.75-9.89-24.38,5.26,25.54,4,26-12.43-23-13.69-22.46,9.05,24.46,7.83,25.12-15.49-21.1-16.67-20.36,12.05,23.15,10.91,24S386.79,576.09,385.69,577,400,598.8,398.92,599.7s-19.36-17.6-20.38-16.65,15.94,20.69,14.95,21.67S373,588.46,372,589.47s17.13,19.73,16.2,20.76S366.93,595,366,596.08s18,19,17.07,20-21.82-14.42-22.7-13.35S378.9,621.25,378,622.33s-22.27-13.75-23.12-12.67c-.47.66,20,16.68,19.57,17.34s-22.21-13.62-22.67-13,20.42,16.17,20,16.84S349.41,617.51,349,618.19s20.62,15.9,20.17,16.58-22.55-13.06-23-12.38S367,638,366.56,638.67s-22.76-12.69-23.2-12,21.14,15.23,20.71,15.92-23-12.27-23.41-11.58,21.42,14.82,21,15.52-23.23-11.8-23.64-11.09,21.74,14.35,21.33,15.06-23.49-11.27-23.88-10.56,22.06,13.84,21.68,14.56-23.76-10.71-24.13-10,22.4,13.29,22,14-24-10.09-24.38-9.36,22.74,12.69,22.4,13.43-24.29-9.44-24.62-8.7,23.18,11.83,22.85,12.57-24.62-8.39-24.86-7.77,23.79,10.57,23.55,11.19-24.74-8.1-25-7.48S348.8,673,348.57,673.6s-24.75-8.09-25-7.47,23.79,10.57,23.56,11.19-24.75-8.1-25-7.48S346,680.41,345.71,681s-24.75-8.1-25-7.48,23.79,10.58,23.55,11.19-24.74-8.09-25-7.47,23.79,10.57,23.55,11.19-24.74-8.1-25-7.48,23.79,10.57,23.55,11.19-24.74-8.09-25-7.47,23.79,10.57,23.55,11.19-24.74-8.1-25-7.48S338.8,699,338.57,699.6s-24.75-8.09-25-7.47,23.79,10.57,23.56,11.19-24.63-8.38-24.87-7.76c-.1.19,23.39,11.28,23.29,11.47s-23.23-11.69-23.33-11.49,22.62,12.83,22.51,13S312,696,311.86,696.2s22,13.84,21.9,14-22.08-13.73-22.2-13.55,21.12,15.18,21,15.35-21-15.29-21.15-15.12S331.15,713.82,331,714s-19.38-17.31-19.53-17.16,17.62,19.11,17.46,19.26-16.81-19.81-17-19.68,14.31,21.69,14.13,21.8-12.81-22.57-13-22.47S322.46,720,322.25,720s-7.12-24.94-7.33-24.9,3,25.79,2.75,25.8S317.22,695,317,695s-3.59,25.72-3.81,25.68,5.62-25.34,5.4-25.41-8.52,24.56-8.72,24.48,8.67-24.5,8.4-24.6-10.83,23.64-11.09,23.52,11.15-23.47,10.9-23.61-13.54,22.2-13.78,22.05,13.85-22,13.62-22.15-16.05,20.46-16.27,20.28S317.91,695,317.7,694.76s-18.18,18.6-18.38,18.4,18.26-18.5,18.06-18.71S297.52,711.23,297.33,711,317.14,694.18,317,694s-21.13,15.17-21.3,14.93,20.95-15.38,20.79-15.63-22,13.81-22.2,13.56,21.78-14.2,21.63-14.45-22.68,12.73-22.82,12.48,22.34-13.3,22.2-13.55S292.16,703.22,292,703s22.72-12.65,22.59-12.9-23.38,11.38-23.51,11.12,23.1-11.9,23-12.16c-.18-.42-24,10-24.2,9.55s23.33-11.5,23.15-11.92-24.09,9.85-24.27,9.43,23.32-11.52,23.13-11.94-24.1,9.81-24.28,9.39,23.38-11.4,23.2-11.82-24.18,9.61-24.36,9.19,23.5-11.14,23.32-11.56-24.31,9.27-24.48,8.85S309,677.45,308.8,677s-24.49,8.78-24.66,8.35,23.94-10.18,23.78-10.61-24.72,8.14-24.87,7.71,24.21-9.49,24.07-9.93-25,7.37-25.1,6.94,24.52-8.68,24.39-9.12-25.2,6.48-25.33,6,24.83-7.76,24.71-8.21-25.43,5.51-25.54,5.06,25.11-6.77,25-7.22-25.56,4.8-25.65,4.35,25-7.06,24.9-7.59-25.52,5.08-25.65,4.55,25-7.11,24.91-7.64-25.57,4.84-25.69,4.31,25.1-6.85,25-7.38-25.63,4.54-25.74,4,25.19-6.54,25.07-7.07-25.68,4.2-25.79,3.66,25.28-6.16,25.17-6.7-25.74,3.8-25.84,3.27,25.38-5.75,25.28-6.29-25.81,3.36-25.9,2.82,25.48-5.28,25.39-5.83-25.86,2.89-25.94,2.35,25.57-4.81,25.49-5.35-25.91,2.4-26,1.86,25.66-4.32,25.59-4.87-25.95,1.9-26,1.36,25.74-3.84,25.69-4.38-26,1.41-26,.86,25.79-3.46,25.75-4c-.1-1-26.09.15-26.17-.84s25.82-3.61,25.76-4.6S272.77,626,272.74,625s25.94-2.51,25.93-3.51-26-2-26-3,26-1.46,26.05-2.45-25.9-3-25.86-4,26.07-.47,26.13-1.46-25.78-4-25.69-5,26.06.46,26.16-.53-25.63-4.84-25.51-5.83,26,1.31,26.17.32S274.65,594,274.8,593,300.79,595,301,594s-25.31-6.32-25.14-7.3,25.93,2.73,26.12,1.75-25.15-6.92-24.95-7.9,25.86,3.3,26.06,2.33-25-7.43-24.78-8.41,25.8,3.78,26,2.81-24.91-7.69-24.68-8.66c.37-1.71,26.08,2.5,26.49.82S281.75,559.64,282.2,558s25.94,3.75,26.44,2.09-23.79-11.12-23.24-12.77,25.69,5.16,26.28,3.53-23.13-12.44-22.49-14,25.35,6.64,26,5S292.87,528,293.61,526.44s24.9,8.15,25.68,6.6-21.47-15.11-20.65-16.65,24.36,9.67,25.23,8.17-20.49-16.41-19.57-17.89S328,517.83,329,516.38s-19.44-17.65-18.43-19.07,23,12.61,24,11.22-18.33-18.8-17.23-20.16,22.17,14,23.31,12.64-17.18-19.85-16-21.14,21.32,15.24,22.53,14-16-20.8-14.77-22,20.35,16.48,21.64,15.28c1.9-1.71-13.23-23-11.26-24.62S363,479.6,365,478.05s-11.26-24-9.17-25.51,18.7,18.7,20.85,17.32-9.24-24.89-7-26.18,17.07,20.19,19.33,19-7.1-25.58-4.79-26.68,15.26,21.59,17.62,20.6-4.82-26.11-2.43-27,13.27,22.87,15.7,22.09-2.4-26.44.07-27.1,11.05,24,13.55,23.47.14-26.55,2.66-27,8.65,25,11.19,24.68,2.79-26.4,5.34-26.57,6.07,25.72,8.63,25.69,5.49-26,8.05-25.87,3.34,26.21,5.89,26.45,8.21-25.25,10.75-24.88.53,26.42,3.05,26.93S495,423.26,497.48,423.9c.06,0-3.07,25.61-3,25.61s.12-26,.19-26,.12,26,.18,26,.13-26,.19-26,.12,26,.19,26,.12-26,.19-26,.12,26,.18,26,.13-26,.19-26,.13,26,.19,26,.13-26,.2-26,.12,26,.19,26,.13-26,.19-26,.13,26,.2,26,.13-26,.19-26,.13,26,.19,26,.13-26,.2-26,.13,26,.19,26,.13-26,.19-26,.13,26,.2,26,.12-26,.18-26S494.79,449,494.85,449c.81.24,8.88-24.48,9.68-24.23s-6.25,25.29-5.46,25.54,9.79-24.15,10.58-23.88-7,25.09-6.21,25.37S514,428,514.75,428.3s-7.78,24.85-7,25.16S519,430,519.8,430.29s-8.6,24.58-7.83,24.92,12.08-23.09,12.84-22.75-9.45,24.27-8.7,24.63,12.88-22.65,13.63-22.28-10.3,23.92-9.55,24.31,13.67-22.18,14.41-21.79-11.15,23.55-10.42,24S538.63,439.6,539.35,440s-12,23.13-11.25,23.57,15.2-21.17,15.91-20.72S531.25,465.59,532,466.05s15.91-20.64,16.6-20.17-13.5,22.28-12.82,22.76,16.67-20,17.35-19.54c0,0-17.28,19.29-17.24,19.33s19.58-17.09,19.62-17.05-20.15,16.42-20.12,16.46,21-15.35,21-15.3-21.45,14.68-21.41,14.73,22.1-13.68,22.13-13.63-22.42,13.15-22.39,13.2,22.88-12.35,22.9-12.3-23,12.11-23,12.16,23.25-11.63,23.28-11.58-23.19,11.75-23.17,11.8S558,455.26,558,455.31s-23,12.16-23,12.21,22.84-12.42,22.87-12.37-22.38,13.23-22.35,13.28,22.06-13.76,22.09-13.71-21.42,14.74-21.39,14.79,21-15.39,21-15.35-20.15,16.43-20.11,16.47,19.58-17.09,19.62-17S539.56,473,539.61,473c.62.45,16.72-20,17.32-19.53s-14.63,21.53-14,22,17.54-19.26,18.12-18.78-15.67,20.8-15.1,21.29,18.47-18.38,19-17.87-16.67,20-16.12,20.52,19.34-17.45,19.87-16.91-17.63,19.15-17.11,19.7,20.16-16.5,20.67-15.93-18.52,18.3-18,18.87,20.9-15.55,21.38-15-19.32,17.45-18.85,18.05,21.55-14.64,22-14-20,16.63-19.59,17.25,22.11-13.77,22.55-13.15S561.08,495.38,561.5,496s22.58-13,23-12.35-21.14,15.2-20.74,15.84,23-12.3,23.36-11.65-21.56,14.6-21.18,15.26,23.44-11.41,23.82-10.75-22.53,13.08-22.22,13.73S591.67,496.32,592,497s-23.09,12-22.8,12.7,24.43-9,24.71-8.38-23.42,11.36-23.15,12,24.67-8.34,24.94-7.67S572,516.37,572.21,517.05s24.88-7.7,25.12-7-24,10.13-23.74,10.81,25-7.12,25.28-6.43-24.2,9.6-24,10.28,25.19-6.6,25.41-5.91-24.38,9.14-24.17,9.83,25.3-6.18,25.51-5.48-24.52,8.76-24.32,9.46,25.38-5.83,25.58-5.14-24.62,8.48-24.42,9.17,25.44-5.56,25.63-4.87-24.7,8.26-24.51,9,25.48-5.39,25.67-4.69-24.82,7.83-24.63,8.54,25.64-4.39,25.78-3.74-25.18,6.6-25,7.25,25.74-3.9,25.88-3.24-25.2,6.55-25.07,7.21,25.73-4,25.87-3.32-25.15,6.74-25,7.39,25.68-4.29,25.82-3.64-25,7.17-24.88,7.82,25.58-4.85,25.74-4.2-24.83,7.83-24.66,8.47,25.41-5.65,25.59-5-24.54,8.72-24.34,9.37,25.15-6.7,25.37-6.07-24.11,9.86-23.88,10.49,24.77-8,25-7.36-23.52,11.2-23.25,11.81,24.23-9.47,24.52-8.86-22.74,12.7-22.43,13.3,23.52-11.12,23.85-10.53S593.76,586,594.11,586.59s22.31-13.3,22.68-12.74c.13.13-19.44,17.11-19.31,17.23s18.64-18.13,18.77-18-18.13,18.64-18,18.77,18.64-18.12,18.77-18-18.13,18.65-18,18.77,18.64-18.13,18.77-18-18.13,18.64-18,18.77,18.65-18.13,18.77-18-18.13,18.63-18,18.76,18.64-18.13,18.76-18-18.13,18.63-18,18.76,18.63-18.14,18.76-18-18.14,18.64-18,18.76,18.64-18.13,18.76-18-18.13,18.64-18,18.77,18.63-18.14,18.76-18-18.14,18.63-18,18.76,18.63-18.13,18.76-18-18.13,18.64-18,18.77,18.63-18.13,18.76-18-16.9,19.73-16.77,19.86,15.49-20.88,15.77-20.71-13.17,22.43-12.9,22.6,13.79-22,14.07-21.89-12.15,23-11.87,23.15,12.77-22.65,13.05-22.5S613.37,604,613.66,604.11s11.69-23.23,12-23.1-9.95,24-9.65,24.16,10.57-23.76,10.87-23.63-8.8,24.47-8.49,24.59,9.43-24.23,9.74-24.13-7.65,24.86-7.34,25,8.32-24.63,8.63-24.54-6.54,25.18-6.22,25.26,7.25-25,7.57-24.89-5.49,25.42-5.18,25.5,6.26-25.24,6.58-25.18-4.52,25.62-4.2,25.68,5.34-25.45,5.66-25.39-3.65,25.75-3.32,25.8,3.49-25.71,3.81-25.67c2.61.14,4.86,26.12,7.39,26s3-26.2,5.5-26.53,9.7,24.76,12.19,24.19-2-26.29.46-27.09,14.08,22.56,16.44,21.54-6.66-25.52-4.4-26.74,17.72,19.81,19.88,18.41-10.69-24.13-8.64-25.69,20.48,16.93,22.42,15.23-14-22.42-12.14-24.24,22.49,14.13,24.2,12.2-16.57-20.59-15-22.61,23.92,11.53,25.41,9.43-18.62-18.76-17.23-20.93,24.93,9.13,26.22,6.9-20.3-17-19.11-19.24,25.65,6.86,26.73,4.53-21.68-15.15-20.69-17.52,26.13,4.68,27,2.27-22.86-13.3-22.08-15.74,26.46,2.4,27.14-.06c0-.06-25.56-3.49-25.56-3.55s26-.13,26-.19-26-.12-26-.19,26-.12,26-.18-26-.13-26-.19,26-.13,26-.19-26-.13-26-.19,26-.12,26-.19-26-.12-26-.19,26-.13,26-.19-26-.13-26-.19,26-.13,26-.2-26-.13-26-.19,26-.13,26-.19-26-.13-26-.2,26-.13,26-.19-26-.13-26-.19,26-.13,26-.2-26-.13-26-.19,26-.13,26-.19-25.46-3.83-25.46-3.89c.42-1.37,25.82,4.42,26.19,3.05s-24.44-9.24-24.11-10.62,26,2.9,26.3,1.51-25-7.7-24.72-9.1,26.14,1.35,26.35-.06-25.38-6.27-25.21-7.68,26.17-.07,26.31-1.48-25.67-5-25.57-6.38,26.14-1.33,26.21-2.75-25.87-3.8-25.83-5.22,26.06-2.42,26.06-3.84-26-2.8-26-4.23,26-3.33,25.91-4.76-26.07-2-26.13-3.38,25.84-4.09,25.77-5.51-26.12-1.29-26.21-2.71,25.74-4.67,25.63-6.09-26.14-.77-26.26-2.19,25.66-5.1,25.53-6.52-26.15-.42-26.28-1.84,25.56-5.71,25.42-7.13c-.06-.1-24.94,6.57-25,6.46s24-9.91,24-10-24.6,8.42-24.63,8.31,24.74-8,24.71-8.08-25.1,6.79-25.13,6.68,25.14-6.63,25.11-6.74-25.37,5.71-25.39,5.59,25.34-5.79,25.32-5.91-25.5,5.09-25.52,5,25.43-5.39,25.41-5.51-25.54,4.89-25.56,4.77S759,395,758.92,394.9s-25.5,5.08-25.52,5,25.35-5.78,25.32-5.9-25.37,5.69-25.39,5.58,25.14-6.62,25.11-6.73-25.1,6.77-25.13,6.66,24.75-8,24.71-8.08-24.59,8.43-24.63,8.32,24-9.94,24-10-24.55,8.42-24.61,8.32c-.08-.4,25.06-7,25-7.4s-25.61,4.58-25.69,4.19,25.31-6,25.23-6.42-25.66,4.28-25.74,3.88,25.36-5.75,25.29-6.15-25.7,4.05-25.77,3.65,25.41-5.56,25.33-6-25.71,3.9-25.79,3.51S756,381.83,756,381.43s-25.72,3.85-25.79,3.45,25.43-5.45,25.36-5.85-25.72,3.89-25.79,3.49,25.41-5.54,25.34-5.93-25.7,4-25.77,3.63,25.37-5.73,25.29-6.13S729,378.38,728.87,378s25.3-6,25.22-6.42-25.59,4.64-25.68,4.25,25.21-6.44,25.12-6.84-25.51,5.12-25.6,4.73,25.21-6.3,25.12-6.69c0-.11-25.76,2.28-25.76,2.16s26-.22,26-.33-26-.21-26-.33,26-.21,26-.32-26-.22-26-.33,26-.22,26-.34-26-.22-26-.33,26-.22,26-.33-26-.22-26-.33,26-.22,26-.34-26-.22-26-.33,26-.23,26-.34-26-.22-26-.34,26-.22,26-.33-26-.23-26-.34,26-.22,26-.34-26-.22-26-.33,26-.23,26-.34-26-.22-26-.33,26-.23,26-.33-25.41-4.12-25.41-4.22,12.44,16.89,12.5,16.89.06-26,.09-26,.06,26,.1,26,.06-26,.09-26,.06,26,.09,26,.06-26,.1-26,.06,26,.09,26,.06-26,.09-26,.06,26,.09,26,.06-26,.1-26,.06,26,.09,26,.06-26,.1-26,.06,26,.09,26,.07-26,.1-26,.06,26,.09,26,.07-26,.1-26,.07,26,.1,26,.06-26,.1-26,.06,26,.1,26,.06-26,.1-26,.07,26,.1,26v-26l6.55,24.23C754.45,370.46,753.52,356,753.52,356Z" transform="translate(0.22 1.3)"/><path class="cls-2" d="M768.12,514s-26,.06-26,.09,26,.07,26,.1-26,.07-26,.1,26,.07,26,.1-26,.07-26,.1,26,.07,26,.1-26,.06-26,.09,26,.07,26,.1-26,.07-26,.1,26,.06,26,.09-26,.06-26,.09,26,.06,26,.09-26,.06-26,.1,26,.06,26,.09-26,.06-26,.09,26,.06,26,.09-26,.06-26,.09,26,.06,26,.09-26,.07-26,.1,26,.06,26,.09-24.94,5.22-24.94,5.25c1,2.3,26-5.18,26.93-2.84s-22.73,13.45-21.94,15.83,26.37-2.87,27.05-.46S751.38,545.06,752,547.5s26.52-.59,27,1.87-24.72,9.35-24.34,11.83,26.48,1.58,26.75,4.07-25.38,7.36-25.2,9.86,26.27,3.62,26.36,6.13-25.87,5.42-25.88,7.93,25.94,5.54,25.84,8-26.19,3.55-26.38,6,25.48,7.36,25.21,9.85-26.38,1.73-26.73,4.21,24.91,9.07,24.48,11.54-26.44,0-27,2.42,24.27,10.69,23.67,13.12-26.38-1.75-27,.66,23.52,12.24,22.77,14.63-26.21-3.45-27-1.08,22.72,13.61,21.82,16-25.94-4.91-26.88-2.62,21.9,14.95,20.86,17.2-25.52-6.82-26.64-4.61,20.66,16.62,19.45,18.78-24.91-8.8-26.2-6.68,19.29,18.19,17.92,20.25-24.14-10.74-25.59-8.73,17.78,19.67,16.24,21.61-23.19-12.63-24.8-10.75,16.13,21,14.44,22.85S703,727.41,701.24,729.15s14.35,22.3,12.51,24-20.8-16.27-22.7-14.68,12.43,23.42,10.46,24.93-19.35-18-21.38-16.55,10.38,24.4,8.28,25.74S670.7,753,668.55,754.21s8.2,25.22,6,26.37-15.91-21.08-18.16-20,5.92,25.84,3.62,26.79-13.84-22.46-16.18-21.62c-1.54.52,4.93,25.73,3.38,26.2s-10.22-24.1-11.79-23.68,3.18,26,1.6,26.4-8.7-24.68-10.29-24.36,1.51,26.18-.09,26.45-7.08-25.2-8.69-25-.21,26.22-1.82,26.38-5.39-25.61-7-25.5-2,26.15-3.61,26.2-3.6-25.92-5.22-25.93-3.82,26-5.45,25.89-1.74-26.11-3.36-26.24-5.68,25.61-7.3,25.43.17-26.17-1.44-26.41-7.55,25.11-9.15,24.81,2.12-26.08.53-26.44-9.41,24.48-11,24.06,4.07-25.85,2.51-26.33-11.23,23.7-12.76,23.16,6-25.46,4.49-26.06-13.16,22.71-14.66,22.05c-1.18-.56,9-24.51,7.88-25.11s-14.68,21.64-15.82,21,10.84-23.76,9.72-24.43-16.06,20.63-17.16,19.92,12.38-23,11.31-23.74S521.24,774,520.2,773.19s13.9-22.1,12.88-22.92-18.69,18.29-19.68,17.44,15.38-21.1,14.42-22-19.91,17-20.84,16,16.81-20,15.91-20.93-21,15.53-21.9,14.54,18.17-18.75,17.34-19.76-22.08,14-22.87,13,19.44-17.41,18.69-18.48-23,12.4-23.73,11.31,20.63-16,19.95-17.12-23.84,10.75-24.47,9.6,21.71-14.49,21.12-15.66-24.54,9-25.1,7.85,22.74-12.79,22.23-14c-.33-.86-24.93,7.55-25.24,6.69s24-10.1,23.73-11-25.38,6-25.64,5.1,24.48-8.92,24.23-9.81-25.61,4.88-25.83,4,24.8-8,24.59-8.89-25.76,4.06-26,3.16,25-7.33,24.82-8.23-25.83,3.51-26,2.61,25.12-6.94,24.94-7.84-25.86,3.25-26,2.35,25.16-6.82,25-7.72-25.86,3.25-26,2.36,25.12-7,24.94-7.86-25.82,3.54-26,2.64,25-7.38,24.8-8.27-25.73,4.12-25.94,3.23,24.78-8.09,24.55-9-25.57,5-25.81,4.1,24.45-9.06,24.18-9.93-25.32,6.15-25.61,5.28c0-.14,24.42-8.93,24.37-9.06s-24.3,9.22-24.35,9.09,23.77-10.53,23.71-10.66-23.69,10.71-23.75,10.59,23.14-11.86,23.08-12S465.71,665,465.65,664.84s22.61-12.83,22.54-13-22.7,12.67-22.77,12.55,22.27-13.42,22.2-13.54-22.48,13.07-22.55,13,22.16-13.61,22.08-13.73-22.47,13.07-22.55,13,22.28-13.41,22.21-13.53S464.1,662.21,464,662.08s22.63-12.81,22.56-12.93-23.13,11.87-23.2,11.74,23.14-11.84,23.08-12-23.69,10.72-23.75,10.59,23.77-10.53,23.72-10.66-24.31,9.24-24.36,9.1,22.45-12.66,22.4-12.8-16.22,19.45-16.27,19.43,11.58-23.28,11.53-23.3-11.67,23.23-11.72,23.2,11.58-23.27,11.54-23.3-11.68,23.23-11.72,23.21,11.58-23.28,11.53-23.3-11.67,23.23-11.72,23.21S479.23,641,479.19,641s-11.68,23.23-11.73,23.2S479,640.92,479,640.9s-11.68,23.23-11.73,23.21,11.58-23.28,11.53-23.31S467.13,664,467.09,664s11.58-23.27,11.53-23.3-11.68,23.23-11.72,23.21,11.57-23.28,11.53-23.3-11.68,23.23-11.73,23.2,11.58-23.28,11.53-23.3-11.67,23.23-11.72,23.21,11.58-23.28,11.52-23.31-16.75,18.76-16.78,18.72c-.41-.73,20.8-15.85,20.34-16.52s-21.83,14.11-22.34,13.47,18.41-18.44,17.85-19S458,654.71,457.4,654.17s15-21.33,14.32-21.81S455.87,653,455.18,652.54s11.33-23.47,10.6-23.84-12.5,22.81-13.25,22.48,7.84-24.85,7.06-25.12-9.33,24.28-10.13,24.06,4.71-25.64,3.91-25.81-6.51,25.19-7.32,25.06,2-26,1.17-26.08-4,25.71-4.86,25.65-.34-26.06-1.16-26.08-1.9,26-2.72,26-2.36-26-3.18-25.92,0,26-.82,26.1-4.14-25.73-5-25.64,1.71,26,.9,26.1-5.89-25.39-6.7-25.25S427.64,650,427,650.11s-7.48-25-8.15-24.78,5.46,25.45,4.8,25.64-8.83-24.5-9.49-24.3S421,651.79,420.31,652s-10.13-24-10.78-23.75,8.16,24.72,7.52,25-11.37-23.43-12-23.16,9.41,24.27,8.78,24.56-12.51-22.84-13.13-22.53,10.55,23.79,9.94,24.11S397.1,634,396.49,634.31s11.58,23.31,11,23.66-14.44-21.68-15-21.32,12.46,22.85,11.88,23.22-15.21-21.14-15.79-20.76,13.23,22.42,12.65,22.81-15.86-20.66-16.43-20.26,13.86,22,13.3,22.44-16.39-20.24-16.95-19.83,14.69,21.46,14.14,21.88c-.82.68-18.34-18.53-19.12-17.84S392,669,391.27,669.67s-19.56-17.28-20.3-16.55S388,672.83,387.3,673.59s-20.49-16.16-21.19-15.38,18.12,18.74,17.43,19.54-21.31-15-22-14.24,19,17.8,18.4,18.63-22-14-22.64-13.16,19.84,16.92,19.24,17.77-22.6-13-23.18-12.18,20.48,16.13,19.91,17-23-12.26-23.6-11.37,21,15.48,20.44,16.38-23.36-11.61-23.9-10.71,21.36,15,20.83,15.88S343.48,690.62,343,691.54s21.6,14.62,21.08,15.54-23.73-10.84-24.24-9.92,21.73,14.43,21.22,15.35-23.83-10.62-24.34-9.7,22.22,13.62,21.82,14.41-24.12-9.89-24.5-9.09,22.75,12.7,22.38,13.5S332,712.5,331.6,713.31s23.07,12.11,22.72,12.92-24.59-8.64-24.94-7.82,23.25,11.78,22.9,12.6-24.65-8.44-25-7.62,23.27,11.73,22.93,12.55-24.62-8.55-25-7.73,23.15,12,22.79,12.8-24.46-9-24.83-8.16,22.86,12.53,22.48,13.33-24.18-9.69-24.57-8.89,22.4,13.33,22,14.12-23.76-10.67-24.19-9.89,21.77,14.34,21.32,15.11S317,744.78,316.57,745.54s21,15.5,20.47,16.24-22.47-13.15-23-12.42,19.81,17,19.28,17.69c-.14.13-19.65-17-19.78-16.87s18,18.74,17.9,18.87S313,750.69,312.9,750.82s17.66,19.09,17.52,19.21-17.88-18.87-18-18.74,16.92,19.74,16.78,19.86-16.95-19.71-17.09-19.59,15.71,20.72,15.56,20.83S312.18,751.5,312,751.6s13.83,22,13.67,22.12-13.18-22.4-13.34-22.31,11,23.56,10.8,23.64-9.77-24.07-9.94-24,6.86,25.06,6.68,25.1-5.07-25.45-5.25-25.43,1.6,25.93,1.42,25.93.5-25.95.32-26-4,25.66-4.22,25.62S318.1,751,317.92,751s-9,24.38-9.16,24.31,11-23.46,10.86-23.54-14.25,21.71-14.4,21.6,14.83-21.35,14.69-21.46-15.85,20.62-16,20.51,15.69-20.74,15.55-20.85-16.64,20-16.78,19.87,16.45-20.14,16.31-20.26-17.35,19.38-17.48,19.26,17.14-19.55,17-19.67-18,18.75-18.14,18.63,17.8-19,17.67-19.07-18.63,18.13-18.76,18S317.72,750,317.6,749.84s-19.24,17.48-19.37,17.35,19.06-17.69,18.94-17.83-19.84,16.81-20,16.68,19.67-17,19.55-17.15S296.33,765,296.22,764.83s20.29-16.26,20.18-16.4-21,15.27-21.16,15.13,20.94-15.42,20.83-15.57-22.58,12.77-22.68,12.62c-.42-.94,22.93-12.43,22.54-13.39s-25,7.5-25.36,6.53,23.83-10.55,23.51-11.53S288.64,748,288.34,747s24.47-9,24.21-10-25.76,4.2-26,3.2,25-7.48,24.77-8.49-26,2.68-26.13,1.66,25.36-6,25.21-7.07-26.06,1.27-26.18.24,25.63-4.73,25.54-5.76-26.09,0-26.16-1.05,25.83-3.52,25.78-4.56-26.06-1.17-26.09-2.2,26-2.44,25.95-3.48-26-2.2-26-3.23,26-1.48,26.06-2.51-25.9-3.11-25.85-4.14,26.07-.62,26.13-1.66-25.79-3.89-25.71-4.92,26,.41,26.13-.62c.28-2.25-25.14-8-24.78-10.25s26.34.17,26.78-2-24.46-10-23.94-12.18,26.26,2.12,26.86,0S291.3,656.15,292,654s26,4.11,26.79,2S296.1,642.43,297,640.34s25.63,6.11,26.56,4.06S302,629.11,303,627.1s25.07,8.08,26.16,6.1-20.3-16.91-19.14-18.85,24.37,10,25.61,8.12S316.65,604,318,602.19s23.52,11.86,24.9,10.07-17.47-19.83-16-21.56,22.56,13.61,24.07,11.93S335,581.54,336.57,579.92s21.48,15.26,23.12,13.69-14.34-22.2-12.64-23.7,20.31,16.77,22.06,15.33-12.69-23.19-10.89-24.57c2.93-2.23,21,16.8,24,14.78s-7.46-26.07-4.28-27.9,18.63,19.4,21.92,17.78-4.05-26.81-.66-28.21,16,21.62,19.45,20.44-.56-27.11,3-28.06,13,23.52,16.63,22.8,3-26.95,6.65-27.43,9.77,25,13.42,24.83,6.69-26.29,10.35-26.26,6.14,26.16,9.79,26.47,10.43-25,14.05-24.48,2.15,26.78,5.72,27.63,14.17-23.14,17.66-22-2.15,26.76,1.24,28.19,17.77-20.52,21-18.81-6.61,26-3.5,28,21-17.21,23.92-15-11,24.49-8.24,27,23.59-13.4,26.11-10.67-14.9,22.32-12.6,25.25c0,0,19.09-17.53,19.13-17.49S566,597.13,566,597.17s16.42-20.15,16.47-20.12-15.36,21-15.31,21,14.68-21.45,14.73-21.42-13.68,22.11-13.63,22.14,13.15-22.42,13.2-22.39-12.35,22.87-12.3,22.9,12.11-23,12.16-23-11.63,23.25-11.58,23.28,11.76-23.19,11.81-23.17-11.66,23.24-11.61,23.27,12.15-23,12.2-23-12.42,22.84-12.37,22.87S583,577.21,583,577.24s-13.75,22.06-13.71,22.09,14.74-21.41,14.79-21.38-15.39,20.95-15.35,21,16.43-20.15,16.47-20.12-17.09,19.59-17,19.63,19.59-16.85,19.64-16.81c.45.68-20.71,15.82-20.27,16.49s22.74-12.71,23.18-12S569.61,601.32,570,602s23-12.2,23.44-11.51S572,605.21,572.4,605.91,595.72,594.3,596.12,595s-21.88,14.13-21.49,14.83,23.64-11,24-10.23-22.28,13.48-21.91,14.2,24-10.24,24.32-9.52-22.69,12.8-22.34,13.53,24.27-9.49,24.61-8.75-23.09,12.06-22.76,12.81,24.56-8.71,24.87-8S582,625.22,582.28,626s24.83-7.91,25.12-7.15-23.81,10.55-23.54,11.31,25.07-7.11,25.33-6.34-24.13,9.8-23.87,10.57,25.27-6.34,25.51-5.56-24.53,8.63-24.3,9.42,25.68-4.24,25.86-3.39-25.09,7-24.92,7.87,25.84-3.41,26-2.55-25.2,6.62-25,7.47,25.88-3,26-2.17-25.29,6.28-25.14,7.14,25.92-2.71,26.06-1.85-25.35,6-25.21,6.85,25.94-2.45,26.08-1.59-25.41,5.78-25.27,6.64,26-2.26,26.09-1.4-25.44,5.62-25.32,6.48,26-2.14,26.1-1.28-25.46,5.54-25.33,6.4,26-2.09,26.1-1.23-25.47,5.51-25.34,6.38,26-2.1,26.1-1.24-25.46,5.56-25.33,6.43,26-2.18,26.1-1.32-25.44,5.67-25.3,6.53,26-2.17,26.11-1.31c0,.06-25.78,3.49-25.77,3.55s25.63-4.13,25.65-4.07-25.07,6.8-25.05,6.86,24.49-8.66,24.51-8.61-23.73,10.61-23.7,10.66,23.14-11.83,23.17-11.78S597.41,696.93,597.44,697s21.89-14,21.92-14-21.21,15-21.17,15.08,20.85-15.52,20.89-15.48-20.28,16.27-20.25,16.31,20-16.55,20.09-16.51-19.56,17.13-19.53,17.17,19.43-17.28,19.47-17.23-19,17.72-19,17.76,19-17.77,19-17.73-18.64,18.12-18.6,18.17S619,682.46,619,682.5s-18.41,18.36-18.37,18.4,18.51-18.26,18.55-18.21S597.92,696.57,598,696.62c.18.56,24.62-8.3,24.84-7.75s-23.44,11.33-23.19,11.86,23.81-10.45,24.08-9.93-22.08,13.79-21.78,14.29,22.57-12.91,22.9-12.42-20.53,16-20.18,16.48,21.13-15.16,21.5-14.71-18.8,18-18.4,18.44,19.5-17.2,19.93-16.79-16.93,19.78-16.49,20.18,17.72-19,18.17-18.67-14.9,21.35-14.43,21.69,15.77-20.68,16.27-20.35-12.75,22.7-12.24,23,13.65-22.13,14.18-21.86-10.42,23.86-9.89,24.11,11.35-23.4,11.9-23.18-7.92,24.8-7.36,25,8.85-24.45,9.42-24.29-5.24,25.5-4.67,25.63S638.38,702,639,702.13c.43,0-2.15,25.9-1.72,25.94s2.93-25.84,3.36-25.81-.68,26-.25,26,1.9-25.94,2.33-25.93.32,26,.76,26,.91-26,1.34-26,1.29,26,1.72,26,0-26,.41-26,2.19,25.93,2.62,25.9-.9-26-.47-26,3,25.84,3.47,25.8-1.72-26-1.29-26,3.83,25.74,4.25,25.68-2.48-25.89-2-25.95,4.55,25.62,5,25.56-3.18-25.82-2.75-25.89,5.21,25.49,5.64,25.41-3.82-25.72-3.4-25.8,5.81,25.35,6.24,25.27-4.4-25.64-4-25.73,6.84,25.11,7.26,25-6.29-25.25-5.84-25.39,8.91,24.44,9.36,24.3-7.44-24.93-7-25.09,9.62,24.18,10.07,24-8.2-24.69-7.76-24.86,10.38,23.86,10.82,23.68-9-24.41-8.55-24.59,11.14,23.51,11.58,23.32-9.77-24.11-9.34-24.3,11.89,23.14,12.32,22.93-10.54-23.78-10.11-24,12.61,22.76,13,22.54-11.27-23.45-10.85-23.67,13.29,22.37,13.71,22.14-11.94-23.12-11.52-23.36,13.89,22,14.31,21.76-12.54-22.79-12.13-23,14.43,21.65,14.84,21.39-13.07-22.49-12.66-22.75,14.9,21.33,15.31,21.06-14-21.88-13.61-22.15c2.63-2,21.3,16.39,23.74,14.31s-12.55-23.56-10.23-25.8,23.3,13.44,25.46,11.05-15.55-21.69-13.55-24.23,24.87,10.24,26.7,7.58S717.27,653,718.93,650.19s26,7,27.45,4.07-20.58-17-19.27-20,26.61,3.79,27.75.74-22.41-14.53-21.44-17.64,26.85.87,27.66-2.28S737.29,602.94,738,599.75s26.8-1.72,27.31-4.94-24.8-9.95-24.43-13.19,26.56-4,26.8-7.24-25.52-8-25.4-11.21,26.18-5.95,26.19-9.21-26-6.16-26.12-9.41,25.73-7.67,25.53-10.91-26.36-4.55-26.65-7.78,25.23-9.14,24.85-12.36c0,0-25.86.22-25.85.18s25.69,3.73,25.69,3.7-25-7-25-7,23.75,10.38,23.77,10.35S743,506.46,743,506.43s19.13,17.48,19.16,17.45-16.08-20.34-16.05-20.37,13.32,22.27,13.35,22.25S748.94,502,749,502s8.5,24.55,8.53,24.53S751,501.41,751,501.4s5.19,25.47,5.23,25.46-3.81-25.71-3.77-25.72,3,25.83,3,25.82-2-25.92-2-25.92S755.05,527,755.09,527s-.89-26-.85-26,.67,26,.71,26-.22-26-.17-26,.19,26,.24,26,.06-26,.1-26v0C761.62,501,768.12,514,768.12,514Z" transform="translate(0.22 1.3)"/><path class="cls-8" d="M443.36,375.54c1.35-.1,4.1,25.79,5.46,25.74s2.2-26.07,3.55-26.07,2.3,26,3.66,26.06,4-25.85,5.37-25.76.46,26.11,1.8,26.25,5.86-25.5,7.2-25.31-1.44,26.07-.11,26.31,7.74-25,9.06-24.7-3.41,25.88-2.1,26.22,9.65-24.32,10.94-23.93-5.45,25.54-4.18,26,11.61-23.45,12.86-22.95-7.58,25-6.34,25.53,13.59-22.36,14.8-21.75-9.78,24.2-8.6,24.86,15.58-21,16.73-20.3-12,23.17-10.9,23.94,17.54-19.42,18.61-18.59S506.92,418.94,508,419.82s19.4-17.55,20.39-16.62-16.48,20.21-15.55,21.2c.47.51,20.2-16.43,20.65-15.91s-18.82,18-18.38,18.51,20.95-15.48,21.38-14.94-19.54,17.19-19.12,17.73,21.6-14.55,22-14S519,432.08,519.42,432.64s22.27-13.51,22.65-12.93S521,435,521.35,435.55s22.93-12.36,23.28-11.76-21.85,14.13-21.52,14.73S546.67,427.42,547,428s-22.6,12.9-22.3,13.52,24.14-9.76,24.43-9.13-23.3,11.59-23,12.23,24.67-8.37,24.91-7.72-23.92,10.23-23.69,10.89,25.1-6.94,25.31-6.28-24.47,8.85-24.28,9.52,25.45-5.51,25.63-4.83-24.93,7.46-24.78,8.14,25.78-3.76,25.92-3.08c0,.38-25.64,4.44-25.59,4.82s25.93-2,26-1.64-25.81,3.23-25.77,3.61,26-1.4,26-1-25.87,2.62-25.85,3,26-.78,26-.4S530,461.66,530,462s26-.17,26,.22-26,1.38-26,1.76,26,.46,26,.84-26,.76-26,1.14,26,1.08,26,1.46-26,.14-26,.52,26,1.7,25.94,2.08-26-.48-26-.1,25.91,2.31,25.88,2.69-26-1.09-26-.71,25.85,2.92,25.81,3.31-26-1.71-26-1.33,25.77,3.53,25.73,3.91-25.75-3.24-25.8-2.86c-.14.55,25,7,24.89,7.53s-25.39-5.73-25.54-5.18,24.71,8.18,24.55,8.72-25.28-6.15-25.44-5.61,24.61,8.44,24.45,9-25.26-6.27-25.42-5.72,24.64,8.38,24.48,8.93-25.32-6-25.47-5.49,24.77,8,24.62,8.52-25.45-5.44-25.59-4.89,25,7.21,24.87,7.76-25.65-4.45-25.76-3.9,25.3,6,25.2,6.6-25.85-3.06-25.93-2.5,25.62,4.46,25.56,5-26-1.24-26-.68,25.89,2.46,25.87,3-26,.95-26,1.52,26,.1,26,.67-25.8,3.44-25.73,4,25.85-2.63,26-2.07c.13.73-25.17,6.68-25,7.4s25.54-5,25.73-4.29-24.45,9-24.23,9.67,25-7.27,25.25-6.58-23.55,11.15-23.25,11.82,24.21-9.51,24.53-8.85S529.69,532.65,530,533.3s23.24-11.7,23.63-11.07S532.54,537.48,533,538.09s22.1-13.74,22.53-13.15S535.8,542,536.26,542.58s20.81-15.62,21.3-15.07-18.16,18.68-17.65,19.21,19.44-17.3,20-16.78-16.59,20.08-16,20.57,18-18.77,18.6-18.29S547.42,553.5,548,554s16.6-20,17.21-19.61-13.49,22.29-12.87,22.7,15.2-21.13,15.84-20.74S556.5,559.59,557.14,560c1.25.65,14.06-22,15.32-21.44s-7.69,25-6.4,25.54,11.65-23.37,13-22.92-5.17,25.66-3.84,26.05,9.27-24.41,10.62-24.09-2.58,26-1.21,26.3,6.76-25.22,8.14-25,0,26.18,1.43,26.29,4.22-25.76,5.61-25.72,2.63,26,4,26,1.67-26.05,3.06-26.14,5.15,25.66,6.54,25.5-.86-26.1.51-26.32,7.58,25,8.94,24.76-3.31-25.9-2-26.26,9.87,24.25,11.2,23.83-5.67-25.49-4.36-26,12,23.25,13.31,22.71-7.92-24.88-6.65-25.47,14,22.1,15.25,21.45-10.19-24-9-24.71c0-.05,14.5,21.51,14.55,21.47s-13.89-21.91-13.84-21.94,11.13,23.44,11.19,23.42-8.1-24.68-8-24.7,6,25.28,6,25.27-3.79-25.71-3.72-25.72S649.42,558,649.49,558s-1.23-26-1.16-26,.75,26,.81,26,0-26,0-26,.17,26,.23,26,0-26,0-26,.75,26,.82,26-1.23-26-1.16-26,2.6,25.87,2.67,25.86-3.84-25.7-3.77-25.71,6,25.26,6.1,25.25-8.16-24.65-8.1-24.67,11.18,23.42,11.24,23.39-13.93-21.87-13.88-21.92,14.23,21.68,14.28,21.64c1.93-1.06-9.26-24.62-7.4-25.74s17.7,19.59,19.51,18.38-11.34-23.74-9.59-25,19.4,17.91,21.09,16.54S667.78,517.4,669.41,516s21,16.08,22.52,14.56-15.46-21.3-14-22.89,22.31,14.13,23.74,12.47-17.3-19.83-16-21.55,23.46,12.11,24.73,10.34-18.94-18.27-17.74-20.1,24.4,10.09,25.52,8.21-20.39-16.64-19.34-18.56,25.13,8.1,26.1,6.13-21.63-15-20.74-17,25.67,6.16,26.49,4.13-22.68-13.36-21.94-15.42,26,4.31,26.72,2.22-23.56-11.74-23-13.85,26.28,2.54,26.81.41-24.26-10.27-23.79-12.41c0-.15,25.15,6.54,25.2,6.38s-24.67-8.2-24.62-8.36,24.93,7.4,25,7.24-24.78-7.88-24.73-8,25,7.13,25,7-24.85-7.67-24.8-7.83,25,7,25.1,6.8-24.89-7.54-24.84-7.69S742,435,742.07,434.82s-24.9-7.47-24.85-7.63,25.09,6.83,25.13,6.67-24.9-7.48-24.86-7.64,25.08,6.86,25.13,6.7-24.89-7.54-24.84-7.7,25.06,6.95,25.1,6.79-24.84-7.67-24.8-7.83,25,7.13,25.06,7-24.78-7.89-24.73-8,24.93,7.39,25,7.23-24.67-8.21-24.62-8.37S744,428.24,744,428.08c.14-.77-25.3-6.25-25.17-7s25.92,2.6,26,1.83-25.46-5.44-25.35-6.21,26,2.08,26.07,1.31-25.57-4.92-25.48-5.69,26,1.54,26.1.77-25.68-4.37-25.6-5.15,26,1,26.11.2-25.76-3.8-25.7-4.58,26.05.4,26.1-.38-25.84-3.22-25.8-4,26-.2,26.09-1-25.91-2.61-25.88-3.39,26-.82,26.05-1.6-26-2-26-2.77,26-1.45,26-2.23-26-1.36-26-2.14,26-2.08,25.94-2.86-26-.73-26.06-1.51,25.91-2.71,25.87-3.49-26,0-26.08-.82,25.82-3.27,25.77-3.92-26,1-26.07.39,25.73-4,25.66-4.61-26,1.61-26.06,1,25.66-4.45,25.57-5.1-26,2-26,1.39,25.58-4.81,25.49-5.46-25.92,2.34-26,1.69,25.55-5,25.45-5.68-25.91,2.49-26,1.84,25.53-5.1,25.43-5.75-25.91,2.49-26,1.84,25.55-5,25.45-5.67-25.93,2.34-26,1.69,25.59-4.81,25.5-5.46-26,2.05-26,1.4,25.65-4.45,25.57-5.1-26,1.61-26.05,1,25.72-3.95,25.66-4.6-26,1-26.07.39,1.72,4.32,1.67,3.66c.58,1.53,24.56-7.85,25.08-6.31S719.52,347,720,348.54s25.91-4.09,26.33-2.53-24.35,9.61-24,11.19,26.1-2.54,26.44-.95-24.88,8.16-24.59,9.76,26.2-1.05,26.45.56-25.29,6.76-25.09,8.38,26.22.38,26.37,2-25.62,5.4-25.5,7,26.16,1.74,26.23,3.37-25.85,4.1-25.82,5.72,26,3,26,4.67-26,2.85-26.07,4.47,25.87,4.25,25.79,5.88-26.13,1.66-26.25,3.28,25.66,5.4,25.5,7-26.17.53-26.36,2.15,25.41,6.46,25.19,8.08-26.18-.54-26.43,1.06,25.15,7.33,24.87,8.93c-.19,1.28-26-1.65-26.26-.38s25.2,7,25,8.22-26-2.3-26.26-1,24.94,7.82,24.66,9.08-25.91-3.25-26.21-2,24.62,8.78,24.3,10-25.76-4.3-26.11-3.06,24.23,9.82,23.85,11-25.54-5.44-25.94-4.22,23.74,10.93,23.31,12.15-25.25-6.67-25.71-5.46,23.18,12.09,22.68,13.28-24.87-7.94-25.4-6.76,22.52,13.28,22,14.44-24.42-9.23-25-8.08,21.78,14.46,21.16,15.59-23.88-10.55-24.54-9.43,21,15.63,20.28,16.73-23.27-11.84-24-10.75,20.08,16.73,19.33,17.8-22.55-13.14-23.32-12.09c0,0,20.24,16.29,20.2,16.32s-20.6-15.82-20.63-15.78,21.9,14,21.88,14S695,506.82,695,506.86s24.3,9.15,24.28,9.2-25.15-6.47-25.16-6.42,25.59,4.42,25.59,4.47-25.88-2.37-25.89-2.32,26,1.23,26,1.28-26-.21-26-.16,26,.17,26,.22-26-.27-26-.22,26,1.33,26,1.39-25.86-2.52-25.87-2.46,25.57,4.58,25.56,4.63-25.11-6.63-25.12-6.58,24.25,9.29,24.23,9.33-23.25-11.56-23.27-11.52,21.86,14,21.82,14.07S696.54,505.92,696.5,506,717.06,521.8,717,521.84c-1.74,2.57-24.63-10.13-26.51-7.66s16.37,21.23,14.35,23.58S681.49,525,679.35,527.22s13.89,22.93,11.62,25-21.78-15.32-24.16-13.34,11.18,24.36,8.69,26.2-19.86-17.74-22.45-16.06,8.21,25.53,5.52,27.05-17.54-20-20.32-18.68,4.92,26.36,2,27.53-14.75-22.16-17.69-21.19,1.28,26.79-1.73,27.55-11.44-24-14.49-23.49-2.7,26.7-5.79,27-7.61-25.47-10.71-25.43-6.89,25.94-10,25.73-3.34-26.37-6.42-26.84S562.38,592.71,559.34,592s1.13-26.56-1.84-27.54-15,22.24-17.89,21,5.56-26,2.77-27.44c0,0-15.65,20.3-15.69,20.26s19.22-17.51,19.19-17.54S526,577.47,526,577.44s20.29-16.25,20.27-16.29-20.89,15.48-20.92,15.44,21.19-15.06,21.16-15.1-21.64,14.4-21.67,14.37,21.81-14.17,21.78-14.21-22.08,13.73-22.1,13.69,22-13.78,22-13.82-22.09,13.72-22.11,13.68,21.75-14.24,21.73-14.28-21.38,14.79-21.41,14.75,20.44-16,20.41-16.09S525.88,577,525.84,577,543,557.51,543,557.48s-14.59,21.44-14.63,21.41,11.17-23.4,11.13-23.41-7.81,24.72-7.86,24.71,4.3-25.59,4.25-25.6-6.87,24.76-6.92,24.76c-1-.48,9.54-24.27,8.57-24.79s-14.81,21.51-15.75,20.94,12.07-23.1,11.15-23.71-16.81,20-17.69,19.32,14.21-21.84,13.36-22.54S510,566.89,509.13,566.16s16.16-20.46,15.37-21.23-20.16,16.59-20.92,15.78,17.87-19,17.15-19.81-21.48,14.84-22.17,14,19.36-17.46,18.71-18.35-22.59,13.09-23.21,12.17,20.65-15.92,20.06-16.86-23.49,11.38-24,10.42,21.73-14.41,21.21-15.39-24.22,9.73-24.71,8.73,22.65-12.91,22.2-13.92-24.81,8.13-25.22,7.1,23.42-11.46,23-12.49-25.27,6.58-25.62,5.53,24.1-9.94,23.77-11c0-.18-25.23,6.21-25.27,6s25.32-5.9,25.28-6.09-25.58,4.67-25.62,4.48,25.52-5,25.48-5.21-25.71,3.89-25.74,3.7,25.64-4.34,25.61-4.53-25.79,3.31-25.82,3.12,25.71-3.87,25.69-4.07-25.83,3-25.86,2.78,25.75-3.65,25.72-3.84-25.84,2.85-25.87,2.66,25.75-3.65,25.72-3.84-25.83,3-25.85,2.78,25.71-3.88,25.68-4.07-25.79,3.32-25.81,3.12,25.63-4.33,25.6-4.52S478,507.19,478,507s25.52-5,25.48-5.21-25.57,4.68-25.61,4.49,25.32-5.9,25.28-6.09-25.69,3.93-25.73,3.74c-.05-.68,25.82-3.38,25.79-4.06s-26-.49-26.06-1.17,26-1.73,26-2.42-26-1.43-26-2.12,26-1,26-1.67-26-2-25.95-2.67,26-.61,26-1.3-25.94-2.17-25.92-2.86,26-.6,26-1.29-26-2-25.94-2.7,26-.94,26-1.63-26-1.49-26-2.18,26-1.64,26-2.32-26-.63-26.05-1.31,25.9-2.69,25.86-3.38-26,.62-26.08-.06,25.72-4.11,25.64-4.79-25.93,2.22-26,1.55S502.14,461.68,502,461s-25.68,4.17-25.83,3.5,24.7-8.28,24.51-8.94c-.06-.11-24.46,8.79-24.52,8.67s24-9.89,24-10-24.57,8.5-24.62,8.38,24.6-8.41,24.56-8.54-24.85,7.63-24.89,7.5,24.72-8.07,24.68-8.19S475.07,461.13,475,461s24.53-8.62,24.48-8.74S475,461,475,460.82s24-9.91,24-10S475.09,461.09,475,461s23.18-11.78,23.12-11.9-22.84,12.41-22.91,12.29,21.89-14,21.82-14.13S475.68,462,475.6,461.92s20.18-16.4,20.09-16.5-19.52,17.15-19.61,17.06,18.11-18.64,18-18.74S476.7,463.05,476.6,463s15.89-20.57,15.78-20.65-18.8,17.47-18.91,17.4,23.82-7.25,23.82-7.3-26,0-26-.09,26-.05,26-.09-26-.05-26-.1,26,0,26-.09-26-.05-26-.09,26-.05,26-.1-26,0-26-.09,26-.05,26-.09-26-.05-26-.1,26-.05,26-.1-26,0-26-.09,26-.05,26-.09-26-.05-26-.1,26,0,26-.09-26-.05-26-.1,26-.05,26-.1-26,0-26-.09,26-.05,26-.1-26,0-26-.1,24.19-6.72,24.16-6.76-20.94,15.25-21.09,15.09,18.91-17.85,18.76-18-19.9,16.74-20,16.57,19.69-17,19.56-17.14-20.5,16-20.63,15.83,20.15-16.43,20-16.6S471.23,455.2,471.1,455s20.33-16.21,20.2-16.38-20.84,15.55-21,15.38,20.24-16.32,20.11-16.49-20.64,15.81-20.78,15.64,19.92-16.71,19.79-16.87-20.22,16.34-20.36,16.18,19.36-17.36,19.22-17.52-19.56,17.13-19.71,17,18.57-18.21,18.42-18.37-18.68,18.09-18.84,17.94,17.54-19.21,17.38-19.35-17.58,19.15-17.74,19,16.3-20.26,16.13-20.4-15.4,20.88-15.57,20.75,6.84-24,6.81-24-.07,26-.1,26-.06-26-.09-26-.07,26-.1,26-.07-26-.1-26-.07,26-.1,26-.07-26-.1-26-.07,26-.1,26-.06-26-.09-26-.07,26-.1,26-.06-26-.09-26-.06,26-.09,26-.06-26-.09-26-.06,26-.09,26-.06-26-.1-26-.05,26-.08,26-.06-26-.09-26-.07,26-.1,26-.06-26-.09-26-.07,26-.1,26,7-23.93,6.94-23.93c-1.68-1.11-16.61,20.24-18.33,19.31s7.76-25.2,6-26-12.82,22.83-14.69,22.23,3-26.2,1.07-26.62-8.33,24.82-10.28,24.58-1.89-26.3-3.87-26.37-3.72,25.93-5.69,26-6.4-25.57-8.36-25.31.59,26.2-1.35,26.62-10.26-24.27-12.17-23.71,4.38,25.85,2.52,26.54-13.45-22.65-15.27-21.85,7.64,25.1,5.87,26S389.68,430.2,388,431.21s10.44,24.08,8.79,25.18-18.24-19-19.83-17.83,12.89,22.86,11.36,24.12S368.23,445.62,366.76,447s15.09,21.48,13.7,22.88-21.65-15-23-13.53,17.26,19.71,16,21.24c0,0-23.22-8-23.22-7.91s26,.28,26,.33-26-.35-26-.3,26,1,26,1-26-1.33-26-1.28,25.9,2.23,25.9,2.28-25.84-2.84-25.85-2.79,25.69,4,25.68,4-25.54-4.83-25.55-4.78,25.25,6.16,25.24,6.21-25-7.16-25-7.11,24.53,8.6,24.51,8.64-24.13-9.65-24.15-9.6,23.51,11.09,23.49,11.13-23-12.12-23-12.07,22.23,13.46,22.21,13.51-21.66-14.38-21.69-14.33,20.84,15.54,20.8,15.58-20.24-16.31-20.27-16.27S372,481.17,372,481.21s-19.8-16.83-19.84-16.79S372.33,480.78,372.2,481s-20.84-15.57-21-15.39,20.11,16.48,20,16.66-20.54-16-20.68-15.77,19.84,16.81,19.7,17-20.31-16.24-20.45-16.07,19.63,17.06,19.48,17.23S349.12,468.14,349,468.31s19.5,17.21,19.35,17.39-20.05-16.57-20.19-16.4,19.45,17.26,19.3,17.43-20.05-16.56-20.19-16.39,19.49,17.21,19.35,17.38-20.14-16.46-20.28-16.28,19.63,17.05,19.49,17.22-20.31-16.25-20.45-16.07,19.85,16.8,19.7,17-20.54-15.95-20.68-15.77,20.12,16.47,20,16.65-20.83-15.57-21-15.39S364.12,490.72,364,490.9c-.28.43-22.12-13.68-22.4-13.26s21.24,15,21,15.45-22.45-13.16-22.72-12.73S361.31,495,361,495.47s-22.67-12.78-22.93-12.35,21.73,14.31,21.47,14.75-22.89-12.38-23.15-11.95,22,13.91,21.74,14.35-23.12-11.94-23.37-11.5,22.25,13.48,22,13.92-23.35-11.48-23.59-11,22.52,13,22.29,13.47-23.59-11-23.81-10.54,22.79,12.54,22.57,13-23.82-10.48-24-10,23.06,12,22.85,12.49-24-9.95-24.25-9.49,23.32,11.52,23.12,12-24.26-9.41-24.46-8.95,23.58,11,23.39,11.46-24.47-8.85-24.66-8.38c-.38.95,23.45,11.4,23.08,12.35s-25-7.3-25.4-6.34,23.71,10.87,23.36,11.83-25.18-6.82-25.52-5.86,23.87,10.5,23.54,11.47S320,523.6,319.7,524.57s23.95,10.31,23.62,11.27-25.28-6.4-25.61-5.43,24,10.28,23.65,11.25-25.27-6.47-25.6-5.5,23.91,10.42,23.57,11.39-25.19-6.72-25.54-5.75,23.77,10.74,23.42,11.7-25.08-7.14-25.44-6.18,23.54,11.24,23.17,12.19-24.89-7.76-25.28-6.81,23.22,11.9,22.82,12.84-24.63-8.54-25.05-7.61,22.78,12.71,22.35,13.64S305.5,562.08,305,563s22,14,21.55,14.93c-.08.09-20.27-15.82-20.36-15.74s17,19.69,16.89,19.76-16.52-20.06-16.61-20,15.28,21,15.18,21.11-14.8-21.38-14.9-21.31,13.47,22.24,13.36,22.3-12.93-22.54-13-22.49,11.51,23.31,11.4,23.37-10.9-23.6-11-23.55,9.34,24.26,9.23,24.3S308.1,561.16,308,561.2s6.87,25.07,6.75,25.1-6-25.29-6.1-25.27,4,25.69,3.9,25.7-2.89-25.82-3-25.81.63,26,.51,26,.81-26,.69-26-3.41,25.75-3.53,25.73,5.2-25.44,5.08-25.47-8.09,24.68-8.2,24.64,12.81-22.11,12.7-22.17c-.29-.29-18.61,18.08-18.89,17.79s18.91-17.85,18.64-18.16-20.64,15.83-20.89,15.51,20.26-16.29,20-16.62-21.82,14.16-22,13.83,21.46-14.68,21.25-15-22.84,12.46-23,12.11,22.5-13,22.31-13.4-23.68,10.77-23.85,10.41,23.36-11.43,23.2-11.8-24.36,9.14-24.51,8.76,24.06-9.86,23.93-10.25-24.89,7.58-25,7.2,24.61-8.38,24.5-8.78S287.11,561.36,287,561s25.05-7,24.95-7.38-25.57,4.75-25.65,4.35,25.37-5.7,25.3-6.1-25.78,3.49-25.85,3.09,25.62-4.51,25.56-4.91-25.84,2.85-25.88,2.45c-.19-1.1,25.36-6,25.2-7.11s-26.07,1.25-26.21.15,25.58-5.08,25.47-6.18-26.1.08-26.19-1,25.79-3.91,25.73-5-26.09-1.12-26.12-2.22,25.94-2.7,25.93-3.81-26-2.35-26-3.46,26-1.47,26.09-2.57-25.86-3.58-25.79-4.69,26.08-.23,26.17-1.33-25.66-4.8-25.54-5.9,26.07,1,26.21-.12-25.41-5.95-25.24-7.05,26,2.15,26.19,1.05-25.13-7.06-24.91-8.14,25.88,3.25,26.12,2.16S287.75,489.11,288,488s25.73,4.28,26,3.21-24.49-9-24.18-10.11,25.49,5.42,25.81,4.36c.1-.24-24.33-9.09-24.24-9.33S316,484.8,316,484.57s-24.31-9.26-24.22-9.49,24.74,8,24.82,7.76-24.5-8.69-24.43-8.93,24.9,7.51,25,7.27-24.65-8.28-24.58-8.52,25,7.18,25.07,6.94-24.73-8-24.66-8.28,25,7,25.11,6.78-24.75-8-24.68-8.2,25,7,25.11,6.78-24.73-8-24.66-8.28,25,7.18,25.07,6.94-24.65-8.29-24.57-8.53,24.89,7.53,25,7.29-24.51-8.7-24.43-8.94,24.74,8,24.82,7.77-24.3-9.25-24.22-9.48,24.53,8.64,24.62,8.4-24-9.94-23.94-10.17,24.26,9.36,24.36,9.12-23.71-10.69-23.6-10.93,24,10,24.09,9.79-23.44-11.26-23.33-11.5,23.77,10.54,23.89,10.3-23.24-11.68-23.13-11.91,23.62,10.88,23.74,10.65-23.1-11.95-23-12.18,23.53,11.08,23.64,10.85-23-12.08-22.91-12.32,23.49,11.16,23.61,10.92-23-12.08-22.91-12.31S324.2,463.24,324.32,463s-23.1-11.95-23-12.19,23.62,10.89,23.73,10.65S301.84,449.79,302,449.55s23.78,10.54,23.89,10.3-23.44-11.26-23.33-11.5,24,10,24.09,9.79-23.7-10.68-23.6-10.93,23.75,10.5,23.84,10.25c.66-1.22-21.57-14.74-20.9-15.95s24,10.44,24.66,9.23-21-15.67-20.23-16.86,23.55,11.34,24.3,10.16-20.28-16.53-19.51-17.68,23,12.39,23.8,11.26-19.43-17.53-18.6-18.64,22.29,13.62,23.15,12.54-18.36-18.65-17.46-19.71,21.37,15,22.31,14S331.31,405.94,332.28,405s20.21,16.53,21.22,15.58-15.45-21.13-14.4-22,18.77,18.14,19.86,17.27-13.56-22.38-12.43-23.2,17,19.77,18.21,19S353.35,388,354.55,387.29s15,21.34,16.28,20.69-9-24.58-7.74-25.16,12.83,22.73,14.13,22.21-6.37-25.4-5-25.86c.9-.28,9.15,24.38,10.06,24.15s-4-25.78-3.07-26,6.42,25.24,7.34,25.09-1.53-26-.59-26.14S390.14,402,391.08,402s.46-26.08,1.4-26.11,2.49,25.93,3.44,25.92,1.94-26,2.88-26,1.27,26,2.22,26.06,2.9-25.91,3.84-25.87.56,26.06,1.5,26.12,3.37-25.85,4.31-25.8.33,26.07,1.27,26.13,3.37-25.85,4.31-25.8.56,26.07,1.5,26.11,2.92-25.89,3.86-25.86,1.25,26,2.2,26.06,2-26,2.93-26,2.41,26,3.35,25.94.6-26,1.54-26.11S436,402.49,437,402.4c.14,0-5.17-25.42-5-25.47s7.49,24.9,7.63,24.86-6.28-25.23-6.14-25.27,6.21,25.25,6.35,25.22-5-25.51-4.88-25.54,5,25.51,5.13,25.49S436.16,376,436.31,376s3.89,25.71,4,25.69-2.82-25.85-2.68-25.86,2.92,25.83,3.07,25.82-1.92-25.93-1.77-25.94,2.09,25.91,2.23,25.9-1.16-26-1-26,1.42,26,1.56,26-.56-26-.42-26,.9,26,1.05,26-.13-26,0-26,.54,26,.68,26,.16-26,.3-26,.34,26,.49,26,.27-26,.42-26v26l-13-12.08C430.86,383,443.36,375.54,443.36,375.54Z" transform="translate(0.22 1.3)"/><path class="cls-6" d="M794.41,375.66c-5.2,4-38.53,7,4.77,11-42.13,1,2.58,2-58.62,3,64.15,1,12.46,3,17.59,4,18.37,5-1.14,9,41.85,14-4.08,18-5,35-6.49,53-38.9,9,.37,17,1.46,26,4.81,23-54.07,43-36.54,62-20.21,2,2,3,33.08,5-72.08,28-41.39,48-103.28,60-7.15,16-91.71,6-101.35-34-12.24-3,17-6-28.24-9,28.91-5,61.59-9,61.1-14-59.28-8-32.23-17-56.88-25-9.27-2,12.19-3,25.06-5-4-1-34.7-3-43.14-5,28.17-15-39.3-7-10.48,5-10.13,22-84.15,51-43.2,84,2.65,3-22.42,8-4.51,7-43-2-63.85-11-43.73-17,41.52-19-27.72-38,5.11-57,8.17-29,34.58-54,45.89-79,54.61-67,59.94-87,161.49-35-37,2-15.72,4,13.26,5-53.12,1-43.62,2-48.84,3,47.52,1-4.73,1,29.9,2-26.78,2-5.64,4-17.59,6-18.85,1-5.09,1,45.69,2,10.93,15-24.1,30-13,48-5.66,17-10.23,35,27.53,50-41.78,3-11.8,6-49.71,9,47.49,3,30.22,4,30,5,39.43,4,70.88-16,110.59-41-48.54-16-32-31,7.12-49-56.56-9-17.69-18-15.15-28-15.89-23,5.94-45-14.53-67,31-1-18.89,2-10.4,1Z" transform="translate(0.22 1.3)"/><path class="cls-2" d="M782.8,406.66c12.6,14,5.54,30,17.2,45-3.92,10-13,20-29.09,31,2.9,14-44.44,27,12.82,40-58.77,32-78.36,59-67.89,77-66.94,23-60.68,29-132.36,2-3.91-10-16.38-22,19.18-37-37.16-20,10.1-42,5.76-64-43.55-13-8.66-22-21.6-27,6.74-5-12.49-4-84.75,2,54.64,7,47.25,15-7.19,27-29.69,10,33.45,20-25.22,30-6.39,3,50.74,6,1.38,8-17.38,6,19.93,13,19.6,19-28.95,4-50.15,12,8.67,7-23.73-10-25.79-24-34.46-36-16.78-24-19.84-45,25.32-66,22.48-22,32.37-38-11.37-51,57-2,17.58-5,39.33-6-22-2,35.43-6-15.48-8,30.08-1,39.78-4,48.19-5,4.53-1,3.84-1,43.49-2-54,0,12.56,1-37.45,4h40.37c-11.56,8,17.6,24,76.16,51,4,4-17.3,9-50.62,13,45,5,36.29,10,39.62,16,27.32,1-4.66,3-14,4,41.57,18-8.73,37,40.44,56-44,9-13.65,17,10.6,21,5.13,1-7.67,2,12.49,3-28.85,7-11.82-13-9-36,46.49-34,65.89-77,90.59-119-7.76,0,6.06,0-12,1Z" transform="translate(0.22 1.3)"/><path class="cls-6" d="M783.73,254.54c-6.76,4-50.09,7,6.2,11-54.76,1,3.35,2-76.2,3,83.39,1,16.19,3,22.86,4,23.89,5-1.48,9,54.41,14-5.3,18-6.52,35-8.44,53-50.57,9,.48,17,1.9,26,6.26,23-70.29,43-47.51,62-26.27,2,2.64,3,43,5-93.72,28-53.81,48-134.28,60-9.3,16-119.24,6-131.77-34-15.92-3,22.14-6-36.71-9,37.59-5,80.08-9,79.44-14-77.07-8-41.91-17-73.95-25-12.05-2,15.84-3,32.57-5-5.23-1-45.11-3-56.08-5,36.62-15-51.1-7-13.63,5-13.17,22-109.41,51-56.17,84,3.45,3-29.15,8-5.85,7-55.92-2-83-11-56.86-17,54-19-36-38,6.64-57,10.63-29,45-54,59.67-79,71-67,77.92-87,210-35-48.1,2-20.43,4,17.24,5-69.07,1-56.71,2-63.49,3,61.77,1-6.16,1,38.87,2-34.82,2-7.34,4-22.87,6-24.51,1-6.62,1,59.39,2,14.22,15-31.33,30-16.9,48-7.36,17-13.3,35,35.8,50-54.31,3-15.34,6-64.62,9,61.73,3,39.27,4,39,5,51.25,4,92.14-16,143.78-41-63.11-16-41.61-31,9.25-49-73.53-9-23-18-19.69-28-20.67-23,7.71-45-18.9-67,40.37-1-24.55,2-13.52,1Z" transform="translate(0.22 1.3)"/><path class="cls-2" d="M776.62,285.54c16.89,14,7.43,30,23.07,45-5.26,10-17.51,20-39,31,3.88,14-59.6,27,17.18,40-78.8,32-105.08,59-91,77-89.78,23-81.38,29-177.52,2-5.24-10-22-22,25.73-37-49.84-20,13.54-42,7.73-64-58.42-13-11.61-22-29-27,9-5-16.74-4-113.65,2,73.27,7,63.36,15-9.64,27-39.82,10,44.86,20-33.82,30-8.58,3,68,6,1.84,8-23.3,6,26.73,13,26.3,19-38.84,4-67.26,12,11.62,7-31.83-10-34.58-24-46.22-36-22.5-24-26.6-45,34-66,30.15-22,43.41-38-15.25-51,76.47-2,23.58-5,52.74-6-29.44-2,47.52-6-20.76-8,40.35-1,53.35-4,64.63-5,6.08-1,5.15-1,58.32-2-72.46,0,16.85,1-50.22,4h54.14c-15.49,8,23.61,24,102.13,51,5.33,4-23.19,9-67.87,13,60.4,5,48.66,10,53.13,16,36.64,1-6.25,3-18.76,4,55.75,18-11.71,37,54.23,56-59.06,9-18.31,17,14.21,21,6.89,1-10.28,2,16.75,3-38.69,7-15.85-13-12.06-36,62.34-34,88.35-77,121.48-119-10.41,0,8.13,0-16.11,1Z" transform="translate(0.22 1.3)"/><path class="cls-6" d="M794.36,222.43c-5,4-36.68,7,4.54,11-40.1,1,2.46,2-55.8,3,61.07,1,11.85,3,16.74,4,17.49,5-1.08,9,39.85,14-3.89,18-4.78,35-6.19,53-37,9,.36,17,1.4,26,4.58,23-51.48,43-34.79,62-19.24,2,1.93,3,31.5,5-68.64,28-39.41,48-98.34,60-6.81,16-87.32,6-96.5-34-11.65-3,16.22-6-26.88-9,27.53-5,58.64-9,58.18-14-56.45-8-30.7-17-54.16-25-8.82-2,11.6-3,23.85-5-3.83-1-33-3-41.07-5,26.82-15-37.41-7-10,5-9.64,22-80.12,51-41.13,84,2.53,3-21.35,8-4.29,7-41-2-60.79-11-41.63-17,39.52-19-26.4-38,4.86-57,7.78-29,32.93-54,43.7-79,52-67,57.06-87,153.74-35-35.22,2-15,4,12.63,5-50.58,1-41.53,2-46.5,3,45.24,1-4.5,1,28.47,2-25.5,2-5.37,4-16.75,6-17.94,1-4.85,1,43.5,2,10.41,15-22.94,30-12.38,48-5.39,17-9.74,35,26.22,50-39.78,3-11.23,6-47.33,9,45.21,3,28.77,4,28.56,5,37.54,4,67.48-16,105.3-41-46.22-16-30.48-31,6.77-49-53.85-9-16.84-18-14.42-28-15.14-23,5.65-45-13.84-67,29.56-1-18,2-9.9,1Z" transform="translate(0.22 1.3)"/><path class="cls-2" d="M783.65,253.43c12,14,5.27,30,16.35,45-3.72,10-12.41,20-27.65,31,2.76,14-42.23,27,12.18,40-55.85,32-74.47,59-64.52,77-63.62,23-57.67,29-125.81,2-3.71-10-15.56-22,18.24-37-35.32-20,9.6-42,5.47-64-41.39-13-8.23-22-20.53-27,6.41-5-11.87-4-80.55,2,51.93,7,44.91,15-6.83,27-28.23,10,31.79,20-24,30-6.08,3,48.22,6,1.3,8-16.51,6,18.95,13,18.64,19-27.52,4-47.67,12,8.24,7-22.56-10-24.51-24-32.76-36-15.95-24-18.85-45,24.07-66,21.36-22,30.77-38-10.81-51,54.2-2,16.71-5,37.38-6-20.86-2,33.68-6-14.71-8,28.59-1,37.81-4,45.8-5,4.31-1,3.65-1,41.33-2-51.35,0,11.94,1-35.59,4h38.37c-11,8,16.74,24,72.39,51,3.77,4-16.44,9-48.11,13,42.81,5,34.49,10,37.66,16,26,1-4.43,3-13.3,4,39.51,18-8.29,37,38.44,56-41.86,9-13,17,10.07,21,4.88,1-7.29,2,11.87,3-27.42,7-11.23-13-8.55-36,44.18-34,62.62-77,86.1-119-7.38,0,5.76,0-11.42,1Z" transform="translate(0.22 1.3)"/><path class="cls-6" d="M584.24,294.1c-6.76,4-50.09,7,6.2,11-54.76,1,3.35,2-76.2,3,83.39,1,16.19,3,22.86,4,23.89,5-1.48,9,54.41,14-5.3,18-6.52,35-8.44,53-50.57,9,.48,17,1.9,26,6.26,23-70.29,43-47.51,62-26.27,2,2.64,3,43,5-93.72,28-53.81,48-134.28,60-9.3,16-119.24,6-131.77-34-15.92-3,22.14-6-36.71-9,37.59-5,80.08-9,79.44-14-77.07-8-41.91-17-74-25-12-2,15.84-3,32.57-5-5.23-1-45.11-3-56.08-5,36.62-15-51.1-7-13.63,5-13.17,22-109.41,51-56.17,84,3.45,3-29.15,8-5.85,7-55.92-2-83-11-56.86-17,54-19-36-38,6.64-57,10.63-29,45-54,59.67-79,71-67,77.92-87,210-35-48.1,2-20.43,4,17.24,5-69.07,1-56.71,2-63.49,3,61.77,1-6.16,1,38.87,2-34.82,2-7.34,4-22.87,6-24.51,1-6.62,1,59.39,2,14.22,15-31.33,30-16.9,48-7.36,17-13.3,35,35.8,50-54.31,3-15.34,6-64.62,9,61.73,3,39.27,4,39,5,51.25,4,92.14-16,143.78-41-63.11-16-41.61-31,9.25-49-73.53-9-23-18-19.69-28-20.67-23,7.71-45-18.9-67,40.37-1-24.55,2-13.52,1Z" transform="translate(0.22 1.3)"/><path class="cls-2" d="M577.13,325.1c16.89,14,7.43,30,23.07,45-5.26,10-17.51,20-39,31,3.88,14-59.6,27,17.18,40-78.8,32-105.08,59-91,77-89.78,23-81.38,29-177.52,2-5.24-10-22-22,25.73-37-49.84-20,13.54-42,7.73-64-58.42-13-11.61-22-29-27,9-5-16.74-4-113.65,2,73.27,7,63.36,15-9.64,27-39.82,10,44.86,20-33.82,30-8.58,3,68,6,1.84,8-23.3,6,26.73,13,26.3,19-38.84,4-67.26,12,11.62,7-31.83-10-34.58-24-46.22-36-22.5-24-26.6-45,34-66,30.15-22,43.41-38-15.25-51,76.47-2,23.58-5,52.74-6-29.44-2,47.52-6-20.76-8,40.35-1,53.35-4,64.63-5,6.08-1,5.15-1,58.32-2-72.46,0,16.85,1-50.22,4h54.14c-15.49,8,23.61,24,102.13,51,5.33,4-23.19,9-67.87,13,60.4,5,48.66,10,53.13,16,36.64,1-6.25,3-18.76,4,55.75,18-11.71,37,54.23,56-59.06,9-18.31,17,14.21,21,6.89,1-10.28,2,16.75,3-38.69,7-15.85-13-12.06-36,62.34-34,88.35-77,121.48-119-10.41,0,8.13,0-16.11,1Z" transform="translate(0.22 1.3)"/><path class="cls-6" d="M762.8,121c-6.75,4-50.08,7,6.2,11-54.76,1,3.36,2-76.2,3,83.39,1,16.19,3,22.87,4,23.88,5-1.49,9,54.41,14-5.31,18-6.53,35-8.45,53-50.56,9,.49,17,1.9,26,6.26,23-70.29,43-47.5,62-26.27,2,2.63,3,43,5-93.72,28-53.81,48-134.28,60-9.3,16-119.23,6-131.77-34-15.91-3,22.14-6-36.7-9,37.58-5,80.07-9,79.43-14-77.07-8-41.91-17-74-25-12-2,15.84-3,32.58-5-5.24-1-45.11-3-56.09-5,36.63-15-51.09-7-13.62,5-13.18,22-109.41,51-56.17,84,3.45,3-29.15,8-5.86,7-55.92-2-83-11-56.85-17,54-19-36.05-38,6.63-57,10.64-29,45-54,59.68-79,71-67,77.92-87,209.94-35-48.09,2-20.43,4,17.25,5-69.07,1-56.72,2-63.5,3,61.77,1-6.15,1,38.87,2-34.82,2-7.33,4-22.87,6-24.5,1-6.62,1,59.4,2,14.22,15-31.33,30-16.9,48-7.36,17-13.3,35,35.8,50-54.32,3-15.34,6-64.63,9,61.73,3,39.28,4,39,5,51.26,4,92.15-16,143.78-41-63.1-16-41.61-31,9.26-49-73.54-9-23-18-19.7-28-20.67-23,7.71-45-18.9-67,40.37-1-24.55,2-13.52,1Z" transform="translate(0.22 1.3)"/><path class="cls-2" d="M756.27,140c16.89,14,7.43,30,23.07,45-5.25,10-17.51,20-39,31,3.89,14-59.6,27,17.18,40-78.8,32-105.08,59-91,77C576.7,356,585.1,362,489,335c-5.23-10-22-22,25.73-37-49.83-20,13.54-42,7.73-64-58.41-13-11.61-22-29-27,9.05-5-16.74-4-113.65,2,73.27,7,63.37,15-9.64,27-39.82,10,44.86,20-33.82,30-8.57,3,68.05,6,1.84,8-23.29,6,26.73,13,26.3,19-38.83,4-67.26,12,11.62,7-31.83-10-34.58-24-46.22-36-22.5-24-26.59-45,34-66,30.14-22,43.4-38-15.26-51,76.48-2,23.58-5,52.74-6-29.44-2,47.52-6-20.75-8,40.34-1,53.34-4,64.62-5,6.09-1,5.15-1,58.32-2-72.45,0,16.85,1-50.21,4h54.13c-15.49,8,23.61,24,102.14,51,5.32,4-23.2,9-67.88,13,60.4,5,48.66,10,53.13,16,36.64,1-6.25,3-18.76,4,55.75,18-11.7,37,54.23,56-59.06,9-18.3,17,14.21,21,6.89,1-10.28,2,16.76,3-38.7,7-15.86-13-12.07-36,62.34-34,88.35-77,121.48-119-10.41,0,8.13,0-16.11,1Z" transform="translate(0.22 1.3)"/><path class="cls-7" d="M541.43,306.07c1,2-1,4-2,5-4,4-8,9-14,12l-1,2c-12,8-23,16-37,20-1,0-1,2-2,2-10,4-19,8-30,10a29.59,29.59,0,0,0-10,2h-4c-32,7-62,5-92-4-49-15-88-50-109-96-12-28-15-58-33-85l-8-8c-8-7-17-10-27-12-7-1-15-1-22,1-11,3-22,7-34,9-11,1-21,2-31-4-2-1-3-4-5-5-2-2-2-5-3-7-4-13,0-27,5-39a130.73,130.73,0,0,1,33-44c8-6,15-12,24-18a216.94,216.94,0,0,1,35-15c4-1,7-2,11-3,10-3,19-3,29-4a152.63,152.63,0,0,1,30,3c19,5,36,11,52,23,1,1,2,0,3,1,2,1,2,3,4,4,1,1,2,0,3,1,13,11,25,22,34,37,3,6,6,11,9,17,3,8,6,15,8,23,1,6,2,11,3,16s0,10,0,15c0,9,1,18-1,27-4,19-8,37-5,56,6,33,33,53,62,63,9,3,18,5,27,5,12,1,24,2,36,0a122.52,122.52,0,0,0,19-2c15-2,28-9,43-9v1Z" transform="translate(0.22 1.3)"/><path class="cls-7" d="M692.75,771.14c3.66-.72,8.07-.82,11.7-1.6-36.61,6.15-83.53-4.95-134.79-32l.84.81a591.72,591.72,0,0,1-72.45-49.42c-59.6-48-105.49-98.66-132.95-142.36-17.86-29.36-19.42-47.76-7.72-56.43,21.67-7.59,72.92,6.9,137.78,33.1,57.36,20.17,116.79,41.16,161.64,57.9,42.49,13.27,69.48,27.48,77.93,47,5.39,12.08,3.91,24,0,37.59-5,19.51-20.55,35.24-44.61,45.34-17.34,6.61-37.93,8.09-64.09,2.86-26.41-6.8-52.45-17.44-80.89-35.66-45.55-30.49-85.7-67.84-106.16-100.22-13.87-22.91-14.87-38.42.76-43.26,19.49-3.21,55,4.81,97.74,19.81,37.95,11.81,73.42,25.06,101.84,39.07,20.42,9.73,32.88,19.62,38.71,30.81,8.61,16.48,2.84,32.78-17.15,42.27-13.59,6.81-34.28,7.91-59.43,1a210.52,210.52,0,0,1-62.21-31.69,177.43,177.43,0,0,1-39.7-39.56c-5-7.1-5-12.13-8.34-18.23-8.82,13.25,19.77,45.57,57.79,71.34,24.6,16.81,49.46,28.16,75.19,32.34,21.57,2.85,38.82.54,51.33-7.49a38.37,38.37,0,0,0,15.5-13.8,32.77,32.77,0,0,0,6-17.49c.6-5.64-1.51-11.66-2.3-17.2-4.62-5.6-9.08-11.39-13.4-16.47-8.37-5-15.46-10.12-25-14.93-8.48-4.25-18.31-8.54-28.32-12.67-22.81-9.49-47.6-18.4-77.67-28.64-29.51-11.12-56.22-19.91-81.69-26.64-12-3.47-22.64-5.91-31.91-6.82-10.71-1.1-18.36,0-26.6.67a115.26,115.26,0,0,0-10,13.34c3.2,8.92,6,18.21,9.68,28q13.72,19,28,39.11c14.57,15.06,30.65,30.94,45.34,46.2,18.82,14.4,37.75,29.47,56.28,43.34,20.76,11.5,40.67,22.68,60.78,33.06,19.6,5.2,38.32,10,57.14,13.85,14.89-1.32,30-3.45,44.37-5.67,10.87-6.66,21-14,31.73-20.84,5.73-9.76,12.71-19.18,18.77-28.39,2.32-10,4.85-20.22,7.8-29.18-1-9-2.14-17.58-2.36-25.24-5.12-7-10-13.1-14.42-19q-13-7.44-25.57-14.12c-13.24-4.17-25.92-8.54-39.36-13.08-23-7.15-48.49-15.29-79.86-25.4-23.32-8.36-46-17-70.91-26.37-33.42-13.53-64.51-26.34-94.71-38.2,38.81,14.4,83.46,32.86,127.32,50.31,86.79,27.26,152.83,45.4,183.15,62C755,612.21,762,621.11,765,633.09c4.1,13.78,2.36,28.53-3.72,44.86-5,16.54-14.73,31.91-29.21,44.8C715,738,690.2,746,658.44,745.12c-47-5.31-100.14-31-155.06-73.84a646,646,0,0,1-63.67-59.43c-18.5-20.22-31.62-37.66-41.81-55.08C389,541,386,529.27,388.73,520.52c3.27-8.28,12.39-11,30.15-9.43,25.16,3.19,57.19,12.63,97.74,27.57,36,11.77,71.58,24.64,104.17,37.26,30.87,10.78,54.26,21,70,33.09,17.5,13.89,23.69,30.09,16.82,47.23-3.7,11.43-12.29,21.79-26,28.64-18.43,8.46-41.79,11.37-73.58,3.14-19.94-6.29-39-15.56-59.07-27.92-27.78-18.21-52-39.31-68.54-60.8-13.67-18.51-18.31-33.14-9.29-40.32,6.85-3.94,18.9-4.44,36.56-1,15.47,2.62,33.36,7.73,52.81,14.5,9.22,3.34,17.69,6.5,26.7,9.95,27.74,10.7,48.35,22.9,57.49,35.57,6.45,8.91,7.25,17.57-.14,24.23-6.25,5.37-16.32,8.58-30.7,7.8-16.43-1.38-36-8.66-54.31-21.28-17.84-13-28-25.91-25.07-34,3.54-4.62,14.07-4.22,26.58-2.37-2.69-2.5-7.32-3.47-10.65-4.48-12.71-3.65-22.69-3.77-28.5-1.6-9.41,4.76-3.8,17.32,11.59,33.23A176.14,176.14,0,0,0,569,645.76c22.46,11.77,44.76,18.54,64.07,18,12.65-.92,23-4.26,30-10.66,10.75-9.38,10.7-21.46,2.55-34.23-5.25-8-15.11-15.21-29.82-23.14a425.84,425.84,0,0,0-53.59-23.11c-11-4-21-7.44-32.34-11.52-23.16-8.47-44.37-14.77-64-18.87-19-4.12-33.7-4.85-43.09-.92-8.24,4.78-8.67,14.09-1.84,28.6,4.2,9,9.77,17.65,17.57,27.19,14.59,19.64,36.69,40.67,64.3,61.41a357.54,357.54,0,0,0,40.47,26.58,323.46,323.46,0,0,0,38.94,18.68c24.55,8.69,46.75,12,65.76,8.59,12.47-1.91,21.53-5.94,31.68-9.88,6.75-6.53,14.21-12.49,21.06-18.85,3.31-8,7.42-15.33,11.09-22.72q.76-11.86,2.3-22.38c-3.07-6.84-5.34-13-7.92-18.93-5.68-5.43-11.26-10.19-16.62-15.06-8.79-4.41-16.4-8.58-27.06-12.77-10.05-4.3-22.3-8.5-35.38-13-11.48-4.19-23.42-8.23-38.23-13.15-14.3-5.19-27.86-9.95-43.11-15.35-16.81-6.31-32.09-12-49.12-18.36-32.66-12.88-61-23-88.72-31.65-28.6-8.94-50.51-12.71-65.09-9.68-12.18,4.43-15,15-6.4,35.3a256.39,256.39,0,0,0,19.74,34.38A365.25,365.25,0,0,0,409.56,603a566.84,566.84,0,0,0,44.61,46.45,681.45,681.45,0,0,0,55.34,47c19.68,14.73,39.88,27.58,59.3,40.23,21.31,9.66,40.93,18.19,61.48,26.52,20,3.64,38,6.57,57.57,8.34l4.89-.43Z" transform="translate(0.22 1.3)"/><path class="cls-3" d="M226.22,199.19c-16.63-33.67-6.12-69.95,30.64-100.56,3.5-2.62,6.12-4.8,9.63-7.43,28-18.8,62.14-33.22,105.9-41.09,50.77-9.18,106.79-8.31,154.93,5.68l2.62,1.31c14.88,3.94,26.26,9.62,38.52,15.74a99.56,99.56,0,0,1,19.25,14c7.88,6.56,14,12.68,21,19.24a55.35,55.35,0,0,0,23.63,15.3h1.75c4.38,2.18,10.51,2.18,16.63,3.06,11.38.87,21.89-1.31,32.39-3.5,7.88-2.19,15.75-4.37,22.76-7.43,6.12-3.06,12.25-5.68,18.38-9.18,6.12-3.94,11.38-8.31,20.13-10.06,8.75-1.31,19.25-3.5,28-.43h1.75l2.62,1.31h1.75c7.88,3.93,12.26,8.74,14.88,14.42,4.38,9.62,2.63,18.8-.87,28.42-7,14.87-17.51,27.11-35.89,39.35-2.62,1.31-4.37,2.18-6.12,3.93-.88.88-2.63,1.31-3.51,1.75-.87.88-1.75,1.31-2.62,2.19a309,309,0,0,1-56.89,23.17c-7,1.75-13.13,3.06-20.14,4.81-65.64,15.3-147.92,11.8-202.19-13.56l-7.87-3.93c-6.13-3.5-11.38-6.56-14.88-10.49l-1.75-.44c-2.63-2.19-4.38-4.37-7.88-6.56-4.38-3.06-5.25-6.56-9.63-9.62-1.75-1.31-1.75-3.06-3.5-4.37a112.41,112.41,0,0,1-9.63-15.3c-5.25-11.37-6.13-22.73-13.13-33.66-3.5-4.81-10.5-9.18-20.13-10.93-22.76-4.37-45.51,0-64.77,7-24.51,9.18-41.14,21.42-53.39,35a96.33,96.33,0,0,0-12.26,18.36c-1.75,3.93-2.62,7-4.37,10.93a128.82,128.82,0,0,0-3.5,17.92c0,5.69.87,10.93-1.75,16.62H235c-.88,0-1.75-.44-1.75-.88v-.87c-4.38-2.63-5.26-6.12-7-9.18Z" transform="translate(0.22 1.3)"/><path class="cls-8" d="M750.42,133.35c-23,33.39-50.53,58.24-83.34,73.76" transform="translate(0.22 1.3)"/><path class="cls-2" d="M219.27,63.32c5.78-9,18.07-15.91,29.63-22.8a244.87,244.87,0,0,1,28.9-13.76C298,18.59,318.27,13.42,340.67,9.12a321.58,321.58,0,0,1,67.21-4.73c17.34.86,34.68,2.58,51.3,6,8.67,2.15,16.62,4.3,25.29,6.89,7.95,2.58,15.18,5.59,23.13,9C530.72,37.94,548.07,51.71,556,68.91c4.34,9.9,6.51,19.79,4.34,30.11-.72,4.74-2.89,8.61-4.34,13.34-4.33,10.75-13,19.36-19.51,29.25-3.61,6-5,12.9.73,18.93,5,5.16,13,8.6,22.4,10.75,16.62,3.87,34.68,3.44,52.75.86a64.46,64.46,0,0,0,10.12-1.72c13-2.58,24.57-6.45,36.85-10.75,1.45-.43,1.45-1.29,2.89-1.72,13-4.74,22.4-10.33,35.41-15.49.72-.43.72-.86,1.44-1.29,3.62-1.72,7.23-3,10.84-4.73,5.06-2.15,14.46-5.16,17.35,0,2.16,3.44,0,7.31-1.45,10.75-4.33,12.48-14.45,22.37-27.46,32.26-6.5,4.31-12.28,8.61-19.51,12.48a247,247,0,0,1-39,16.77,291.1,291.1,0,0,1-73.71,13.34c-39.74,1.72-78-4.73-111.28-18.93-.73-.43-.73-.86-1.45-1.29-15.9-6.45-26-14.62-36.13-24.09-.72-.43,0-1.29-.72-1.72-8.67-8.6-12.29-18.06-13.73-28-.72-10.32,2.89-20.21,10.12-29.25,8.67-9.89,21.67-17.63,38.29-23.66a87.44,87.44,0,0,0,23.13-10.32c4.33-3.87,7.95-7.74,8.67-12.47,2.89-23.23-32.52-40.44-66.48-46.89-70.1-12.91-141.64,6.45-192.22,36.13-1.44.43-2.89,1.72-5.06,1.72Z" transform="translate(0.22 1.3)"/><path class="cls-7" d="M667.75,264.46c-21.76,7.62-44.47,9.87-56.68,4.55-7.53-3.77-11.72-9.59-3.94-19,6.38-7.68,14.83-15.3,31.55-22.7,18.66-7.7,37-10.78,48.78-6.54,7.13,2.69,7.19,8.4,1.58,15.38-5.88,6.27-14.1,11.75-26.84,16.05-9.15,3-18.05,3.79-23.89,1.85-7-2.33-3.32-9,2.69-14.91-5.41,2-7.44,4.8-10.52,7.57-5.11,5.57-2.74,9.2,3.49,12.22,5.7,1.58,14,1.8,24.92-1.83,8.24-2.63,16.08-6.34,24.06-9.7,6.28-5.18,11.79-9.67,18.07-14.85.47-4.27,2-8.51,2.45-12.77-4-2.61-7.17-5.55-13.9-7.15a46,46,0,0,0-18.61-.5A70.26,70.26,0,0,1,693,210.93c19.41,2.66,21.23,15.9,3.16,30.76-9.35,7.95-23.23,14.71-39.08,18.92-10.31,2.58-19.22,3.41-26.86,2.13-10.1-2.41-14.43-8.59-5.48-17.62l4.61-4.16a73.09,73.09,0,0,1,27.27-12.11c8.51-1.91,15.61-2.07,19.14,1.94,1.7,1.83,1.6,4.33-2.24,7.79a37.56,37.56,0,0,1-20.2,9.09,24.47,24.47,0,0,1-7.37-.55l-1.8.66c-.6,3.91,6.63,4.1,14.37,2.88,13.42-2.49,25.6-11.08,29.92-18.81,2.14-5.29.67-9.26-9.16-10.95-8.67-1.3-19.65-.53-33.93,5.15-8.11,3-15.69,7.43-23.4,11.5-5.38,4.85-9.72,9.73-15.1,14.58.57,4.29-.68,9.25,1.69,12.89,3.16,5.79,14.16,7.87,30.68,5.46a171,171,0,0,0,28.49-6Z" transform="translate(0.22 1.3)"/></svg>