<?xml version="1.0" encoding="utf-8"?>
<!-- Generator: Adobe Illustrator 22.0.1, SVG Export Plug-In . SVG Version: 6.00 Build 0)  -->
<svg version="1.1" id="Ebene_3" xmlns="http://www.w3.org/2000/svg" xmlns:xlink="http://www.w3.org/1999/xlink" x="0px" y="0px"
	 viewBox="0 0 255 255" style="enable-background:new 0 0 255 255;" xml:space="preserve">
<style type="text/css">
	.st0{opacity:0.4;fill:url(#SVGID_1_);}
	.st1{opacity:0.3;fill:url(#SVGID_2_);}
</style>
<radialGradient id="SVGID_1_" cx="128.8099" cy="127.2709" r="117.9285" gradientTransform="matrix(0.9602 0.2795 -8.001445e-02 0.2749 15.3163 56.2858)" gradientUnits="userSpaceOnUse">
	<stop  offset="0.8368" style="stop-color:#E8E8E8"/>
	<stop  offset="1" style="stop-color:#808080"/>
</radialGradient>
<path class="st0" d="M220,129.1c-2.3-1.7-4.9-3.4-7.6-5.1c0,1.2,0.1,2.4,0.1,3.6c0,0.5,0,1,0,1.5c0.6,0.4,1.2,0.8,1.8,1.2
	c31.5,22.1,18.5,37.9-29,35.1c-47.6-2.7-111.7-22.9-143.2-45C14.7,101.1,20.8,86.7,53.9,85c0.8-1.5,1.7-2.9,2.7-4.3
	c-41.2,1-50.8,18.1-20.2,40.7c33.2,24.5,101.2,46.1,151.9,48.2C239,171.7,253.2,153.6,220,129.1z"/>
<radialGradient id="SVGID_2_" cx="127.8093" cy="129.5833" r="132.8665" fx="124.9311" fy="140.4064" gradientTransform="matrix(0.96 0.2801 -0.101 0.3462 18.2031 48.9268)" gradientUnits="userSpaceOnUse">
	<stop  offset="0.8368" style="stop-color:#E8E8E8"/>
	<stop  offset="1" style="stop-color:#808080"/>
</radialGradient>
<path class="st1" d="M234.9,125.3c-6.9-5.8-15.2-11.4-24.6-16.7c0.6,2.8,1.1,5.6,1.5,8.5c5.6,3.3,10.7,6.8,15.1,10.3
	c35.2,27.6,19.4,49-35.2,47.9c-54.6-1.2-127.3-24.5-162.5-52.2C-5,96.2,9.2,75.1,60.5,75.2c1.8-2.3,3.7-4.5,5.7-6.5
	c-1.9,0-3.8-0.1-5.6-0.1c-59,0-76.5,25.4-39.2,56.7c37.3,31.3,115.3,56.7,174.3,56.7C254.7,181.9,272.2,156.5,234.9,125.3z"/>
</svg>
