<?xml version="1.0" encoding="utf-8"?>
<!-- Generator: Adobe Illustrator 22.0.1, SVG Export Plug-In . SVG Version: 6.00 Build 0)  -->
<svg version="1.1" xmlns="http://www.w3.org/2000/svg" xmlns:xlink="http://www.w3.org/1999/xlink" x="0px" y="0px"
	 viewBox="0 0 600 120" style="enable-background:new 0 0 600 120;" xml:space="preserve">
<style type="text/css">
	.st0{fill:#E72D7C;}
</style>
<g id="Ebene_1">
	<path class="st0" d="M572.4,96h-50.9c-5.6,0-10.1-5.4-10.1-12c0-6.6,4.5-12,10.1-12h27.6c6.3,0,11.4-5.4,11.4-12
		c0-6.6-5.1-12-11.4-12h-51.5c-5.8,0-10.5-5.4-10.5-12c0-6.6,4.7-12,10.5-12h31.5c6.2,0,11.2-5.4,11.2-12c0-6.6-5-12-11.2-12H11.2
		C5,0,0,5.4,0,12c0,6.6,5,12,11.2,12h42.4c5.8,0,10.5,5.4,10.5,12c0,6.6-4.7,12-10.5,12H22.1c-6.3,0-11.4,5.4-11.4,12
		c0,6.6,5.1,12,11.4,12H86c5.6,0,10.1,5.4,10.1,12c0,6.6-4.5,12-10.1,12H37.1c-6.4,0-11.6,5.4-11.6,12c0,6.6,5.2,12,11.6,12h535.4
		c6.4,0,11.6-5.4,11.6-12C584,101.4,578.8,96,572.4,96z"/>
</g>
<g id="Ebene_2">
</g>
</svg>
