<?xml version="1.0" encoding="iso-8859-1"?>
<!-- Generator: Adobe Illustrator 19.0.0, SVG Export Plug-In . SVG Version: 6.00 Build 0)  -->
<svg version="1.1" id="Layer_1" xmlns="http://www.w3.org/2000/svg" xmlns:xlink="http://www.w3.org/1999/xlink" x="0px" y="0px"
	 viewBox="0 0 512.001 512.001" style="enable-background:new 0 0 512.001 512.001;" xml:space="preserve">
<g>
	<g>
		<path d="M497.71,126.746H380.95c-36.141,0-68.73,20.031-85.053,52.273l-71.332,140.906c-11.431,22.58-34.252,36.605-59.56,36.605
			H47.924l40.511-34.534c6.005-5.119,6.723-14.137,1.604-20.141c-5.119-6.005-14.135-6.723-20.141-1.604L8.355,352.716
			C3.044,357.244,0,363.841,0,370.819c0.001,6.978,3.047,13.575,8.356,18.1L69.9,441.383c2.69,2.292,5.983,3.415,9.261,3.415
			c4.039,0,8.055-1.703,10.879-5.019c5.119-6.005,4.4-15.022-1.604-20.141l-40.511-34.535h117.082
			c36.141,0,68.73-20.031,85.053-52.273l71.332-140.906c11.431-22.579,34.252-36.604,59.56-36.604h116.76
			c7.889,0,14.287-6.398,14.287-14.287C511.997,133.144,505.6,126.746,497.71,126.746z"/>
	</g>
</g>
<g>
	<g>
		<path d="M257.659,194.206l-7.603-15.034c-16.327-32.248-48.916-52.281-85.05-52.281H47.932l40.505-34.529
			c6.005-5.119,6.723-14.137,1.604-20.141c-5.119-6.003-14.137-6.722-20.141-1.604L8.358,123.082
			c-5.31,4.525-8.356,11.122-8.358,18.1c0,6.979,3.044,13.577,8.356,18.105L69.9,211.75c2.69,2.292,5.983,3.414,9.261,3.414
			c4.039,0,8.053-1.703,10.879-5.019c5.119-6.005,4.4-15.022-1.604-20.141l-40.518-34.539h117.088
			c25.303,0,48.125,14.029,59.555,36.607l7.6,15.03c2.516,4.975,7.543,7.842,12.761,7.842c2.169,0,4.37-0.496,6.436-1.54
			C258.399,209.841,261.22,201.247,257.659,194.206z"/>
	</g>
</g>
<g>
	<g>
		<path d="M497.713,356.678H380.949c-25.309,0-48.129-14.022-59.558-36.599l-7.686-15.172c-3.566-7.039-12.167-9.852-19.2-6.289
			c-7.039,3.566-9.853,12.162-6.289,19.2l7.685,15.17c16.321,32.238,48.909,52.265,85.05,52.265h116.765
			c7.889,0,14.287-6.398,14.287-14.287S505.602,356.678,497.713,356.678z"/>
	</g>
</g>
<g>
</g>
<g>
</g>
<g>
</g>
<g>
</g>
<g>
</g>
<g>
</g>
<g>
</g>
<g>
</g>
<g>
</g>
<g>
</g>
<g>
</g>
<g>
</g>
<g>
</g>
<g>
</g>
<g>
</g>
</svg>
