<?xml version="1.0" encoding="utf-8"?>
<!-- Generator: Adobe Illustrator 22.0.1, SVG Export Plug-In . SVG Version: 6.00 Build 0)  -->
<svg version="1.1" xmlns="http://www.w3.org/2000/svg" xmlns:xlink="http://www.w3.org/1999/xlink" x="0px" y="0px"
	 viewBox="0 0 300 300" style="enable-background:new 0 0 300 300;" xml:space="preserve">
<style type="text/css">
	.st0{opacity:0.4;}
	.st1{fill:#FEC700;}
	.st2{fill:url(#SVGID_1_);}
	.st3{opacity:0.5;fill:url(#SVGID_2_);}
	.st4{opacity:0.5;fill:url(#SVGID_3_);}
	.st5{opacity:0.5;fill:url(#SVGID_4_);}
	.st6{opacity:0.5;fill:url(#SVGID_5_);}
	.st7{opacity:0.5;fill:url(#SVGID_6_);}
	.st8{opacity:0.5;fill:url(#SVGID_7_);}
</style>
<g id="Ebene_1">
	<g class="st0">
		<image style="overflow:visible;" width="371" height="371" xlink:href="36FD7E3E.png"  transform="matrix(1 0 0 1 -35 -35)">
		</image>
	</g>
</g>
<g id="Ebene_2">
	<g>
		<image style="overflow:visible;" width="336" height="336" xlink:href="36FD7E42.png"  transform="matrix(1 0 0 1 -18 -18)">
		</image>
		<g>
			<circle class="st1" cx="150" cy="150" r="107.7"/>
		</g>
	</g>
	
		<radialGradient id="SVGID_1_" cx="155.2139" cy="154" r="95.8708" fx="143.1206" fy="166.1926" gradientTransform="matrix(0.9687 0 0 1 1.6482 0)" gradientUnits="userSpaceOnUse">
		<stop  offset="0" style="stop-color:#FFE9C0"/>
		<stop  offset="0.1692" style="stop-color:#FFE8BD"/>
		<stop  offset="0.3197" style="stop-color:#FFE6B5"/>
		<stop  offset="0.4629" style="stop-color:#FFE4A5"/>
		<stop  offset="0.6019" style="stop-color:#FFE08F"/>
		<stop  offset="0.7377" style="stop-color:#FFDC6E"/>
		<stop  offset="0.8693" style="stop-color:#FFD63F"/>
		<stop  offset="0.9985" style="stop-color:#FFD100"/>
		<stop  offset="1" style="stop-color:#FFD100"/>
	</radialGradient>
	<circle class="st2" cx="150" cy="150" r="94.3"/>
	
		<linearGradient id="SVGID_2_" gradientUnits="userSpaceOnUse" x1="126.7364" y1="222.5618" x2="197.8259" y2="32.4561" gradientTransform="matrix(0.6298 0.7768 -0.7768 0.6298 168.234 -62.8011)">
		<stop  offset="0" style="stop-color:#FFE9C0;stop-opacity:0"/>
		<stop  offset="0.2737" style="stop-color:#FCCF94;stop-opacity:0.2737"/>
		<stop  offset="0.8913" style="stop-color:#F18820;stop-opacity:0.8913"/>
		<stop  offset="1" style="stop-color:#EF7B00"/>
	</linearGradient>
	<path class="st3" d="M235.3,82.2C208,48.5,164.5,35.6,125,45.7c16.6,6.3,31.9,17,43.9,31.8c36.3,44.8,29.5,110.6-15.4,147
		c-14.8,12-31.9,19.3-49.5,22.1c36.5,18,81.8,14.4,115.5-12.9C265.7,196.2,272.8,128.4,235.3,82.2z"/>
	
		<linearGradient id="SVGID_3_" gradientUnits="userSpaceOnUse" x1="138.1881" y1="216.5612" x2="209.2776" y2="26.4555" gradientTransform="matrix(1.0064 3.891378e-02 -3.863601e-02 0.9993 -11.2688 2.8059)">
		<stop  offset="0" style="stop-color:#FFE9C0;stop-opacity:0"/>
		<stop  offset="0.2737" style="stop-color:#FCCF94;stop-opacity:0.2737"/>
		<stop  offset="0.8913" style="stop-color:#F18820;stop-opacity:0.8913"/>
		<stop  offset="1" style="stop-color:#EF7B00"/>
	</linearGradient>
	<path class="st4" d="M154.9,42.4C111.2,40.8,72.5,65,54,101.3c15.8-8.3,34-12.7,53.2-12c58.1,2.2,103.4,50.8,101.1,108.5
		c-0.7,19.1-6.6,36.7-16.2,51.8c37.9-15.6,65.2-52,66.9-95.3C261.4,94.8,214.7,44.8,154.9,42.4z"/>
	
		<linearGradient id="SVGID_4_" gradientUnits="userSpaceOnUse" x1="135.4423" y1="211.069" x2="206.5318" y2="20.9633" gradientTransform="matrix(0.7072 -0.7171 0.712 0.7022 -62.0774 172.6647)">
		<stop  offset="0" style="stop-color:#FFE9C0;stop-opacity:0"/>
		<stop  offset="0.2737" style="stop-color:#FCCF94;stop-opacity:0.2737"/>
		<stop  offset="0.8913" style="stop-color:#F18820;stop-opacity:0.8913"/>
		<stop  offset="1" style="stop-color:#EF7B00"/>
	</linearGradient>
	<path class="st5" d="M73.3,74.8c-30.7,31.1-38.9,76-24.6,114.2c4.5-17.3,13.5-33.7,27-47.4c40.8-41.4,107.2-42.1,148.3-1.6
		c13.6,13.4,22.7,29.6,27.3,46.8c14-38.5,5.6-83.2-25.3-113.7C183.8,31.4,115.4,32.2,73.3,74.8z"/>
	
		<linearGradient id="SVGID_5_" gradientUnits="userSpaceOnUse" x1="126.7364" y1="222.5618" x2="197.8259" y2="32.4561" gradientTransform="matrix(-0.9379 -0.3468 0.3468 -0.9379 242.6721 339.9599)">
		<stop  offset="0" style="stop-color:#FFE9C0;stop-opacity:0"/>
		<stop  offset="0.2737" style="stop-color:#FCCF94;stop-opacity:0.2737"/>
		<stop  offset="0.8913" style="stop-color:#F18820;stop-opacity:0.8913"/>
		<stop  offset="1" style="stop-color:#EF7B00"/>
	</linearGradient>
	<path class="st6" d="M111,249.5c40.7,15.1,84.7,3.9,113.5-24.9c-17.5,3-36.1,1.6-54-5c-54.1-20-81.8-80.1-61.8-134.3
		c6.6-17.9,17.6-32.9,31.3-44.2c-40.6,3.1-77.7,29.3-92.8,70C26.7,166.9,55.2,228.9,111,249.5z"/>
	
		<linearGradient id="SVGID_6_" gradientUnits="userSpaceOnUse" x1="138.3475" y1="214.5509" x2="209.437" y2="24.4452" gradientTransform="matrix(-0.8855 0.4799 -0.4765 -0.8792 363.5973 191.9644)">
		<stop  offset="0" style="stop-color:#FFE9C0;stop-opacity:0"/>
		<stop  offset="0.2737" style="stop-color:#FCCF94;stop-opacity:0.2737"/>
		<stop  offset="0.8913" style="stop-color:#F18820;stop-opacity:0.8913"/>
		<stop  offset="1" style="stop-color:#EF7B00"/>
	</linearGradient>
	<path class="st7" d="M201.3,244.5c38.4-20.8,59.3-61.4,56.8-102.1c-9.4,15.2-22.8,28.3-39.7,37.5c-51.1,27.7-114.8,9-142.3-41.7
		C67,121.3,63,103.2,63.6,85.3c-24.7,32.7-29.6,78-8.9,116.1C83,253.8,148.7,273,201.3,244.5z"/>
	
		<linearGradient id="SVGID_7_" gradientUnits="userSpaceOnUse" x1="136.84" y1="208.6156" x2="207.9296" y2="18.5098" gradientTransform="matrix(-0.2425 0.9776 -0.9706 -0.2407 320.6514 19.9494)">
		<stop  offset="0" style="stop-color:#FFE9C0;stop-opacity:0"/>
		<stop  offset="0.2737" style="stop-color:#FCCF94;stop-opacity:0.2737"/>
		<stop  offset="0.8913" style="stop-color:#F18820;stop-opacity:0.8913"/>
		<stop  offset="1" style="stop-color:#EF7B00"/>
	</linearGradient>
	<path class="st8" d="M256.1,175.2c10.5-42.4-5.3-85.2-37.1-110.8c4.9,17.2,5.6,35.9,0.9,54.6c-14,56.4-70.7,90.9-126.8,77
		c-18.5-4.6-34.6-13.9-47.4-26.3c7.6,40.3,37.6,74.4,79.8,84.9C183.3,268.8,241.7,233.3,256.1,175.2z"/>
</g>
</svg>
