<?xml version="1.0" encoding="utf-8"?>
<!-- Generator: Adobe Illustrator 22.0.1, SVG Export Plug-In . SVG Version: 6.00 Build 0)  -->
<svg version="1.1" xmlns="http://www.w3.org/2000/svg" xmlns:xlink="http://www.w3.org/1999/xlink" x="0px" y="0px"
	 viewBox="0 0 100 100" style="enable-background:new 0 0 100 100;" xml:space="preserve">
<style type="text/css">
	.st0{fill:none;}
	.st1{fill:#FFFFFF;}
	.st2{fill:#FDFAF4;}
	.st3{fill:url(#);}
	.st4{fill:url(#SVGID_1_);}
	.st5{fill:url(#New_Pattern_Swatch_17);}
	.st6{opacity:0.1;fill:url(#SVGID_2_);}
</style>
<pattern  x="627" y="412" width="100" height="100" patternUnits="userSpaceOnUse" id="New_Pattern_Swatch_17" viewBox="0 -100.3 100 100" style="overflow:visible;">
	<g>
		<rect y="-100.3" class="st0" width="100" height="100"/>
		<g>
			<polygon class="st1" points="35.7,0 35.2,-0.3 34.7,-0.1 34.8,-0.7 34.5,-1.2 35.1,-1.2 35.4,-1.7 35.6,-1.1 36.2,-0.9 
				35.7,-0.6 			"/>
		</g>
		<g>
			<polygon class="st2" points="75.6,-38.7 74,-39.9 72.1,-39.4 72.8,-41.2 71.7,-42.9 73.7,-42.8 74.9,-44.3 75.5,-42.4 
				77.3,-41.7 75.7,-40.6 			"/>
			<polygon class="st2" points="87.8,-63.5 86.1,-64 84.6,-63 84.6,-64.8 83.2,-65.8 84.9,-66.4 85.4,-68 86.5,-66.6 88.3,-66.6 
				87.2,-65.2 			"/>
			<polygon class="st2" points="73.7,-5.6 72.4,-6.1 71.2,-5.4 71.3,-6.8 70.2,-7.8 71.6,-8.1 72.2,-9.4 72.9,-8.2 74.3,-8 
				73.4,-6.9 			"/>
			<polygon class="st2" points="36.4,-82.9 35.3,-84.1 33.7,-84 34.5,-85.4 33.9,-86.9 35.5,-86.5 36.7,-87.6 36.9,-86 38.3,-85.1 
				36.8,-84.5 			"/>
			<polygon class="st2" points="6.5,-52.8 5.5,-53.1 4.6,-52.5 4.6,-53.6 3.7,-54.3 4.7,-54.6 5.1,-55.7 5.7,-54.8 6.9,-54.8 
				6.2,-53.9 			"/>
			<polygon class="st2" points="91.8,-87.2 91.1,-87.7 90.4,-87.4 90.6,-88.2 90.2,-88.8 91,-88.8 91.5,-89.5 91.7,-88.7 
				92.4,-88.4 91.8,-88 			"/>
			<polygon class="st1" points="16.3,-40.3 15.9,-40.6 15.3,-40.4 15.5,-41 15.1,-41.4 15.7,-41.4 16,-41.9 16.2,-41.4 16.8,-41.2 
				16.3,-40.8 			"/>
			<polygon class="st1" points="52.5,-34.4 52,-34.7 51.5,-34.5 51.7,-35.1 51.3,-35.6 51.9,-35.6 52.2,-36 52.4,-35.5 53,-35.3 
				52.5,-35 			"/>
			<polygon class="st1" points="35.7,-100 35.2,-100.3 34.7,-100.1 34.8,-100.7 34.5,-101.2 35.1,-101.2 35.4,-101.7 35.6,-101.1 
				36.2,-100.9 35.7,-100.6 			"/>
			<polygon class="st1" points="40.1,-16.8 39.4,-17.6 38.3,-17.4 38.8,-18.4 38.3,-19.4 39.4,-19.2 40.2,-20 40.3,-18.9 
				41.3,-18.4 40.3,-17.9 			"/>
			<polygon class="st2" points="7.3,-4.5 5.9,-5.1 4.6,-4.3 4.8,-5.8 3.7,-6.8 5.1,-7.1 5.7,-8.5 6.5,-7.2 8,-7.1 7,-6 			"/>
			<polygon class="st2" points="40.5,-59.8 39.4,-60.1 38.6,-59.4 38.5,-60.5 37.6,-61.2 38.7,-61.5 39,-62.6 39.6,-61.7 
				40.7,-61.8 40.1,-60.9 			"/>
			<polygon class="st1" points="13.6,-87.9 13.1,-88 12.8,-87.6 12.7,-88.1 12.3,-88.3 12.7,-88.5 12.8,-89 13.1,-88.7 13.6,-88.7 
				13.3,-88.3 			"/>
			<polygon class="st1" points="56.8,-92.6 56.4,-92.7 56,-92.3 56,-92.8 55.5,-93 56,-93.2 56,-93.7 56.4,-93.3 56.8,-93.4 
				56.6,-93 			"/>
			<polygon class="st1" points="74.2,-86 73.7,-86.1 73.4,-85.8 73.3,-86.2 72.9,-86.5 73.3,-86.7 73.4,-87.1 73.7,-86.8 
				74.2,-86.9 74,-86.5 			"/>
			<polygon class="st2" points="96.7,-26.1 95.8,-26.3 95.2,-25.7 95.1,-26.6 94.3,-27 95.1,-27.4 95.2,-28.3 95.9,-27.6 
				96.7,-27.7 96.3,-26.9 			"/>
			<polygon class="st1" points="65,-66.9 64.3,-67.3 63.5,-67 63.7,-67.8 63.2,-68.5 64,-68.5 64.5,-69.2 64.8,-68.4 65.6,-68.2 
				64.9,-67.7 			"/>
		</g>
	</g>
</pattern>
<g id="PATTERN">
	<pattern  id="SVGID_1_" xlink:href="#New_Pattern_Swatch_17" patternTransform="matrix(1 0 0 1 -93 -38)">
	</pattern>
	<rect style="opacity:0.1;fill:url(#SVGID_1_);" width="100" height="100"/>
</g>
<g id="OBJECTS">
</g>
<g id="DESIGNED_BY_FREEPIK">
</g>
</svg>
