<?xml version="1.0" encoding="utf-8"?>
<!-- Generator: Adobe Illustrator 22.0.1, SVG Export Plug-In . SVG Version: 6.00 Build 0)  -->
<svg version="1.1" id="Ebene_1" xmlns="http://www.w3.org/2000/svg" xmlns:xlink="http://www.w3.org/1999/xlink" x="0px" y="0px"
	 viewBox="0 0 800 800" style="enable-background:new 0 0 800 800;" xml:space="preserve">
<style type="text/css">
	.st0{fill:#244589;}
</style>
<g>
	<path class="st0" d="M230,1c-7.7,8.3,35.3,27.1,38.3,35.5c8.7,24.2-20.2,14.6-16.6,36.5c-1,0.4-19,4.2-19.1,4.5
		c-1.7,2.9,1.1,8.8,1.1,8.8s26.3,40,7.6,25s-35.3-2.1-35.3-2.1s-6.4,6.3-9.8,7.2c4.7,7.6,20,6.1,27.3,9.8
		c-1.8,5.3-18.6,19.1-21.8,23.8c-4.5,6.7,18.2,12.9,18,20.3c-0.4,12.8-10.5,13.6-26.1,19.5c-43.9,16.6-11-53.6-14.2-57
		c-3.5-4.1-12.6,1.5-16.2,2.2c12.5-15.4-7.1-39.5-23-42c-26.3-4.1-21.9,25.7-30.1,41.7c1-3.7-10.6-26.7-15.3-28.1
		c-10.9-3.3-5.5,4.1-13.8,5.7c-7.8,1.5-13.7,0.7-21.6-0.7c-16.1-2.8-30.2-9.8-45.5-13.6C8.2,96.6,2.8,99.2,4,99.3
		C-3,98.4,0,30.8,3.2,23.8C10.4,7.4,28,2.2,46.1-1.5C106.2-13.7,169.5,1,230,1z M42.9,42.4C93.6,60.4,55.4,11.2,42.9,42.4z
		 M217.5,229.7C198.5,202.3,192.3,240.1,217.5,229.7z M102.9,82c55.4-31.8,27.8-37.4,0-13.9C92.8,76.6,96.8,85.5,102.9,82z"/>
	<path class="st0" d="M572,801c7.9-8.5-34.7-26.8-37.9-34.8c-9.9-24.5,30.3-22.4,26.6-44.3c0.8-0.3,8.7,2.7,8.7,2.7
		c1.6-2.9,10.5-8.2-1-8.7c6.8-1,24,0.6,28.8-10s-4.4-17.8-4.4-17.8s3.5,2.5,5.3,3.6c-1.5-0.4-16.3-5.7-18.7-12.6
		s11.8-18.4,12.1-34.3c0.3-17.9,12.2-19.3,22.3-33.2c9.2,6.9,22.6,25.1,21,37.4c-0.5,3.9-13.1,15.5-11,18.1s11.2-3.9,15.3,0
		s7,39,22.7,41.6C688.1,712.9,692,667,692,667s10,22.8,25.9,22.9c17.5,0.2,29.2,2.9,46.6,8.1c8.2,2.4,25.4,2.7,31,7.7
		c11.4,10.2,9.8,40.2,8.6,53.7C797.3,840.2,624.5,801,572,801z M759.2,759.6C712.5,743.1,741.4,789.2,759.2,759.6z M616.2,650.5
		c9.8,0-3.7-16.8-17.4-11C604.4,649.5,606.4,650.5,616.2,650.5z M671.8,653.7c9.8,0-3.7-16.8-17.4-11
		C660,652.7,662,653.7,671.8,653.7z M708.2,696.8c-5.9,2.3-8.7,35.9,6.8,28.3S708.2,701.4,708.2,696.8z"/>
	<path class="st0" d="M171,801c5.5-14.7,10-30.1,21.4-41.3c3.6-3.6,27.5-16.2,27.7-16.9c4-14.5-11.2-13.5-12.9-24.6
		c-2.6-16.9,16.2-14.2,23.6-23.1c5.9,13.9-11.5,30.4-2.8,42.6c2-8.8,7.8-8.2,15.2-9.6c-10.1-10.1,6.1-12,13.2-7.3
		c8.2,5.4,8.9,15.8,21.6,17.2c18.9,2.1,30.3-21.6,47.3-23.4c20.3-2.2,15.7,18.5,21.2,30.9c4.4,9.9,23.9,19.6,20.1,35.5
		c-19-19.3-52.9,12.3-31.6,20.4C280.3,801,225.7,801,171,801z M331.5,766c2.9-5.9,1.8-9.8-3.1-11.9C328,754.7,320.7,769.5,331.5,766
		z M222.8,747.3c7.1,5.8,12-1.1,11.8-1.2C230.3,743.8,226.4,744.2,222.8,747.3z M309.7,764.4c0,0,7.1-3.7,3.7-8.5
		C304.1,757.1,309.7,764.4,309.7,764.4z"/>
	<path class="st0" d="M631,1c-5.5,14.7-10,30.1-21.4,41.3c-3.6,3.6-27.6,16.2-27.8,16.9c-4,14.4,11,13.4,12.8,24.4
		c2.6,16.2-15.1,15.3-23.5,22.9c-4-9.9,11.4-34.7,2.7-41.9c-2,8.5-8,8-15.1,9.3c5.4,5.4,1.5,12-4.9,12.5
		c-7.9,0.7-12.4-13.5-17.8-17.3c-15.5-11-20.3-3.5-32.9,4.7c-14.5,9.4-32.1,18.5-43.1,2.3c-0.9-1.3-6.3-33.6-9.9-24.8
		c-4-9.9-17.7-18.4-14.7-30.5c16.4,16.7,46.1,2.9,31.3-20.3C521.5,1,576.2,1,631,1z M470.5,36c-2.9,5.9-1.8,9.8,3.1,11.9
		C474,47.3,481.5,32.4,470.5,36z M577.9,56.5c0.8-8.6-10.7-3.6-10.7-3.1C568.2,58.7,571.8,59.7,577.9,56.5z M492.3,37.6
		c-6.3,1.5-7.1,3.7-3.7,8.5C489.9,43.3,490.8,41,492.3,37.6z"/>
	<path class="st0" d="M1,431c7.3-1.4,14,3.9,21.2,3.7c9.7-0.3,18.1-5.2,28-5c12.4,0.2,36,14.7,46.9,3.9c6.1,36.4,1.2,70.9-17,103.3
		c-7.1,12.7-8.7,12.8-22,17.7c-9.3,3.5-22,2.8-16.2,17.4c0.4-1.7,1.4-2.6,2.9-2.7c7.9,3-3.3,16.3-11.8,13.7
		c-6.8-2.1-4.2-22.1-18.5-29.7c-5-2.6-9.2,3-15.6-5.1c-5.3-6.6,0.2-24.3,0.5-31.8C0.4,488.2,1,459.3,1,431z"/>
	<path class="st0" d="M801,371c-8.4,1.1-14.3-6.5-23.9-5c-7.3,1.1-13.2,7.5-21,8.2c-16.6,1.4-36.1-17.6-51.2-5.6
		c-9-33-20.8-55.6-0.7-83.4c7.2-10,17.4-28.8,27.8-34c7.2-3.7,19.4-5.5,17.3-15.8s-23.3-10-22-6.3c-1.6-5.2,18.7-12.7,31.8-15.1
		c7.2-1.3,8.7,6.7,11,12.1c1.8,4.2,1,15,3.6,18.2c6.6,8.3,14,0.4,22,4.2C822.8,261.7,801,346.5,801,371z"/>
	<path class="st0" d="M374.3,464.5c-10,0.1-20.7,2.1-28.2,8.4c-7.5,6.4,5.7-15.5,3.1-17.2c-5.6-3.7-13.4,4.2-14.6-7.5
		c13.5,4.5,4.3-111.6-29.1-69.2c-4.1-6.4-5.1-13.2-3.1-20.5c14.2,4.7,51.4-19,53.1-33.8s-16-11.3-20.5-10.9c5.4-6-7.3-25.5-13-28.7
		c-13.1-7.3-23.5,6.5-36.8,4c4.9-13.8,9.5-25.8-4.6-37.4c-11.8-9.7-28.8-3.1-41.1-12.8c7.3-7.8,11.6-23.5,20.3-29.2
		c9.1-6,25.8-1,36.3-2.3c9-1.2,74-19.8,45.8-31.9c1.6-2.3,11.5-2.6,12-5.3c0.8-4.9-3.8-8.6-3-13.4c2-12.5,9.8-32.8,21.6-39.8
		c12.3-7.3,25.8-0.2,38.1-9.4c11.1-8.3,12.9-25,25.1-32.2c0.5,22.8,2.6,46.2,13.7,66.6c-26.8,10.7-25.2,41.4-31.6,66.5
		c-6.7,26.5-26.9,26-39.1,48.2c-12.7,23.1-6.1,53.9,16.7,67.1c13.4,7.8,46.7,5.3,55.2,18.6c-1.8-2.4-3.6-2.6-5.5-0.8
		c8.4,15.3,23.8-9.5,18.7,17.2c-2.5,13-5,14.4-1.6,28.5c3,12.8,15.8,60,34.5,35c12.8,20.3-8.6,23-19.3,37.3
		c-3.7,5-23.6,10.3-27.3,17.6s9.5,7.6,17.6,10.3s6.9,25.6,12.6,28.8c13.1,7.3,23.4-6.6,36.8-4.2c-1,3.2-3.2,20-10,16
		c3.3,26.1,40,23.3,55.6,33.9c-7.1,8.1-11.5,24.7-21.2,29.5c-9.4,4.6-25.4-0.5-36.2,0.9c-10.5,1.3-73.2,16.8-45.9,33.9
		c-0.8,3.9-8.8,0.9-9.3,3.7c-0.6,3.3,1.3,8.7,0.7,12.8c-1.8,13.4-5.9,29.2-17.8,38.6c-12.6,9.9-25.9,2.7-39.4,9.3
		c-13.1,6.4-18.7,22.4-24.6,34.7c-9.9-11.1-8.9-30.5-11-44c-0.7-4.5-5.2-15.9-4.2-19.7c1.3-5.1,8.6-6.7,13.2-12.2
		c16.1-19.2,5.1-52.1,19.8-72.9c13.8-19.6,41.2-27.1,43.2-55.6C432.2,486.7,384.3,464.4,374.3,464.5z"/>
	<path class="st0" d="M638,126.8c15.3-6,41.7-16.2,50.8,3.1c6,12.8-1.8,29.7-10,37.9c-21.7,22.1-27.3,8.6-43.4-9.1
		c-5.8-6.4-15.3-7.7-13.7-16C622.2,139.7,639.6,128.4,638,126.8z M637.6,146c5,1.7,10.6,5.4,13.1-1.5
		C644.3,138.8,639.9,139.3,637.6,146z"/>
	<path class="st0" d="M164,675.2c-15.3,6-41.7,16.2-50.8-3.2c-6-12.8,1.8-29.7,10-37.9c21.8-22,27.3-8.4,43.4,9.3
		c5.8,6.4,15.3,7.7,13.8,16C179.8,662.5,162.8,674,164,675.2z M164.5,655.9c-5-1.7-10.6-5.2-13.1,1.6
		C157.8,663.3,162.2,662.7,164.5,655.9z"/>
	<path class="st0" d="M230.1,593.8c-16.1,0-49.4-25.3-17.6-35.1C226.8,554.3,255.8,597,230.1,593.8z"/>
	<path class="st0" d="M584.5,243.8c-17.2,0-40.3-46.1-0.6-34C601.9,215.3,609.7,243.8,584.5,243.8z"/>
	<path class="st0" d="M359.9,103.7c-2.6,4.7-1.9,8.9,1.9,12.7c-6.1,0.9-22.7-7.1-27.7-9.7c-2.5-1.3-8-1.2-9.8-3
		c-3.3-3.4-0.3-13.4-5.2-15.3C333.3,82.7,347.4,100.1,359.9,103.7z"/>
	<path class="st0" d="M481.3,713.1c-7.3-1.5-15.1-3.4-21.7-7.1c-9.1-5.1-11.5-16-19.3-20.4C456.1,684.1,478.3,696.5,481.3,713.1z"/>
	<path class="st0" d="M97.3,638.9c-14.7,1.2-19.9-15.2-5-21C107.1,612.1,105.8,631.9,97.3,638.9z"/>
	<path class="st0" d="M704.6,163c16-1.3,18.6,19.9,5.2,20.9C695.6,185,694.1,172.8,704.6,163z"/>
	<path class="st0" d="M158.5,212.3c-7.7,2.7-12.1,9.3-11.8,17.4c-7-9.7-3.7-26.8-2.9-37.9C149.6,195,159.9,204.7,158.5,212.3z"/>
	<path class="st0" d="M670.7,591.1c10.4,4.5-10.4,12.1-13.2,18.9c-20.3-12.7-2.2-20.5-2.2-37.8C655.4,572.3,660.3,586.6,670.7,591.1
		z"/>
	<path class="st0" d="M284.8,65.3c-9.7,7-8.3,6.2-12.6,16.4C254.2,65.1,284.5,51.5,284.8,65.3z"/>
	<path class="st0" d="M535.7,727.6c-16.2,25.6-15,13.4-6.9-6.3C532.9,719.8,535.2,721.9,535.7,727.6z"/>
	<path class="st0" d="M279.9,53.6c-2.1-8.9,2.4-4.9,9-4.9C285.9,50.3,282.9,52,279.9,53.6z"/>
	<path class="st0" d="M514.1,752.1c3.2-0.3,5.8-1.7,7.9-4.3C523.7,754.4,517.6,757.3,514.1,752.1z"/>
	<path class="st0" d="M273,130.7c4.6,0-2-8.1,5.2-6.4C277.6,127.3,278.4,131.1,273,130.7z"/>
	<path class="st0" d="M584.3,701c-0.9-4.8,0.7-7,4.8-6.5C589.1,694.5,586.6,705.7,584.3,701z"/>
	<path class="st0" d="M600.6,174.9c2.3-6.8,6.6-7.3,13-1.5C611.1,180.3,605.5,176.6,600.6,174.9z"/>
	<path class="st0" d="M149.2,707.6c-2.3,6.7-6.7,7.2-13.1,1.5C138.7,702.1,144.1,706.2,149.2,707.6z"/>
</g>
</svg>
